G04*
G04 #@! TF.GenerationSoftware,Altium Limited,Altium Designer,25.8.1 (18)*
G04*
G04 Layer_Color=32896*
%FSTAX25Y25*%
%MOIN*%
G70*
G04*
G04 #@! TF.SameCoordinates,DF34DFE3-8D6B-4D56-A59C-19EA502AC89A*
G04*
G04*
G04 #@! TF.FilePolarity,Positive*
G04*
G01*
G75*
%ADD11C,0.01000*%
%ADD35C,0.00945*%
%ADD36C,0.00500*%
D11*
X01145Y0326D02*
X0128D01*
X01145D02*
Y0334D01*
X0128D01*
Y0326D02*
Y0334D01*
X0256Y0338D02*
X02695D01*
Y033D02*
Y0338D01*
X0256Y033D02*
X02695D01*
X0256D02*
Y0338D01*
Y0301D02*
X02695D01*
X0256D02*
Y0309D01*
X02695D01*
Y0301D02*
Y0309D01*
X0196Y03D02*
X02095D01*
X0196D02*
Y0308D01*
X02095D01*
Y03D02*
Y0308D01*
X01915Y03405D02*
X0205D01*
Y03325D02*
Y03405D01*
X01915Y03325D02*
X0205D01*
X01915D02*
Y03405D01*
X017Y0326D02*
X01835D01*
X017D02*
Y0334D01*
X01835D01*
Y0326D02*
Y0334D01*
X00895Y0308D02*
X0103D01*
Y03D02*
Y0308D01*
X00895Y03D02*
X0103D01*
X00895D02*
Y0308D01*
X01046Y03315D02*
Y03395D01*
X00911D02*
X01046D01*
X00911Y03315D02*
Y03395D01*
Y03315D02*
X01046D01*
X00265Y0307D02*
X004D01*
Y0299D02*
Y0307D01*
X00265Y0299D02*
X004D01*
X00265D02*
Y0307D01*
Y03275D02*
X004D01*
X00265D02*
Y03355D01*
X004D01*
Y03275D02*
Y03355D01*
X0198643Y0140499D02*
Y01345D01*
X0198357Y0140499D02*
Y01345D01*
X01995Y0140499D02*
X0196643D01*
X0195786Y0140213D01*
X0195215Y0139642D01*
X019493Y013907D01*
X0194644Y0138214D01*
Y0136785D01*
X019493Y0135928D01*
X0195215Y0135357D01*
X0195786Y0134786D01*
X0196643Y01345D01*
X01995D01*
X0196643Y0140499D02*
X0196072Y0140213D01*
X0195501Y0139642D01*
X0195215Y013907D01*
X019493Y0138214D01*
Y0136785D01*
X0195215Y0135928D01*
X0195501Y0135357D01*
X0196072Y0134786D01*
X0196643Y01345D01*
X0191273Y0140499D02*
X0193273Y01345D01*
X0191273Y0140499D02*
X0189274Y01345D01*
X0191273Y0139642D02*
X0189559Y01345D01*
X0192701Y0136214D02*
X0190131D01*
X0193844Y01345D02*
X019213D01*
X0190416D02*
X0188702D01*
X0187074Y0140499D02*
Y01345D01*
X0186788Y0140499D02*
X0183361Y0135071D01*
X0186788Y0139927D02*
X0183361Y01345D01*
Y0140499D02*
Y01345D01*
X0187931Y0140499D02*
X0186788D01*
X0184218D02*
X0182504D01*
X0187931Y01345D02*
X0186217D01*
X0177762Y0139642D02*
X0177476Y0138785D01*
Y0140499D01*
X0177762Y0139642D01*
X0178333Y0140213D01*
X017919Y0140499D01*
X0179761D01*
X0180618Y0140213D01*
X018119Y0139642D01*
X0181475Y013907D01*
X0181761Y0138214D01*
Y0136785D01*
X0181475Y0135928D01*
X018119Y0135357D01*
X0180618Y0134786D01*
X0179761Y01345D01*
X017919D01*
X0178333Y0134786D01*
X0177762Y0135357D01*
X0179761Y0140499D02*
X0180333Y0140213D01*
X0180904Y0139642D01*
X018119Y013907D01*
X0181475Y0138214D01*
Y0136785D01*
X018119Y0135928D01*
X0180904Y0135357D01*
X0180333Y0134786D01*
X0179761Y01345D01*
X0177762Y0136785D02*
Y01345D01*
X0177476Y0136785D02*
Y01345D01*
X0178619Y0136785D02*
X0176619D01*
X0169592Y0140499D02*
Y01345D01*
X0169307Y0140499D02*
X0167593Y0135357D01*
X0169592Y0140499D02*
X0167593Y01345D01*
X0165593Y0140499D02*
X0167593Y01345D01*
X0165593Y0140499D02*
Y01345D01*
X0165307Y0140499D02*
Y01345D01*
X0170449Y0140499D02*
X0169307D01*
X0165593D02*
X016445D01*
X0170449Y01345D02*
X0168735D01*
X016645D02*
X016445D01*
X0161194Y0140499D02*
X0163194Y01345D01*
X0161194Y0140499D02*
X0159194Y01345D01*
X0161194Y0139642D02*
X015948Y01345D01*
X0162622Y0136214D02*
X0160051D01*
X0163765Y01345D02*
X0162051D01*
X0160337D02*
X0158623D01*
X0156995Y0140499D02*
Y01345D01*
X0156709Y0140499D02*
X0153281Y0135071D01*
X0156709Y0139927D02*
X0153281Y01345D01*
Y0140499D02*
Y01345D01*
X0157852Y0140499D02*
X0156709D01*
X0154138D02*
X0152424D01*
X0157852Y01345D02*
X0156138D01*
X0150825Y0140499D02*
Y01345D01*
X0150539Y0140499D02*
Y01345D01*
X0147111Y0140499D02*
Y01345D01*
X0146826Y0140499D02*
Y01345D01*
X0151682Y0140499D02*
X0149682D01*
X0147968D02*
X0145969D01*
X0150539Y0137642D02*
X0147111D01*
X0151682Y01345D02*
X0149682D01*
X0147968D02*
X0145969D01*
X0137856Y0140499D02*
Y01345D01*
X013757Y0140499D02*
Y01345D01*
X013957Y0140499D02*
X0139856Y0138785D01*
Y0140499D01*
X0135571D01*
Y0138785D01*
X0135856Y0140499D01*
X0138713Y01345D02*
X0136714D01*
X0132714Y0140499D02*
X0133571Y0140213D01*
X0134143Y0139642D01*
X0134428Y013907D01*
X0134714Y0137928D01*
Y0137071D01*
X0134428Y0135928D01*
X0134143Y0135357D01*
X0133571Y0134786D01*
X0132714Y01345D01*
X0132143D01*
X0131286Y0134786D01*
X0130715Y0135357D01*
X0130429Y0135928D01*
X0130143Y0137071D01*
Y0137928D01*
X0130429Y013907D01*
X0130715Y0139642D01*
X0131286Y0140213D01*
X0132143Y0140499D01*
X0132714D01*
X0133286Y0140213D01*
X0133857Y0139642D01*
X0134143Y013907D01*
X0134428Y0137928D01*
Y0137071D01*
X0134143Y0135928D01*
X0133857Y0135357D01*
X0133286Y0134786D01*
X0132714Y01345D01*
X0132143D02*
X0131572Y0134786D01*
X0131Y0135357D01*
X0130715Y0135928D01*
X0130429Y0137071D01*
Y0137928D01*
X0130715Y013907D01*
X0131Y0139642D01*
X0131572Y0140213D01*
X0132143Y0140499D01*
X0126744D02*
X0128744Y01345D01*
X0126744Y0140499D02*
X0124745Y01345D01*
X0126744Y0139642D02*
X012503Y01345D01*
X0128172Y0136214D02*
X0125601D01*
X0129315Y01345D02*
X0127601D01*
X0125887D02*
X0124173D01*
X0122545Y0140499D02*
Y01345D01*
X0122259Y0140499D02*
X0118832Y0135071D01*
X0122259Y0139927D02*
X0118832Y01345D01*
Y0140499D02*
Y01345D01*
X0123402Y0140499D02*
X0122259D01*
X0119688D02*
X0117975D01*
X0123402Y01345D02*
X0121688D01*
X01975Y0081999D02*
Y0076D01*
X0197215Y0081999D02*
Y0076D01*
X0199214Y0081999D02*
X01995Y0080285D01*
Y0081999D01*
X0195215D01*
Y0080285D01*
X0195501Y0081999D01*
X0198357Y0076D02*
X0196358D01*
X0193501Y0081999D02*
Y0076D01*
X0193216Y0081999D02*
Y0076D01*
X0194358Y0081999D02*
X019093D01*
X0190073Y0081713D01*
X0189788Y0081427D01*
X0189502Y0080856D01*
Y0080285D01*
X0189788Y0079713D01*
X0190073Y0079428D01*
X019093Y0079142D01*
X0193216D01*
X019093Y0081999D02*
X0190359Y0081713D01*
X0190073Y0081427D01*
X0189788Y0080856D01*
Y0080285D01*
X0190073Y0079713D01*
X0190359Y0079428D01*
X019093Y0079142D01*
X0194358Y0076D02*
X0192359D01*
X0191787Y0079142D02*
X0191216Y0078856D01*
X019093Y0078571D01*
X0190073Y0076571D01*
X0189788Y0076286D01*
X0189502D01*
X0189216Y0076571D01*
X0191216Y0078856D02*
X019093Y0078285D01*
X0190359Y0076286D01*
X0190073Y0076D01*
X0189502D01*
X0189216Y0076571D01*
Y0076857D01*
X0185874Y0081999D02*
X0187874Y0076D01*
X0185874Y0081999D02*
X0183875Y0076D01*
X0185874Y0081142D02*
X018416Y0076D01*
X0187303Y0077714D02*
X0184732D01*
X0188445Y0076D02*
X0186731D01*
X0185017D02*
X0183303D01*
X0181675Y0081999D02*
Y0076D01*
X018139Y0081999D02*
X0177962Y0076571D01*
X018139Y0081427D02*
X0177962Y0076D01*
Y0081999D02*
Y0076D01*
X0182532Y0081999D02*
X018139D01*
X0178819D02*
X0177105D01*
X0182532Y0076D02*
X0180818D01*
X0170106Y0081999D02*
Y0076D01*
X0169821Y0081999D02*
Y0076D01*
X0166393Y0081999D02*
Y0076D01*
X0166107Y0081999D02*
Y0076D01*
X0170963Y0081999D02*
X0168964D01*
X016725D02*
X016525D01*
X0169821Y0079142D02*
X0166393D01*
X0170963Y0076D02*
X0168964D01*
X016725D02*
X016525D01*
X0163679Y0081999D02*
Y0077714D01*
X0163393Y0076857D01*
X0162822Y0076286D01*
X0161965Y0076D01*
X0161394D01*
X0160537Y0076286D01*
X0159966Y0076857D01*
X015968Y0077714D01*
Y0081999D01*
X0163393D02*
Y0077714D01*
X0163108Y0076857D01*
X0162537Y0076286D01*
X0161965Y0076D01*
X0164536Y0081999D02*
X0162537D01*
X0160537D02*
X0158823D01*
X0157252D02*
Y0076D01*
X0156966Y0081999D02*
X0153538Y0076571D01*
X0156966Y0081427D02*
X0153538Y0076D01*
Y0081999D02*
Y0076D01*
X0158109Y0081999D02*
X0156966D01*
X0154395D02*
X0152682D01*
X0158109Y0076D02*
X0156395D01*
X014794Y0081142D02*
X0147654Y0080285D01*
Y0081999D01*
X014794Y0081142D01*
X0148511Y0081713D01*
X0149368Y0081999D01*
X0149939D01*
X0150796Y0081713D01*
X0151367Y0081142D01*
X0151653Y0080571D01*
X0151939Y0079713D01*
Y0078285D01*
X0151653Y0077428D01*
X0151367Y0076857D01*
X0150796Y0076286D01*
X0149939Y0076D01*
X0149368D01*
X0148511Y0076286D01*
X014794Y0076857D01*
X0149939Y0081999D02*
X0150511Y0081713D01*
X0151082Y0081142D01*
X0151367Y0080571D01*
X0151653Y0079713D01*
Y0078285D01*
X0151367Y0077428D01*
X0151082Y0076857D01*
X0150511Y0076286D01*
X0149939Y0076D01*
X014794Y0078285D02*
Y0076D01*
X0147654Y0078285D02*
Y0076D01*
X0148797Y0078285D02*
X0146797D01*
X0138627Y0081999D02*
Y0076D01*
X0138342Y0081999D02*
Y0076D01*
X0140341Y0081999D02*
X0140627Y0080285D01*
Y0081999D01*
X0136342D01*
Y0080285D01*
X0136628Y0081999D01*
X0139484Y0076D02*
X0137485D01*
X0134628Y0081999D02*
Y0076D01*
X0134343Y0081999D02*
Y0076D01*
X0135485Y0081999D02*
X0132057D01*
X01312Y0081713D01*
X0130915Y0081427D01*
X0130629Y0080856D01*
Y0080285D01*
X0130915Y0079713D01*
X01312Y0079428D01*
X0132057Y0079142D01*
X0134343D01*
X0132057Y0081999D02*
X0131486Y0081713D01*
X01312Y0081427D01*
X0130915Y0080856D01*
Y0080285D01*
X01312Y0079713D01*
X0131486Y0079428D01*
X0132057Y0079142D01*
X0135485Y0076D02*
X0133486D01*
X0132914Y0079142D02*
X0132343Y0078856D01*
X0132057Y0078571D01*
X01312Y0076571D01*
X0130915Y0076286D01*
X0130629D01*
X0130343Y0076571D01*
X0132343Y0078856D02*
X0132057Y0078285D01*
X0131486Y0076286D01*
X01312Y0076D01*
X0130629D01*
X0130343Y0076571D01*
Y0076857D01*
X0128715Y0081999D02*
Y0077714D01*
X0128429Y0076857D01*
X0127858Y0076286D01*
X0127001Y0076D01*
X012643D01*
X0125573Y0076286D01*
X0125002Y0076857D01*
X0124716Y0077714D01*
Y0081999D01*
X0128429D02*
Y0077714D01*
X0128144Y0076857D01*
X0127573Y0076286D01*
X0127001Y0076D01*
X0129572Y0081999D02*
X0127573D01*
X0125573D02*
X0123859D01*
X0121145D02*
X0122002Y0081713D01*
X0122574Y0081142D01*
X0122859Y0080571D01*
X0123145Y0079428D01*
Y0078571D01*
X0122859Y0077428D01*
X0122574Y0076857D01*
X0122002Y0076286D01*
X0121145Y0076D01*
X0120574D01*
X0119717Y0076286D01*
X0119146Y0076857D01*
X011886Y0077428D01*
X0118575Y0078571D01*
Y0079428D01*
X011886Y0080571D01*
X0119146Y0081142D01*
X0119717Y0081713D01*
X0120574Y0081999D01*
X0121145D01*
X0121717Y0081713D01*
X0122288Y0081142D01*
X0122574Y0080571D01*
X0122859Y0079428D01*
Y0078571D01*
X0122574Y0077428D01*
X0122288Y0076857D01*
X0121717Y0076286D01*
X0121145Y0076D01*
X0120574D02*
X0120003Y0076286D01*
X0119431Y0076857D01*
X0119146Y0077428D01*
X011886Y0078571D01*
Y0079428D01*
X0119146Y0080571D01*
X0119431Y0081142D01*
X0120003Y0081713D01*
X0120574Y0081999D01*
X0116889D02*
Y0076D01*
X0116604Y0081999D02*
X0113176Y0076571D01*
X0116604Y0081427D02*
X0113176Y0076D01*
Y0081999D02*
Y0076D01*
X0117746Y0081999D02*
X0116604D01*
X0114033D02*
X0112319D01*
X0117746Y0076D02*
X0116032D01*
X0107577Y0081142D02*
X0107291Y0080285D01*
Y0081999D01*
X0107577Y0081142D01*
X0108148Y0081713D01*
X0109005Y0081999D01*
X0109576D01*
X0110433Y0081713D01*
X0111005Y0081142D01*
X011129Y0080571D01*
X0111576Y0079713D01*
Y0078285D01*
X011129Y0077428D01*
X0111005Y0076857D01*
X0110433Y0076286D01*
X0109576Y0076D01*
X0109005D01*
X0108148Y0076286D01*
X0107577Y0076857D01*
X0109576Y0081999D02*
X0110148Y0081713D01*
X0110719Y0081142D01*
X0111005Y0080571D01*
X011129Y0079713D01*
Y0078285D01*
X0111005Y0077428D01*
X0110719Y0076857D01*
X0110148Y0076286D01*
X0109576Y0076D01*
X0107577Y0078285D02*
Y0076D01*
X0107291Y0078285D02*
Y0076D01*
X0108434Y0078285D02*
X0106434D01*
X01975Y0091749D02*
Y008575D01*
X0197215Y0091749D02*
Y008575D01*
X0199214Y0091749D02*
X01995Y0090035D01*
Y0091749D01*
X0195215D01*
Y0090035D01*
X0195501Y0091749D01*
X0198357Y008575D02*
X0196358D01*
X0193501Y0091749D02*
Y008575D01*
X0193216Y0091749D02*
Y008575D01*
X0194358Y0091749D02*
X019093D01*
X0190073Y0091463D01*
X0189788Y0091177D01*
X0189502Y0090606D01*
Y0090035D01*
X0189788Y0089464D01*
X0190073Y0089178D01*
X019093Y0088892D01*
X0193216D01*
X019093Y0091749D02*
X0190359Y0091463D01*
X0190073Y0091177D01*
X0189788Y0090606D01*
Y0090035D01*
X0190073Y0089464D01*
X0190359Y0089178D01*
X019093Y0088892D01*
X0194358Y008575D02*
X0192359D01*
X0191787Y0088892D02*
X0191216Y0088607D01*
X019093Y0088321D01*
X0190073Y0086321D01*
X0189788Y0086036D01*
X0189502D01*
X0189216Y0086321D01*
X0191216Y0088607D02*
X019093Y0088035D01*
X0190359Y0086036D01*
X0190073Y008575D01*
X0189502D01*
X0189216Y0086321D01*
Y0086607D01*
X0185874Y0091749D02*
X0187874Y008575D01*
X0185874Y0091749D02*
X0183875Y008575D01*
X0185874Y0090892D02*
X018416Y008575D01*
X0187303Y0087464D02*
X0184732D01*
X0188445Y008575D02*
X0186731D01*
X0185017D02*
X0183303D01*
X0181675Y0091749D02*
Y008575D01*
X018139Y0091749D02*
X0177962Y0086321D01*
X018139Y0091177D02*
X0177962Y008575D01*
Y0091749D02*
Y008575D01*
X0182532Y0091749D02*
X018139D01*
X0178819D02*
X0177105D01*
X0182532Y008575D02*
X0180818D01*
X0170106Y0091749D02*
Y008575D01*
X0169821Y0091749D02*
X0168107Y0086607D01*
X0170106Y0091749D02*
X0168107Y008575D01*
X0166107Y0091749D02*
X0168107Y008575D01*
X0166107Y0091749D02*
Y008575D01*
X0165822Y0091749D02*
Y008575D01*
X0170963Y0091749D02*
X0169821D01*
X0166107D02*
X0164964D01*
X0170963Y008575D02*
X0169249D01*
X0166964D02*
X0164964D01*
X0163422Y0091749D02*
Y008575D01*
X0163136Y0091749D02*
Y008575D01*
X0164279Y0091749D02*
X0162279D01*
X0164279Y008575D02*
X0162279D01*
X0160337Y0091749D02*
Y008575D01*
X0160051Y0091749D02*
X0156623Y0086321D01*
X0160051Y0091177D02*
X0156623Y008575D01*
Y0091749D02*
Y008575D01*
X0161194Y0091749D02*
X0160051D01*
X015748D02*
X0155766D01*
X0161194Y008575D02*
X015948D01*
X0154167Y0091749D02*
Y008575D01*
X0153881Y0091749D02*
Y008575D01*
X0150453Y0091749D02*
Y008575D01*
X0150168Y0091749D02*
Y008575D01*
X0155024Y0091749D02*
X0153024D01*
X015131D02*
X0149311D01*
X0153881Y0088892D02*
X0150453D01*
X0155024Y008575D02*
X0153024D01*
X015131D02*
X0149311D01*
X0141198Y0091749D02*
Y008575D01*
X0140913Y0091749D02*
Y008575D01*
X0142912Y0091749D02*
X0143198Y0090035D01*
Y0091749D01*
X0138913D01*
Y0090035D01*
X0139199Y0091749D01*
X0142055Y008575D02*
X0140056D01*
X0136056Y0091749D02*
X0136913Y0091463D01*
X0137485Y0090892D01*
X013777Y009032D01*
X0138056Y0089178D01*
Y0088321D01*
X013777Y0087178D01*
X0137485Y0086607D01*
X0136913Y0086036D01*
X0136056Y008575D01*
X0135485D01*
X0134628Y0086036D01*
X0134057Y0086607D01*
X0133771Y0087178D01*
X0133486Y0088321D01*
Y0089178D01*
X0133771Y009032D01*
X0134057Y0090892D01*
X0134628Y0091463D01*
X0135485Y0091749D01*
X0136056D01*
X0136628Y0091463D01*
X0137199Y0090892D01*
X0137485Y009032D01*
X013777Y0089178D01*
Y0088321D01*
X0137485Y0087178D01*
X0137199Y0086607D01*
X0136628Y0086036D01*
X0136056Y008575D01*
X0135485D02*
X0134914Y0086036D01*
X0134343Y0086607D01*
X0134057Y0087178D01*
X0133771Y0088321D01*
Y0089178D01*
X0134057Y009032D01*
X0134343Y0090892D01*
X0134914Y0091463D01*
X0135485Y0091749D01*
X0130086D02*
X0132086Y008575D01*
X0130086Y0091749D02*
X0128087Y008575D01*
X0130086Y0090892D02*
X0128372Y008575D01*
X0131515Y0087464D02*
X0128944D01*
X0132657Y008575D02*
X0130943D01*
X0129229D02*
X0127515D01*
X0125887Y0091749D02*
Y008575D01*
X0125601Y0091749D02*
X0122174Y0086321D01*
X0125601Y0091177D02*
X0122174Y008575D01*
Y0091749D02*
Y008575D01*
X0126744Y0091749D02*
X0125601D01*
X0123031D02*
X0121317D01*
X0126744Y008575D02*
X012503D01*
X0198643Y0101499D02*
Y00955D01*
X0198357Y0101499D02*
Y00955D01*
X01995Y0101499D02*
X0196072D01*
X0195215Y0101213D01*
X019493Y0100927D01*
X0194644Y0100356D01*
Y0099499D01*
X019493Y0098928D01*
X0195215Y0098642D01*
X0196072Y0098356D01*
X0198357D01*
X0196072Y0101499D02*
X0195501Y0101213D01*
X0195215Y0100927D01*
X019493Y0100356D01*
Y0099499D01*
X0195215Y0098928D01*
X0195501Y0098642D01*
X0196072Y0098356D01*
X01995Y00955D02*
X01975D01*
X0192987Y0101499D02*
Y00955D01*
X0192701Y0101499D02*
Y00955D01*
X0189274Y0101499D02*
Y00955D01*
X0188988Y0101499D02*
Y00955D01*
X0193844Y0101499D02*
X0191844D01*
X0190131D02*
X0188131D01*
X0192701Y0098642D02*
X0189274D01*
X0193844Y00955D02*
X0191844D01*
X0190131D02*
X0188131D01*
X0184846Y0101499D02*
X0186846Y00955D01*
X0184846Y0101499D02*
X0182846Y00955D01*
X0184846Y0100642D02*
X0183132Y00955D01*
X0186274Y0097214D02*
X0183703D01*
X0187417Y00955D02*
X0185703D01*
X0183989D02*
X0182275D01*
X0180647Y0101499D02*
Y00955D01*
X0180361Y0101499D02*
X0178647Y0096357D01*
X0180647Y0101499D02*
X0178647Y00955D01*
X0176648Y0101499D02*
X0178647Y00955D01*
X0176648Y0101499D02*
Y00955D01*
X0176362Y0101499D02*
Y00955D01*
X0181504Y0101499D02*
X0180361D01*
X0176648D02*
X0175505D01*
X0181504Y00955D02*
X017979D01*
X0177505D02*
X0175505D01*
X0168849Y0101499D02*
X016685Y00955D01*
X0168564Y0101499D02*
X016685Y0096357D01*
X016485Y0101499D02*
X016685Y00955D01*
X0169421Y0101499D02*
X0167707D01*
X0165993D02*
X0164279D01*
X0162651D02*
Y00955D01*
X0162365Y0101499D02*
Y00955D01*
X0163508Y0101499D02*
X0161508D01*
X0163508Y00955D02*
X0161508D01*
X0159566Y0101499D02*
Y00955D01*
X015928Y0101499D02*
Y00955D01*
X0157566Y0099785D02*
Y00975D01*
X0160423Y0101499D02*
X0155852D01*
Y0099785D01*
X0156138Y0101499D01*
X015928Y0098642D02*
X0157566D01*
X0160423Y00955D02*
X0155852D01*
Y0097214D01*
X0156138Y00955D01*
X0153024Y0101499D02*
Y00955D01*
X0152739Y0101499D02*
Y00955D01*
X0154738Y0101499D02*
X0155024Y0099785D01*
Y0101499D01*
X0150739D01*
Y0099785D01*
X0151025Y0101499D01*
X0153881Y00955D02*
X0151882D01*
X0143626Y0101499D02*
Y00955D01*
X0143341Y0101499D02*
Y00955D01*
X0144483Y0101499D02*
X0141627D01*
X014077Y0101213D01*
X0140198Y0100642D01*
X0139913Y0100071D01*
X0139627Y0099213D01*
Y0097785D01*
X0139913Y0096928D01*
X0140198Y0096357D01*
X014077Y0095786D01*
X0141627Y00955D01*
X0144483D01*
X0141627Y0101499D02*
X0141055Y0101213D01*
X0140484Y0100642D01*
X0140198Y0100071D01*
X0139913Y0099213D01*
Y0097785D01*
X0140198Y0096928D01*
X0140484Y0096357D01*
X0141055Y0095786D01*
X0141627Y00955D01*
X0136256Y0101499D02*
X0138256Y00955D01*
X0136256Y0101499D02*
X0134257Y00955D01*
X0136256Y0100642D02*
X0134543Y00955D01*
X0137685Y0097214D02*
X0135114D01*
X0138827Y00955D02*
X0137113D01*
X0135399D02*
X0133686D01*
X0132057Y0101499D02*
Y00955D01*
X0131772Y0101499D02*
X0128344Y0096071D01*
X0131772Y0100927D02*
X0128344Y00955D01*
Y0101499D02*
Y00955D01*
X0132914Y0101499D02*
X0131772D01*
X0129201D02*
X0127487D01*
X0132914Y00955D02*
X01312D01*
X0198643Y0111249D02*
Y010525D01*
X0198357Y0111249D02*
Y010525D01*
X01995Y0111249D02*
X0196643D01*
X0195786Y0110963D01*
X0195215Y0110392D01*
X019493Y010982D01*
X0194644Y0108964D01*
Y0107535D01*
X019493Y0106678D01*
X0195215Y0106107D01*
X0195786Y0105536D01*
X0196643Y010525D01*
X01995D01*
X0196643Y0111249D02*
X0196072Y0110963D01*
X0195501Y0110392D01*
X0195215Y010982D01*
X019493Y0108964D01*
Y0107535D01*
X0195215Y0106678D01*
X0195501Y0106107D01*
X0196072Y0105536D01*
X0196643Y010525D01*
X0192987Y0111249D02*
Y0106964D01*
X0192701Y0106107D01*
X019213Y0105536D01*
X0191273Y010525D01*
X0190702D01*
X0189845Y0105536D01*
X0189274Y0106107D01*
X0188988Y0106964D01*
Y0111249D01*
X0192701D02*
Y0106964D01*
X0192416Y0106107D01*
X0191844Y0105536D01*
X0191273Y010525D01*
X0193844Y0111249D02*
X0191844D01*
X0189845D02*
X0188131D01*
X0185417D02*
X0186274Y0110963D01*
X0186846Y0110392D01*
X0187131Y010982D01*
X0187417Y0108678D01*
Y0107821D01*
X0187131Y0106678D01*
X0186846Y0106107D01*
X0186274Y0105536D01*
X0185417Y010525D01*
X0184846D01*
X0183989Y0105536D01*
X0183418Y0106107D01*
X0183132Y0106678D01*
X0182846Y0107821D01*
Y0108678D01*
X0183132Y010982D01*
X0183418Y0110392D01*
X0183989Y0110963D01*
X0184846Y0111249D01*
X0185417D01*
X0185989Y0110963D01*
X018656Y0110392D01*
X0186846Y010982D01*
X0187131Y0108678D01*
Y0107821D01*
X0186846Y0106678D01*
X018656Y0106107D01*
X0185989Y0105536D01*
X0185417Y010525D01*
X0184846D02*
X0184275Y0105536D01*
X0183703Y0106107D01*
X0183418Y0106678D01*
X0183132Y0107821D01*
Y0108678D01*
X0183418Y010982D01*
X0183703Y0110392D01*
X0184275Y0110963D01*
X0184846Y0111249D01*
X0181161D02*
Y010525D01*
X0180875Y0111249D02*
X0177448Y0105821D01*
X0180875Y0110677D02*
X0177448Y010525D01*
Y0111249D02*
Y010525D01*
X0182018Y0111249D02*
X0180875D01*
X0178305D02*
X0176591D01*
X0182018Y010525D02*
X0180304D01*
X0171849Y0110392D02*
X0171563Y0109535D01*
Y0111249D01*
X0171849Y0110392D01*
X017242Y0110963D01*
X0173277Y0111249D01*
X0173848D01*
X0174705Y0110963D01*
X0175277Y0110392D01*
X0175562Y010982D01*
X0175848Y0108964D01*
Y0107535D01*
X0175562Y0106678D01*
X0175277Y0106107D01*
X0174705Y0105536D01*
X0173848Y010525D01*
X0173277D01*
X017242Y0105536D01*
X0171849Y0106107D01*
X0173848Y0111249D02*
X017442Y0110963D01*
X0174991Y0110392D01*
X0175277Y010982D01*
X0175562Y0108964D01*
Y0107535D01*
X0175277Y0106678D01*
X0174991Y0106107D01*
X017442Y0105536D01*
X0173848Y010525D01*
X0171849Y0107535D02*
Y010525D01*
X0171563Y0107535D02*
Y010525D01*
X0172706Y0107535D02*
X0170706D01*
X0163965Y0111249D02*
X0161965Y010525D01*
X0163679Y0111249D02*
X0161965Y0106107D01*
X0159966Y0111249D02*
X0161965Y010525D01*
X0164536Y0111249D02*
X0162822D01*
X0161108D02*
X0159394D01*
X0156052D02*
X0158052Y010525D01*
X0156052Y0111249D02*
X0154053Y010525D01*
X0156052Y0110392D02*
X0154338Y010525D01*
X015748Y0106964D02*
X015491D01*
X0158623Y010525D02*
X0156909D01*
X0155195D02*
X0153481D01*
X0151853Y0111249D02*
Y010525D01*
X0151567Y0111249D02*
X014814Y0105821D01*
X0151567Y0110677D02*
X014814Y010525D01*
Y0111249D02*
Y010525D01*
X015271Y0111249D02*
X0151567D01*
X0148996D02*
X0147283D01*
X015271Y010525D02*
X0150996D01*
X0140284Y0111249D02*
Y010525D01*
X0139998Y0111249D02*
Y010525D01*
X0136571Y0111249D02*
Y010525D01*
X0136285Y0111249D02*
Y010525D01*
X0141141Y0111249D02*
X0139141D01*
X0137428D02*
X0135428D01*
X0139998Y0108392D02*
X0136571D01*
X0141141Y010525D02*
X0139141D01*
X0137428D02*
X0135428D01*
X0132143Y0111249D02*
X0134143Y010525D01*
X0132143Y0111249D02*
X0130143Y010525D01*
X0132143Y0110392D02*
X0130429Y010525D01*
X0133571Y0106964D02*
X0131D01*
X0134714Y010525D02*
X0133D01*
X0131286D02*
X0129572D01*
X0127944Y0111249D02*
Y010525D01*
X0127658Y0111249D02*
Y010525D01*
X0128801Y0111249D02*
X0126801D01*
X0128801Y010525D02*
X0126801D01*
X011946Y0111249D02*
Y010525D01*
X0119174Y0111249D02*
Y010525D01*
X0120317Y0111249D02*
X011746D01*
X0116604Y0110963D01*
X0116032Y0110392D01*
X0115746Y010982D01*
X0115461Y0108964D01*
Y0107535D01*
X0115746Y0106678D01*
X0116032Y0106107D01*
X0116604Y0105536D01*
X011746Y010525D01*
X0120317D01*
X011746Y0111249D02*
X0116889Y0110963D01*
X0116318Y0110392D01*
X0116032Y010982D01*
X0115746Y0108964D01*
Y0107535D01*
X0116032Y0106678D01*
X0116318Y0106107D01*
X0116889Y0105536D01*
X011746Y010525D01*
X011209Y0111249D02*
X011409Y010525D01*
X011209Y0111249D02*
X0110091Y010525D01*
X011209Y0110392D02*
X0110376Y010525D01*
X0113518Y0106964D02*
X0110948D01*
X0114661Y010525D02*
X0112947D01*
X0111233D02*
X0109519D01*
X0107891Y0111249D02*
Y010525D01*
X0107605Y0111249D02*
X0104178Y0105821D01*
X0107605Y0110677D02*
X0104178Y010525D01*
Y0111249D02*
Y010525D01*
X0108748Y0111249D02*
X0107605D01*
X0105034D02*
X0103321D01*
X0108748Y010525D02*
X0107034D01*
X0098579Y0110392D02*
X0098293Y0109535D01*
Y0111249D01*
X0098579Y0110392D01*
X009915Y0110963D01*
X0100007Y0111249D01*
X0100578D01*
X0101435Y0110963D01*
X0102007Y0110392D01*
X0102292Y010982D01*
X0102578Y0108964D01*
Y0107535D01*
X0102292Y0106678D01*
X0102007Y0106107D01*
X0101435Y0105536D01*
X0100578Y010525D01*
X0100007D01*
X009915Y0105536D01*
X0098579Y0106107D01*
X0100578Y0111249D02*
X010115Y0110963D01*
X0101721Y0110392D01*
X0102007Y010982D01*
X0102292Y0108964D01*
Y0107535D01*
X0102007Y0106678D01*
X0101721Y0106107D01*
X010115Y0105536D01*
X0100578Y010525D01*
X0098579Y0107535D02*
Y010525D01*
X0098293Y0107535D02*
Y010525D01*
X0099436Y0107535D02*
X0097436D01*
X0198643Y0120999D02*
Y0115D01*
X0198357Y0120999D02*
X019493Y0115571D01*
X0198357Y0120427D02*
X019493Y0115D01*
Y0120999D02*
Y0115D01*
X01995Y0120999D02*
X0198357D01*
X0195786D02*
X0194073D01*
X01995Y0115D02*
X0197786D01*
X0189331Y0120142D02*
X0189045Y0119285D01*
Y0120999D01*
X0189331Y0120142D01*
X0189902Y0120713D01*
X0190759Y0120999D01*
X019133D01*
X0192187Y0120713D01*
X0192759Y0120142D01*
X0193044Y0119571D01*
X019333Y0118713D01*
Y0117285D01*
X0193044Y0116428D01*
X0192759Y0115857D01*
X0192187Y0115286D01*
X019133Y0115D01*
X0190759D01*
X0189902Y0115286D01*
X0189331Y0115857D01*
X019133Y0120999D02*
X0191902Y0120713D01*
X0192473Y0120142D01*
X0192759Y0119571D01*
X0193044Y0118713D01*
Y0117285D01*
X0192759Y0116428D01*
X0192473Y0115857D01*
X0191902Y0115286D01*
X019133Y0115D01*
X0189331Y0117285D02*
Y0115D01*
X0189045Y0117285D02*
Y0115D01*
X0190188Y0117285D02*
X0188188D01*
X018656Y0120999D02*
Y0116714D01*
X0186274Y0115857D01*
X0185703Y0115286D01*
X0184846Y0115D01*
X0184275D01*
X0183418Y0115286D01*
X0182846Y0115857D01*
X0182561Y0116714D01*
Y0120999D01*
X0186274D02*
Y0116714D01*
X0185989Y0115857D01*
X0185417Y0115286D01*
X0184846Y0115D01*
X0187417Y0120999D02*
X0185417D01*
X0183418D02*
X0181704D01*
X0180418D02*
X0178419Y0117857D01*
Y0115D01*
X0180133Y0120999D02*
X0178133Y0117857D01*
Y0115D01*
X0176134Y0120999D02*
X0178133Y0117857D01*
X018099Y0120999D02*
X0179276D01*
X0177276D02*
X0175562D01*
X0179276Y0115D02*
X0177276D01*
X0173963Y0120999D02*
Y0115D01*
X0173677Y0120999D02*
Y0115D01*
X0171963Y0119285D02*
Y0117D01*
X017482Y0120999D02*
X0170249D01*
Y0119285D01*
X0170535Y0120999D01*
X0173677Y0118142D02*
X0171963D01*
X017482Y0115D02*
X0170249D01*
Y0116714D01*
X0170535Y0115D01*
X0168564Y0120999D02*
Y0115D01*
X0168278Y0120999D02*
X016485Y0115571D01*
X0168278Y0120427D02*
X016485Y0115D01*
Y0120999D02*
Y0115D01*
X0169421Y0120999D02*
X0168278D01*
X0165707D02*
X0163993D01*
X0169421Y0115D02*
X0167707D01*
X0156995Y0120999D02*
Y0115D01*
X0156709Y0120999D02*
Y0115D01*
X0157852Y0120999D02*
X0155852D01*
X0157852Y0115D02*
X0153567D01*
Y0116714D01*
X0153853Y0115D01*
X0151853Y0120999D02*
Y0116714D01*
X0151567Y0115857D01*
X0150996Y0115286D01*
X0150139Y0115D01*
X0149568D01*
X0148711Y0115286D01*
X014814Y0115857D01*
X0147854Y0116714D01*
Y0120999D01*
X0151567D02*
Y0116714D01*
X0151282Y0115857D01*
X015071Y0115286D01*
X0150139Y0115D01*
X015271Y0120999D02*
X015071D01*
X0148711D02*
X0146997D01*
X0145426D02*
Y0116714D01*
X014514Y0115857D01*
X0144569Y0115286D01*
X0143712Y0115D01*
X0143141D01*
X0142284Y0115286D01*
X0141712Y0115857D01*
X0141427Y0116714D01*
Y0120999D01*
X014514D02*
Y0116714D01*
X0144855Y0115857D01*
X0144283Y0115286D01*
X0143712Y0115D01*
X0146283Y0120999D02*
X0144283D01*
X0142284D02*
X014057D01*
X01336D02*
Y0115D01*
X0133314Y0120999D02*
Y0115D01*
X0134457Y0120999D02*
X0131029D01*
X0130172Y0120713D01*
X0129886Y0120427D01*
X0129601Y0119856D01*
Y0118999D01*
X0129886Y0118428D01*
X0130172Y0118142D01*
X0131029Y0117857D01*
X0133314D01*
X0131029Y0120999D02*
X0130458Y0120713D01*
X0130172Y0120427D01*
X0129886Y0119856D01*
Y0118999D01*
X0130172Y0118428D01*
X0130458Y0118142D01*
X0131029Y0117857D01*
X0134457Y0115D02*
X0132457D01*
X0127944Y0120999D02*
Y0115D01*
X0127658Y0120999D02*
Y0115D01*
X012423Y0120999D02*
Y0115D01*
X0123945Y0120999D02*
Y0115D01*
X0128801Y0120999D02*
X0126801D01*
X0125087D02*
X0123088D01*
X0127658Y0118142D02*
X012423D01*
X0128801Y0115D02*
X0126801D01*
X0125087D02*
X0123088D01*
X0120374Y0120999D02*
X0121231Y0120713D01*
X0121802Y0120142D01*
X0122088Y0119571D01*
X0122374Y0118428D01*
Y0117571D01*
X0122088Y0116428D01*
X0121802Y0115857D01*
X0121231Y0115286D01*
X0120374Y0115D01*
X0119803D01*
X0118946Y0115286D01*
X0118375Y0115857D01*
X0118089Y0116428D01*
X0117803Y0117571D01*
Y0118428D01*
X0118089Y0119571D01*
X0118375Y0120142D01*
X0118946Y0120713D01*
X0119803Y0120999D01*
X0120374D01*
X0120945Y0120713D01*
X0121517Y0120142D01*
X0121802Y0119571D01*
X0122088Y0118428D01*
Y0117571D01*
X0121802Y0116428D01*
X0121517Y0115857D01*
X0120945Y0115286D01*
X0120374Y0115D01*
X0119803D02*
X0119231Y0115286D01*
X011866Y0115857D01*
X0118375Y0116428D01*
X0118089Y0117571D01*
Y0118428D01*
X0118375Y0119571D01*
X011866Y0120142D01*
X0119231Y0120713D01*
X0119803Y0120999D01*
X0116118D02*
Y0115D01*
X0115832Y0120999D02*
X0112404Y0115571D01*
X0115832Y0120427D02*
X0112404Y0115D01*
Y0120999D02*
Y0115D01*
X0116975Y0120999D02*
X0115832D01*
X0113261D02*
X0111547D01*
X0116975Y0115D02*
X0115261D01*
X0106806Y0120142D02*
X010652Y0119285D01*
Y0120999D01*
X0106806Y0120142D01*
X0107377Y0120713D01*
X0108234Y0120999D01*
X0108805D01*
X0109662Y0120713D01*
X0110233Y0120142D01*
X0110519Y0119571D01*
X0110805Y0118713D01*
Y0117285D01*
X0110519Y0116428D01*
X0110233Y0115857D01*
X0109662Y0115286D01*
X0108805Y0115D01*
X0108234D01*
X0107377Y0115286D01*
X0106806Y0115857D01*
X0108805Y0120999D02*
X0109377Y0120713D01*
X0109948Y0120142D01*
X0110233Y0119571D01*
X0110519Y0118713D01*
Y0117285D01*
X0110233Y0116428D01*
X0109948Y0115857D01*
X0109377Y0115286D01*
X0108805Y0115D01*
X0106806Y0117285D02*
Y0115D01*
X010652Y0117285D02*
Y0115D01*
X0107663Y0117285D02*
X0105663D01*
X0098636Y0120999D02*
Y0115D01*
X009835Y0120999D02*
Y0115D01*
X0094922Y0120999D02*
Y0115D01*
X0094637Y0120999D02*
Y0115D01*
X0099493Y0120999D02*
X0097493D01*
X0095779D02*
X009378D01*
X009835Y0118142D02*
X0094922D01*
X0099493Y0115D02*
X0097493D01*
X0095779D02*
X009378D01*
X0091066Y0120999D02*
X0091923Y0120713D01*
X0092494Y0120142D01*
X009278Y0119571D01*
X0093066Y0118428D01*
Y0117571D01*
X009278Y0116428D01*
X0092494Y0115857D01*
X0091923Y0115286D01*
X0091066Y0115D01*
X0090495D01*
X0089638Y0115286D01*
X0089066Y0115857D01*
X0088781Y0116428D01*
X0088495Y0117571D01*
Y0118428D01*
X0088781Y0119571D01*
X0089066Y0120142D01*
X0089638Y0120713D01*
X0090495Y0120999D01*
X0091066D01*
X0091637Y0120713D01*
X0092209Y0120142D01*
X0092494Y0119571D01*
X009278Y0118428D01*
Y0117571D01*
X0092494Y0116428D01*
X0092209Y0115857D01*
X0091637Y0115286D01*
X0091066Y0115D01*
X0090495D02*
X0089924Y0115286D01*
X0089352Y0115857D01*
X0089066Y0116428D01*
X0088781Y0117571D01*
Y0118428D01*
X0089066Y0119571D01*
X0089352Y0120142D01*
X0089924Y0120713D01*
X0090495Y0120999D01*
X0085096D02*
X0087095Y0115D01*
X0085096Y0120999D02*
X0083096Y0115D01*
X0085096Y0120142D02*
X0083382Y0115D01*
X0086524Y0116714D02*
X0083953D01*
X0087667Y0115D02*
X0085953D01*
X0084239D02*
X0082525D01*
X0080897Y0120999D02*
Y0115D01*
X0080611Y0120999D02*
X0077183Y0115571D01*
X0080611Y0120427D02*
X0077183Y0115D01*
Y0120999D02*
Y0115D01*
X0081754Y0120999D02*
X0080611D01*
X007804D02*
X0076326D01*
X0081754Y0115D02*
X008004D01*
X0071585Y0120142D02*
X0071299Y0119285D01*
Y0120999D01*
X0071585Y0120142D01*
X0072156Y0120713D01*
X0073013Y0120999D01*
X0073584D01*
X0074441Y0120713D01*
X0075012Y0120142D01*
X0075298Y0119571D01*
X0075584Y0118713D01*
Y0117285D01*
X0075298Y0116428D01*
X0075012Y0115857D01*
X0074441Y0115286D01*
X0073584Y0115D01*
X0073013D01*
X0072156Y0115286D01*
X0071585Y0115857D01*
X0073584Y0120999D02*
X0074155Y0120713D01*
X0074727Y0120142D01*
X0075012Y0119571D01*
X0075298Y0118713D01*
Y0117285D01*
X0075012Y0116428D01*
X0074727Y0115857D01*
X0074155Y0115286D01*
X0073584Y0115D01*
X0071585Y0117285D02*
Y0115D01*
X0071299Y0117285D02*
Y0115D01*
X0072442Y0117285D02*
X0070442D01*
X0198643Y0130749D02*
Y012475D01*
X0198357Y0130749D02*
X019493Y0125321D01*
X0198357Y0130177D02*
X019493Y012475D01*
Y0130749D02*
Y012475D01*
X01995Y0130749D02*
X0198357D01*
X0195786D02*
X0194073D01*
X01995Y012475D02*
X0197786D01*
X0189331Y0129892D02*
X0189045Y0129035D01*
Y0130749D01*
X0189331Y0129892D01*
X0189902Y0130463D01*
X0190759Y0130749D01*
X019133D01*
X0192187Y0130463D01*
X0192759Y0129892D01*
X0193044Y0129321D01*
X019333Y0128463D01*
Y0127035D01*
X0193044Y0126178D01*
X0192759Y0125607D01*
X0192187Y0125036D01*
X019133Y012475D01*
X0190759D01*
X0189902Y0125036D01*
X0189331Y0125607D01*
X019133Y0130749D02*
X0191902Y0130463D01*
X0192473Y0129892D01*
X0192759Y0129321D01*
X0193044Y0128463D01*
Y0127035D01*
X0192759Y0126178D01*
X0192473Y0125607D01*
X0191902Y0125036D01*
X019133Y012475D01*
X0189331Y0127035D02*
Y012475D01*
X0189045Y0127035D02*
Y012475D01*
X0190188Y0127035D02*
X0188188D01*
X018656Y0130749D02*
Y0126464D01*
X0186274Y0125607D01*
X0185703Y0125036D01*
X0184846Y012475D01*
X0184275D01*
X0183418Y0125036D01*
X0182846Y0125607D01*
X0182561Y0126464D01*
Y0130749D01*
X0186274D02*
Y0126464D01*
X0185989Y0125607D01*
X0185417Y0125036D01*
X0184846Y012475D01*
X0187417Y0130749D02*
X0185417D01*
X0183418D02*
X0181704D01*
X0180418D02*
X0178419Y0127606D01*
Y012475D01*
X0180133Y0130749D02*
X0178133Y0127606D01*
Y012475D01*
X0176134Y0130749D02*
X0178133Y0127606D01*
X018099Y0130749D02*
X0179276D01*
X0177276D02*
X0175562D01*
X0179276Y012475D02*
X0177276D01*
X0173963Y0130749D02*
Y012475D01*
X0173677Y0130749D02*
Y012475D01*
X0171963Y0129035D02*
Y012675D01*
X017482Y0130749D02*
X0170249D01*
Y0129035D01*
X0170535Y0130749D01*
X0173677Y0127892D02*
X0171963D01*
X017482Y012475D02*
X0170249D01*
Y0126464D01*
X0170535Y012475D01*
X0168564Y0130749D02*
Y012475D01*
X0168278Y0130749D02*
X016485Y0125321D01*
X0168278Y0130177D02*
X016485Y012475D01*
Y0130749D02*
Y012475D01*
X0169421Y0130749D02*
X0168278D01*
X0165707D02*
X0163993D01*
X0169421Y012475D02*
X0167707D01*
X0155852Y0130749D02*
Y012475D01*
X0155567Y0130749D02*
Y012475D01*
X0157566Y0130749D02*
X0157852Y0129035D01*
Y0130749D01*
X0153567D01*
Y0129035D01*
X0153853Y0130749D01*
X0156709Y012475D02*
X015471D01*
X0151853Y0130749D02*
Y012475D01*
X0151567Y0130749D02*
Y012475D01*
X014814Y0130749D02*
Y012475D01*
X0147854Y0130749D02*
Y012475D01*
X015271Y0130749D02*
X015071D01*
X0148996D02*
X0146997D01*
X0151567Y0127892D02*
X014814D01*
X015271Y012475D02*
X015071D01*
X0148996D02*
X0146997D01*
X0145426Y0130749D02*
Y012475D01*
X014514Y0130749D02*
Y012475D01*
X0146283Y0130749D02*
X0144283D01*
X0146283Y012475D02*
X0144283D01*
X0136942Y0130749D02*
Y012475D01*
X0136656Y0130749D02*
X0133229Y0125321D01*
X0136656Y0130177D02*
X0133229Y012475D01*
Y0130749D02*
Y012475D01*
X0137799Y0130749D02*
X0136656D01*
X0134085D02*
X0132371D01*
X0137799Y012475D02*
X0136085D01*
X012763Y0129892D02*
X0127344Y0129035D01*
Y0130749D01*
X012763Y0129892D01*
X0128201Y0130463D01*
X0129058Y0130749D01*
X0129629D01*
X0130486Y0130463D01*
X0131058Y0129892D01*
X0131343Y0129321D01*
X0131629Y0128463D01*
Y0127035D01*
X0131343Y0126178D01*
X0131058Y0125607D01*
X0130486Y0125036D01*
X0129629Y012475D01*
X0129058D01*
X0128201Y0125036D01*
X012763Y0125607D01*
X0129629Y0130749D02*
X0130201Y0130463D01*
X0130772Y0129892D01*
X0131058Y0129321D01*
X0131343Y0128463D01*
Y0127035D01*
X0131058Y0126178D01*
X0130772Y0125607D01*
X0130201Y0125036D01*
X0129629Y012475D01*
X012763Y0127035D02*
Y012475D01*
X0127344Y0127035D02*
Y012475D01*
X0128487Y0127035D02*
X0126487D01*
X0123716Y0130749D02*
X0124573Y0130463D01*
X0125145Y0129892D01*
X012543Y0129321D01*
X0125716Y0128178D01*
Y0127321D01*
X012543Y0126178D01*
X0125145Y0125607D01*
X0124573Y0125036D01*
X0123716Y012475D01*
X0123145D01*
X0122288Y0125036D01*
X0121717Y0125607D01*
X0121431Y0126178D01*
X0121145Y0127321D01*
Y0128178D01*
X0121431Y0129321D01*
X0121717Y0129892D01*
X0122288Y0130463D01*
X0123145Y0130749D01*
X0123716D01*
X0124287Y0130463D01*
X0124859Y0129892D01*
X0125145Y0129321D01*
X012543Y0128178D01*
Y0127321D01*
X0125145Y0126178D01*
X0124859Y0125607D01*
X0124287Y0125036D01*
X0123716Y012475D01*
X0123145D02*
X0122574Y0125036D01*
X0122002Y0125607D01*
X0121717Y0126178D01*
X0121431Y0127321D01*
Y0128178D01*
X0121717Y0129321D01*
X0122002Y0129892D01*
X0122574Y0130463D01*
X0123145Y0130749D01*
X0116318Y0129892D02*
X0116032Y0129035D01*
Y0130749D01*
X0116318Y0129892D01*
X0116889Y0130463D01*
X0117746Y0130749D01*
X0118317D01*
X0119174Y0130463D01*
X0119746Y0129892D01*
X0120031Y0129321D01*
X0120317Y0128463D01*
Y0127035D01*
X0120031Y0126178D01*
X0119746Y0125607D01*
X0119174Y0125036D01*
X0118317Y012475D01*
X0117746D01*
X0116889Y0125036D01*
X0116318Y0125607D01*
X0116032Y0126178D01*
X0118317Y0130749D02*
X0118889Y0130463D01*
X011946Y0129892D01*
X0119746Y0129321D01*
X0120031Y0128463D01*
Y0127035D01*
X0119746Y0126178D01*
X011946Y0125607D01*
X0118889Y0125036D01*
X0118317Y012475D01*
X0108919Y0130749D02*
Y012475D01*
X0108634Y0130749D02*
X010692Y0125607D01*
X0108919Y0130749D02*
X010692Y012475D01*
X010492Y0130749D02*
X010692Y012475D01*
X010492Y0130749D02*
Y012475D01*
X0104635Y0130749D02*
Y012475D01*
X0109776Y0130749D02*
X0108634D01*
X010492D02*
X0103778D01*
X0109776Y012475D02*
X0108062D01*
X0105777D02*
X0103778D01*
X0100521Y0130749D02*
X0102521Y012475D01*
X0100521Y0130749D02*
X0098522Y012475D01*
X0100521Y0129892D02*
X0098807Y012475D01*
X010195Y0126464D02*
X0099379D01*
X0103092Y012475D02*
X0101378D01*
X0099664D02*
X009795D01*
X0096322Y0130749D02*
Y012475D01*
X0096036Y0130749D02*
Y012475D01*
X0097179Y0130749D02*
X0095179D01*
X0097179Y012475D02*
X0095179D01*
X03005Y0333812D02*
X0301156Y0334468D01*
X0302468D01*
X0303124Y0333812D01*
Y0333156D01*
X0302468Y03325D01*
X0301156D01*
X03005Y0331844D01*
Y0331188D01*
X0301156Y0330532D01*
X0302468D01*
X0303124Y0331188D01*
X0299188Y0330532D02*
X0297876D01*
X0298532D01*
Y0334468D01*
X0299188Y0333812D01*
X0239259Y034658D02*
X0239915Y0347236D01*
X0241227D01*
X0241883Y034658D01*
Y0345924D01*
X0241227Y0345268D01*
X0239915D01*
X0239259Y0344612D01*
Y0343956D01*
X0239915Y03433D01*
X0241227D01*
X0241883Y0343956D01*
X0235323Y03433D02*
X0237947D01*
X0235323Y0345924D01*
Y034658D01*
X0235979Y0347236D01*
X0237291D01*
X0237947Y034658D01*
X0013259Y033518D02*
X0013915Y0335836D01*
X0015227D01*
X0015883Y033518D01*
Y0334524D01*
X0015227Y0333868D01*
X0013915D01*
X0013259Y0333212D01*
Y0332556D01*
X0013915Y03319D01*
X0015227D01*
X0015883Y0332556D01*
X0009323Y0335836D02*
X0011947D01*
Y0333868D01*
X0010635Y0334524D01*
X0009979D01*
X0009323Y0333868D01*
Y0332556D01*
X0009979Y03319D01*
X0011291D01*
X0011947Y0332556D01*
X0159959Y035248D02*
X0160615Y0353136D01*
X0161927D01*
X0162583Y035248D01*
Y0351824D01*
X0161927Y0351168D01*
X0160615D01*
X0159959Y0350512D01*
Y0349856D01*
X0160615Y03492D01*
X0161927D01*
X0162583Y0349856D01*
X0158647Y035248D02*
X0157991Y0353136D01*
X0156679D01*
X0156023Y035248D01*
Y0351824D01*
X0156679Y0351168D01*
X0157335D01*
X0156679D01*
X0156023Y0350512D01*
Y0349856D01*
X0156679Y03492D01*
X0157991D01*
X0158647Y0349856D01*
X0079384Y0348298D02*
X0080384Y0349298D01*
X0082383D01*
X0083383Y0348298D01*
Y0347299D01*
X0082383Y0346299D01*
X0080384D01*
X0079384Y0345299D01*
Y03443D01*
X0080384Y03433D01*
X0082383D01*
X0083383Y03443D01*
X0074385Y03433D02*
Y0349298D01*
X0077385Y0346299D01*
X0073386D01*
X0124859Y0341436D02*
X0127483D01*
Y0339468D01*
X0126171Y0340124D01*
X0125515D01*
X0124859Y0339468D01*
Y0338156D01*
X0125515Y03375D01*
X0126827D01*
X0127483Y0338156D01*
X0123547Y03375D02*
Y0341436D01*
Y0338812D02*
X0121579Y0340124D01*
X0123547Y0338812D02*
X0121579Y03375D01*
X0119611D02*
Y0341436D01*
X0117643D01*
X0116987Y034078D01*
Y0339468D01*
X0117643Y0338812D01*
X0119611D01*
X0118299D02*
X0116987Y03375D01*
X0115675Y034078D02*
X0115019Y0341436D01*
X0113707D01*
X0113052Y034078D01*
Y0340124D01*
X0113707Y0339468D01*
X0114364D01*
X0113707D01*
X0113052Y0338812D01*
Y0338156D01*
X0113707Y03375D01*
X0115019D01*
X0115675Y0338156D01*
X0268983Y034478D02*
X0268327Y0345436D01*
X0267015D01*
X0266359Y034478D01*
Y0344124D01*
X0267015Y0343468D01*
X0267671D01*
X0267015D01*
X0266359Y0342812D01*
Y0342156D01*
X0267015Y03415D01*
X0268327D01*
X0268983Y0342156D01*
X0265047Y034478D02*
X0264391Y0345436D01*
X0263079D01*
X0262423Y034478D01*
Y0342156D01*
X0263079Y03415D01*
X0264391D01*
X0265047Y0342156D01*
Y034478D01*
X0261111D02*
X0260455Y0345436D01*
X0259143D01*
X0258487Y034478D01*
Y0342156D01*
X0259143Y03415D01*
X0260455D01*
X0261111Y0342156D01*
Y034478D01*
X0257175Y03415D02*
Y0345436D01*
X0255207D01*
X0254552Y034478D01*
Y0343468D01*
X0255207Y0342812D01*
X0257175D01*
X0255863D02*
X0254552Y03415D01*
X025324D02*
X0251928D01*
X0252584D01*
Y0345436D01*
X025324Y034478D01*
X0266359Y0316436D02*
X0268983D01*
Y0314468D01*
X0267671Y0315124D01*
X0267015D01*
X0266359Y0314468D01*
Y0313156D01*
X0267015Y03125D01*
X0268327D01*
X0268983Y0313156D01*
X0265047Y03125D02*
Y0316436D01*
Y0313812D02*
X0263079Y0315124D01*
X0265047Y0313812D02*
X0263079Y03125D01*
X0261111D02*
Y0316436D01*
X0259143D01*
X0258487Y031578D01*
Y0314468D01*
X0259143Y0313812D01*
X0261111D01*
X0259799D02*
X0258487Y03125D01*
X0257175D02*
X0255863D01*
X0256519D01*
Y0316436D01*
X0257175Y031578D01*
X0206359Y0315436D02*
X0208983D01*
Y0313468D01*
X0207671Y0314124D01*
X0207015D01*
X0206359Y0313468D01*
Y0312156D01*
X0207015Y03115D01*
X0208327D01*
X0208983Y0312156D01*
X0205047Y03115D02*
Y0315436D01*
Y0312812D02*
X0203079Y0314124D01*
X0205047Y0312812D02*
X0203079Y03115D01*
X0201111D02*
Y0315436D01*
X0199143D01*
X0198487Y031478D01*
Y0313468D01*
X0199143Y0312812D01*
X0201111D01*
X0199799D02*
X0198487Y03115D01*
X0194552D02*
X0197175D01*
X0194552Y0314124D01*
Y031478D01*
X0195208Y0315436D01*
X0196519D01*
X0197175Y031478D01*
X0204483Y034728D02*
X0203827Y0347936D01*
X0202515D01*
X0201859Y034728D01*
Y0346624D01*
X0202515Y0345968D01*
X0203171D01*
X0202515D01*
X0201859Y0345312D01*
Y0344656D01*
X0202515Y0344D01*
X0203827D01*
X0204483Y0344656D01*
X0200547Y034728D02*
X0199891Y0347936D01*
X0198579D01*
X0197923Y034728D01*
Y0344656D01*
X0198579Y0344D01*
X0199891D01*
X0200547Y0344656D01*
Y034728D01*
X0196611D02*
X0195955Y0347936D01*
X0194643D01*
X0193987Y034728D01*
Y0344656D01*
X0194643Y0344D01*
X0195955D01*
X0196611Y0344656D01*
Y034728D01*
X0192675Y0344D02*
Y0347936D01*
X0190708D01*
X0190052Y034728D01*
Y0345968D01*
X0190708Y0345312D01*
X0192675D01*
X0191364D02*
X0190052Y0344D01*
X0186116D02*
X018874D01*
X0186116Y0346624D01*
Y034728D01*
X0186772Y0347936D01*
X0188084D01*
X018874Y034728D01*
X0182983Y034078D02*
X0182327Y0341436D01*
X0181015D01*
X0180359Y034078D01*
Y0340124D01*
X0181015Y0339468D01*
X0181671D01*
X0181015D01*
X0180359Y0338812D01*
Y0338156D01*
X0181015Y03375D01*
X0182327D01*
X0182983Y0338156D01*
X0179047Y034078D02*
X0178391Y0341436D01*
X0177079D01*
X0176423Y034078D01*
Y0338156D01*
X0177079Y03375D01*
X0178391D01*
X0179047Y0338156D01*
Y034078D01*
X0175111D02*
X0174455Y0341436D01*
X0173143D01*
X0172487Y034078D01*
Y0338156D01*
X0173143Y03375D01*
X0174455D01*
X0175111Y0338156D01*
Y034078D01*
X0171175Y03375D02*
Y0341436D01*
X0169208D01*
X0168552Y034078D01*
Y0339468D01*
X0169208Y0338812D01*
X0171175D01*
X0169863D02*
X0168552Y03375D01*
X016724Y034078D02*
X0166584Y0341436D01*
X0165272D01*
X0164616Y034078D01*
Y0340124D01*
X0165272Y0339468D01*
X0165928D01*
X0165272D01*
X0164616Y0338812D01*
Y0338156D01*
X0165272Y03375D01*
X0166584D01*
X016724Y0338156D01*
X0099859Y0315436D02*
X0102483D01*
Y0313468D01*
X0101171Y0314124D01*
X0100515D01*
X0099859Y0313468D01*
Y0312156D01*
X0100515Y03115D01*
X0101827D01*
X0102483Y0312156D01*
X0098547Y03115D02*
Y0315436D01*
Y0312812D02*
X0096579Y0314124D01*
X0098547Y0312812D02*
X0096579Y03115D01*
X0094611D02*
Y0315436D01*
X0092643D01*
X0091987Y031478D01*
Y0313468D01*
X0092643Y0312812D01*
X0094611D01*
X0093299D02*
X0091987Y03115D01*
X0088708D02*
Y0315436D01*
X0090675Y0313468D01*
X0088052D01*
X0104083Y034628D02*
X0103427Y0346936D01*
X0102115D01*
X0101459Y034628D01*
Y0345624D01*
X0102115Y0344968D01*
X0102771D01*
X0102115D01*
X0101459Y0344312D01*
Y0343656D01*
X0102115Y0343D01*
X0103427D01*
X0104083Y0343656D01*
X0100147Y034628D02*
X0099491Y0346936D01*
X0098179D01*
X0097523Y034628D01*
Y0343656D01*
X0098179Y0343D01*
X0099491D01*
X0100147Y0343656D01*
Y034628D01*
X0096211D02*
X0095555Y0346936D01*
X0094243D01*
X0093587Y034628D01*
Y0343656D01*
X0094243Y0343D01*
X0095555D01*
X0096211Y0343656D01*
Y034628D01*
X0092275Y0343D02*
Y0346936D01*
X0090307D01*
X0089652Y034628D01*
Y0344968D01*
X0090307Y0344312D01*
X0092275D01*
X0090964D02*
X0089652Y0343D01*
X0086372D02*
Y0346936D01*
X008834Y0344968D01*
X0085716D01*
X0036859Y0314436D02*
X0039483D01*
Y0312468D01*
X0038171Y0313124D01*
X0037515D01*
X0036859Y0312468D01*
Y0311156D01*
X0037515Y03105D01*
X0038827D01*
X0039483Y0311156D01*
X0035547Y03105D02*
Y0314436D01*
Y0311812D02*
X0033579Y0313124D01*
X0035547Y0311812D02*
X0033579Y03105D01*
X0031611D02*
Y0314436D01*
X0029643D01*
X0028987Y031378D01*
Y0312468D01*
X0029643Y0311812D01*
X0031611D01*
X0030299D02*
X0028987Y03105D01*
X0025052Y0314436D02*
X0027675D01*
Y0312468D01*
X0026364Y0313124D01*
X0025708D01*
X0025052Y0312468D01*
Y0311156D01*
X0025708Y03105D01*
X0027019D01*
X0027675Y0311156D01*
X0039483Y034228D02*
X0038827Y0342936D01*
X0037515D01*
X0036859Y034228D01*
Y0341624D01*
X0037515Y0340968D01*
X0038171D01*
X0037515D01*
X0036859Y0340312D01*
Y0339656D01*
X0037515Y0339D01*
X0038827D01*
X0039483Y0339656D01*
X0035547Y034228D02*
X0034891Y0342936D01*
X0033579D01*
X0032923Y034228D01*
Y0339656D01*
X0033579Y0339D01*
X0034891D01*
X0035547Y0339656D01*
Y034228D01*
X0031611D02*
X0030955Y0342936D01*
X0029643D01*
X0028987Y034228D01*
Y0339656D01*
X0029643Y0339D01*
X0030955D01*
X0031611Y0339656D01*
Y034228D01*
X0027675Y0339D02*
Y0342936D01*
X0025708D01*
X0025052Y034228D01*
Y0340968D01*
X0025708Y0340312D01*
X0027675D01*
X0026364D02*
X0025052Y0339D01*
X0021116Y0342936D02*
X002374D01*
Y0340968D01*
X0022428Y0341624D01*
X0021772D01*
X0021116Y0340968D01*
Y0339656D01*
X0021772Y0339D01*
X0023084D01*
X002374Y0339656D01*
D35*
X0302173Y0284874D02*
G03*
X0302173Y0284874I-0000472J0D01*
G01*
X0234673Y029628D02*
G03*
X0234673Y029628I-0000472J0D01*
G01*
X0008673Y0284874D02*
G03*
X0008673Y0284874I-0000472J0D01*
G01*
X0155421Y0302185D02*
G03*
X0155421Y0302185I-0000472J0D01*
G01*
X0076173Y029628D02*
G03*
X0076173Y029628I-0000472J0D01*
G01*
D36*
X0308Y028763D02*
Y0302591D01*
Y031322D02*
Y0321094D01*
X0285165Y031322D02*
Y0321094D01*
Y0293142D02*
Y0302591D01*
X028989Y028763D02*
X0308D01*
X0301504Y0327787D02*
X0308Y0321094D01*
X0291661Y0327787D02*
X0301504D01*
X0285165Y0321094D02*
X0291661Y0327787D01*
X0217665Y03325D02*
X0224161Y0339193D01*
X0234004D01*
X02405Y03325D01*
X022239Y0299035D02*
X02405D01*
X0217665Y0304547D02*
Y0313996D01*
Y0324626D02*
Y03325D01*
X02405Y0324626D02*
Y03325D01*
Y0299035D02*
Y0313996D01*
X-0008335Y0321094D02*
X-0001839Y0327787D01*
X0008004D01*
X00145Y0321094D01*
X-000361Y028763D02*
X00145D01*
X-0008335Y0293142D02*
Y0302591D01*
Y031322D02*
Y0321094D01*
X00145Y031322D02*
Y0321094D01*
Y028763D02*
Y0302591D01*
X0138413Y0338406D02*
X0144909Y0345098D01*
X0154752D01*
X0161248Y0338406D01*
X0143138Y0304941D02*
X0161248D01*
X0138413Y0310453D02*
Y0319902D01*
Y0330532D02*
Y0338406D01*
X0161248Y0330532D02*
Y0338406D01*
Y0304941D02*
Y0319902D01*
X0059165Y03325D02*
X0065661Y0339193D01*
X0075504D01*
X0082Y03325D01*
X006389Y0299035D02*
X0082D01*
X0059165Y0304547D02*
Y0313996D01*
Y0324626D02*
Y03325D01*
X0082Y0324626D02*
Y03325D01*
Y0299035D02*
Y0313996D01*
M02*
