G04*
G04 #@! TF.GenerationSoftware,Altium Limited,Altium Designer,25.8.1 (18)*
G04*
G04 Layer_Color=2752767*
%FSTAX25Y25*%
%MOIN*%
G70*
G04*
G04 #@! TF.SameCoordinates,DF34DFE3-8D6B-4D56-A59C-19EA502AC89A*
G04*
G04*
G04 #@! TF.FilePolarity,Positive*
G04*
G01*
G75*
%ADD36C,0.00500*%
%ADD38C,0.00667*%
D36*
X00875Y02505D02*
X00855Y02545D01*
X00895D01*
X00875Y02505D01*
Y02405D02*
X00855Y02445D01*
X00895D01*
X00875Y02405D01*
Y02305D02*
X00855Y02345D01*
X00895D01*
X00875Y02305D01*
Y02205D02*
X00855Y02245D01*
X00895D01*
X00875Y02205D01*
Y02105D02*
X00855Y02145D01*
X00895D01*
X00875Y02105D01*
Y02005D02*
X00855Y02045D01*
X00895D01*
X00875Y02005D01*
Y01905D02*
X00855Y01945D01*
X00895D01*
X00875Y01905D01*
Y01805D02*
X00855Y01845D01*
X00895D01*
X00875Y01805D01*
X01675Y0176106D02*
X01655Y0180106D01*
X01695D01*
X01675Y0176106D01*
X00875D02*
X00855Y0180106D01*
X00895D01*
X00875Y0176106D01*
X0222083Y0329941D02*
X0224083Y0331941D01*
X0226083Y0329941D01*
X0224083Y0327941D01*
X0222083Y0329941D01*
X0289583Y0318535D02*
X0291583Y0320535D01*
X0293583Y0318535D01*
X0291583Y0316535D01*
X0289583Y0318535D01*
X0222083Y0308287D02*
X0224083Y0310287D01*
X0226083Y0308287D01*
X0224083Y0306287D01*
X0222083Y0308287D01*
X0142831Y0335846D02*
X0144831Y0337846D01*
X0146831Y0335846D01*
X0144831Y0333846D01*
X0142831Y0335846D01*
Y0314193D02*
X0144831Y0316193D01*
X0146831Y0314193D01*
X0144831Y0312193D01*
X0142831Y0314193D01*
X0289583Y0296882D02*
X0291583Y0298882D01*
X0293583Y0296882D01*
X0291583Y0294882D01*
X0289583Y0296882D01*
X02505Y0043D02*
X02515Y0044D01*
X02525D01*
X02515Y0045D01*
X02525Y0046D01*
X02515D01*
X02505Y0047D01*
X02495Y0046D01*
X02485D01*
X02495Y0045D01*
X02485Y0044D01*
X02495D01*
X02505Y0043D01*
X01455Y0065D02*
X01465Y0066D01*
X01475D01*
X01465Y0067D01*
X01475Y0068D01*
X01465D01*
X01455Y0069D01*
X01445Y0068D01*
X01435D01*
X01445Y0067D01*
X01435Y0066D01*
X01445D01*
X01455Y0065D01*
X0139Y01485D02*
X014Y01495D01*
X0141D01*
X014Y01505D01*
X0141Y01515D01*
X014D01*
X0139Y01525D01*
X0138Y01515D01*
X0137D01*
X0138Y01505D01*
X0137Y01495D01*
X0138D01*
X0139Y01485D01*
X022324Y-00075D02*
X022424Y-00065D01*
X022524D01*
X022424Y-00055D01*
X022524Y-00045D01*
X022424D01*
X022324Y-00035D01*
X022224Y-00045D01*
X022124D01*
X022224Y-00055D01*
X022124Y-00065D01*
X022224D01*
X022324Y-00075D01*
X01445D02*
X01455Y-00065D01*
X01465D01*
X01455Y-00055D01*
X01465Y-00045D01*
X01455D01*
X01445Y-00035D01*
X01435Y-00045D01*
X01425D01*
X01435Y-00055D01*
X01425Y-00065D01*
X01435D01*
X01445Y-00075D01*
X0063583Y0329941D02*
X0065583Y0331941D01*
X0067583Y0329941D01*
X0065583Y0327941D01*
X0063583Y0329941D01*
Y0308287D02*
X0065583Y0310287D01*
X0067583Y0308287D01*
X0065583Y0306287D01*
X0063583Y0308287D01*
X-0003917Y0296882D02*
X-0001917Y0298882D01*
X0000083Y0296882D01*
X-0001917Y0294882D01*
X-0003917Y0296882D01*
Y0318535D02*
X-0001917Y0320535D01*
X0000083Y0318535D01*
X-0001917Y0316535D01*
X-0003917Y0318535D01*
X01145Y0048D02*
X01155Y0049D01*
X01165D01*
X01155Y005D01*
X01165Y0051D01*
X01155D01*
X01145Y0052D01*
X01135Y0051D01*
X01125D01*
X01135Y005D01*
X01125Y0049D01*
X01135D01*
X01145Y0048D01*
X00975Y02765D02*
X00955Y02805D01*
X00995D01*
X00975Y02765D01*
X01145Y-0012D02*
X01155Y-0011D01*
X01165D01*
X01155Y-001D01*
X01165Y-0009D01*
X01155D01*
X01145Y-0008D01*
X01135Y-0009D01*
X01125D01*
X01135Y-001D01*
X01125Y-0011D01*
X01135D01*
X01145Y-0012D01*
X00645D02*
X00655Y-0011D01*
X00665D01*
X00655Y-001D01*
X00665Y-0009D01*
X00655D01*
X00645Y-0008D01*
X00635Y-0009D01*
X00625D01*
X00635Y-001D01*
X00625Y-0011D01*
X00635D01*
X00645Y-0012D01*
X0082584Y0073545D02*
Y0077545D01*
X0086584D01*
Y0073545D01*
X0082584D01*
Y0144412D02*
Y0148412D01*
X0086584D01*
Y0144412D01*
X0082584D01*
X0212582Y0072711D02*
Y0076711D01*
X0216582D01*
Y0072711D01*
X0212582D01*
Y0143577D02*
Y0147577D01*
X0216582D01*
Y0143577D01*
X0212582D01*
X00975Y0176106D02*
X00955Y0180106D01*
X00995D01*
X00975Y0176106D01*
X01075D02*
X01055Y0180106D01*
X01095D01*
X01075Y0176106D01*
X01175D02*
X01155Y0180106D01*
X01195D01*
X01175Y0176106D01*
X01275D02*
X01255Y0180106D01*
X01295D01*
X01275Y0176106D01*
X01375D02*
X01355Y0180106D01*
X01395D01*
X01375Y0176106D01*
X01475D02*
X01455Y0180106D01*
X01495D01*
X01475Y0176106D01*
X01575D02*
X01555Y0180106D01*
X01595D01*
X01575Y0176106D01*
X01775D02*
X01755Y0180106D01*
X01795D01*
X01775Y0176106D01*
X01875D02*
X01855Y0180106D01*
X01895D01*
X01875Y0176106D01*
X01975D02*
X01955Y0180106D01*
X01995D01*
X01975Y0176106D01*
X02075D02*
X02055Y0180106D01*
X02095D01*
X02075Y0176106D01*
X02175D02*
X02155Y0180106D01*
X02195D01*
X02175Y0176106D01*
X02275D02*
X02255Y0180106D01*
X02295D01*
X02275Y0176106D01*
X00875Y02765D02*
X00855Y02805D01*
X00895D01*
X00875Y02765D01*
X01075D02*
X01055Y02805D01*
X01095D01*
X01075Y02765D01*
X01175D02*
X01155Y02805D01*
X01195D01*
X01175Y02765D01*
X01275D02*
X01255Y02805D01*
X01295D01*
X01275Y02765D01*
X01375D02*
X01355Y02805D01*
X01395D01*
X01375Y02765D01*
X01475D02*
X01455Y02805D01*
X01495D01*
X01475Y02765D01*
X01575D02*
X01555Y02805D01*
X01595D01*
X01575Y02765D01*
X01675D02*
X01655Y02805D01*
X01695D01*
X01675Y02765D01*
X01775D02*
X01755Y02805D01*
X01795D01*
X01775Y02765D01*
X01875D02*
X01855Y02805D01*
X01895D01*
X01875Y02765D01*
X01975D02*
X01955Y02805D01*
X01995D01*
X01975Y02765D01*
X02075D02*
X02055Y02805D01*
X02095D01*
X02075Y02765D01*
X02175D02*
X02155Y02805D01*
X02195D01*
X02175Y02765D01*
X02275D02*
X02255Y02805D01*
X02295D01*
X02275Y02765D01*
X030125Y02725D02*
Y02765D01*
X030525D01*
Y02725D01*
X030125D01*
X030205Y02733D02*
Y02757D01*
X030445D01*
Y02733D01*
X030205D01*
X-00035Y02725D02*
Y02765D01*
X00005D01*
Y02725D01*
X-00035D01*
X-00027Y02733D02*
Y02757D01*
X-00003D01*
Y02733D01*
X-00027D01*
X01785Y0301D02*
Y0305D01*
X01825D01*
Y0301D01*
X01785D01*
X01793Y03018D02*
Y03042D01*
X01817D01*
Y03018D01*
X01793D01*
X0149Y01485D02*
X015Y01495D01*
X0151D01*
X015Y01505D01*
X0151Y01515D01*
X015D01*
X0149Y01525D01*
X0148Y01515D01*
X0147D01*
X0148Y01505D01*
X0147Y01495D01*
X0148D01*
X0149Y01485D01*
X01555Y0065D02*
X01565Y0066D01*
X01575D01*
X01565Y0067D01*
X01575Y0068D01*
X01565D01*
X01555Y0069D01*
X01545Y0068D01*
X01535D01*
X01545Y0067D01*
X01535Y0066D01*
X01545D01*
X01555Y0065D01*
X00545Y-0012D02*
X00555Y-0011D01*
X00565D01*
X00555Y-001D01*
X00565Y-0009D01*
X00555D01*
X00545Y-0008D01*
X00535Y-0009D01*
X00525D01*
X00535Y-001D01*
X00525Y-0011D01*
X00535D01*
X00545Y-0012D01*
X01755Y0065D02*
X01765Y0066D01*
X01775D01*
X01765Y0067D01*
X01775Y0068D01*
X01765D01*
X01755Y0069D01*
X01745Y0068D01*
X01735D01*
X01745Y0067D01*
X01735Y0066D01*
X01745D01*
X01755Y0065D01*
X0248Y00085D02*
X0249Y00095D01*
X025D01*
X0249Y00105D01*
X025Y00115D01*
X0249D01*
X0248Y00125D01*
X0247Y00115D01*
X0246D01*
X0247Y00105D01*
X0246Y00095D01*
X0247D01*
X0248Y00085D01*
X0169Y01485D02*
X017Y01495D01*
X0171D01*
X017Y01505D01*
X0171Y01515D01*
X017D01*
X0169Y01525D01*
X0168Y01515D01*
X0167D01*
X0168Y01505D01*
X0167Y01495D01*
X0168D01*
X0169Y01485D01*
X01655Y0065D02*
X01665Y0066D01*
X01675D01*
X01665Y0067D01*
X01675Y0068D01*
X01665D01*
X01655Y0069D01*
X01645Y0068D01*
X01635D01*
X01645Y0067D01*
X01635Y0066D01*
X01645D01*
X01655Y0065D01*
X00545Y0048D02*
X00555Y0049D01*
X00565D01*
X00555Y005D01*
X00565Y0051D01*
X00555D01*
X00545Y0052D01*
X00535Y0051D01*
X00525D01*
X00535Y005D01*
X00525Y0049D01*
X00535D01*
X00545Y0048D01*
X00945D02*
X00955Y0049D01*
X00965D01*
X00955Y005D01*
X00965Y0051D01*
X00955D01*
X00945Y0052D01*
X00935Y0051D01*
X00925D01*
X00935Y005D01*
X00925Y0049D01*
X00935D01*
X00945Y0048D01*
X0299583Y0296882D02*
X0301583Y0298882D01*
X0303583Y0296882D01*
X0301583Y0294882D01*
X0299583Y0296882D01*
X0159Y01485D02*
X016Y01495D01*
X0161D01*
X016Y01505D01*
X0161Y01515D01*
X016D01*
X0159Y01525D01*
X0158Y01515D01*
X0157D01*
X0158Y01505D01*
X0157Y01495D01*
X0158D01*
X0159Y01485D01*
X0073583Y0308287D02*
X0075583Y0310287D01*
X0077583Y0308287D01*
X0075583Y0306287D01*
X0073583Y0308287D01*
X01045Y0048D02*
X01055Y0049D01*
X01065D01*
X01055Y005D01*
X01065Y0051D01*
X01055D01*
X01045Y0052D01*
X01035Y0051D01*
X01025D01*
X01035Y005D01*
X01025Y0049D01*
X01035D01*
X01045Y0048D01*
X00645D02*
X00655Y0049D01*
X00665D01*
X00655Y005D01*
X00665Y0051D01*
X00655D01*
X00645Y0052D01*
X00635Y0051D01*
X00625D01*
X00635Y005D01*
X00625Y0049D01*
X00635D01*
X00645Y0048D01*
X0152831Y0314193D02*
X0154831Y0316193D01*
X0156831Y0314193D01*
X0154831Y0312193D01*
X0152831Y0314193D01*
X00445Y0048D02*
X00455Y0049D01*
X00465D01*
X00455Y005D01*
X00465Y0051D01*
X00455D01*
X00445Y0052D01*
X00435Y0051D01*
X00425D01*
X00435Y005D01*
X00425Y0049D01*
X00435D01*
X00445Y0048D01*
X00845D02*
X00855Y0049D01*
X00865D01*
X00855Y005D01*
X00865Y0051D01*
X00855D01*
X00845Y0052D01*
X00835Y0051D01*
X00825D01*
X00835Y005D01*
X00825Y0049D01*
X00835D01*
X00845Y0048D01*
X00745D02*
X00755Y0049D01*
X00765D01*
X00755Y005D01*
X00765Y0051D01*
X00755D01*
X00745Y0052D01*
X00735Y0051D01*
X00725D01*
X00735Y005D01*
X00725Y0049D01*
X00735D01*
X00745Y0048D01*
X0232083Y0308287D02*
X0234083Y0310287D01*
X0236083Y0308287D01*
X0234083Y0306287D01*
X0232083Y0308287D01*
X0006083Y0296882D02*
X0008083Y0298882D01*
X0010083Y0296882D01*
X0008083Y0294882D01*
X0006083Y0296882D01*
X0299583Y0318535D02*
X0301583Y0320535D01*
X0303583Y0318535D01*
X0301583Y0316535D01*
X0299583Y0318535D01*
X0302063Y0305709D02*
X0303063D01*
X0304063Y0306709D01*
X0305063Y0305709D01*
X0306063D01*
Y0306709D01*
X0305063Y0307709D01*
X0306063Y0308709D01*
Y0309709D01*
X0305063D01*
X0304063Y0308709D01*
X0303063Y0309709D01*
X0302063D01*
Y0308709D01*
X0303063Y0307709D01*
X0302063Y0306709D01*
Y0305709D01*
X0287102D02*
X0288102D01*
X0289102Y0306709D01*
X0290102Y0305709D01*
X0291102D01*
Y0306709D01*
X0290102Y0307709D01*
X0291102Y0308709D01*
Y0309709D01*
X0290102D01*
X0289102Y0308709D01*
X0288102Y0309709D01*
X0287102D01*
Y0308709D01*
X0288102Y0307709D01*
X0287102Y0306709D01*
Y0305709D01*
X0285937Y0288402D02*
Y0287402D01*
X0287937D01*
Y0288402D01*
X0288937D01*
Y0290402D01*
X0287937D01*
Y0291402D01*
X0285937D01*
Y0290402D01*
X0284937D01*
Y0288402D01*
X0285937D01*
X0218437Y0299807D02*
Y0298807D01*
X0220437D01*
Y0299807D01*
X0221437D01*
Y0301807D01*
X0220437D01*
Y0302807D01*
X0218437D01*
Y0301807D01*
X0217437D01*
Y0299807D01*
X0218437D01*
X0219602Y0317114D02*
X0220602D01*
X0221602Y0318114D01*
X0222602Y0317114D01*
X0223602D01*
Y0318114D01*
X0222602Y0319114D01*
X0223602Y0320114D01*
Y0321114D01*
X0222602D01*
X0221602Y0320114D01*
X0220602Y0321114D01*
X0219602D01*
Y0320114D01*
X0220602Y0319114D01*
X0219602Y0318114D01*
Y0317114D01*
X0234563D02*
X0235563D01*
X0236563Y0318114D01*
X0237563Y0317114D01*
X0238563D01*
Y0318114D01*
X0237563Y0319114D01*
X0238563Y0320114D01*
Y0321114D01*
X0237563D01*
X0236563Y0320114D01*
X0235563Y0321114D01*
X0234563D01*
Y0320114D01*
X0235563Y0319114D01*
X0234563Y0318114D01*
Y0317114D01*
X0232083Y0329941D02*
X0234083Y0331941D01*
X0236083Y0329941D01*
X0234083Y0327941D01*
X0232083Y0329941D01*
X-0007563Y0288402D02*
Y0287402D01*
X-0005563D01*
Y0288402D01*
X-0004563D01*
Y0290402D01*
X-0005563D01*
Y0291402D01*
X-0007563D01*
Y0290402D01*
X-0008563D01*
Y0288402D01*
X-0007563D01*
X-0006398Y0305709D02*
X-0005398D01*
X-0004398Y0306709D01*
X-0003398Y0305709D01*
X-0002398D01*
Y0306709D01*
X-0003398Y0307709D01*
X-0002398Y0308709D01*
Y0309709D01*
X-0003398D01*
X-0004398Y0308709D01*
X-0005398Y0309709D01*
X-0006398D01*
Y0308709D01*
X-0005398Y0307709D01*
X-0006398Y0306709D01*
Y0305709D01*
X0008563D02*
X0009563D01*
X0010563Y0306709D01*
X0011563Y0305709D01*
X0012563D01*
Y0306709D01*
X0011563Y0307709D01*
X0012563Y0308709D01*
Y0309709D01*
X0011563D01*
X0010563Y0308709D01*
X0009563Y0309709D01*
X0008563D01*
Y0308709D01*
X0009563Y0307709D01*
X0008563Y0306709D01*
Y0305709D01*
X0006083Y0318535D02*
X0008083Y0320535D01*
X0010083Y0318535D01*
X0008083Y0316535D01*
X0006083Y0318535D01*
X0139185Y0305713D02*
Y0304713D01*
X0141185D01*
Y0305713D01*
X0142185D01*
Y0307713D01*
X0141185D01*
Y0308713D01*
X0139185D01*
Y0307713D01*
X0138185D01*
Y0305713D01*
X0139185D01*
X014035Y032302D02*
X014135D01*
X014235Y032402D01*
X014335Y032302D01*
X014435D01*
Y032402D01*
X014335Y032502D01*
X014435Y032602D01*
Y032702D01*
X014335D01*
X014235Y032602D01*
X014135Y032702D01*
X014035D01*
Y032602D01*
X014135Y032502D01*
X014035Y032402D01*
Y032302D01*
X0155311D02*
X0156311D01*
X0157311Y032402D01*
X0158311Y032302D01*
X0159311D01*
Y032402D01*
X0158311Y032502D01*
X0159311Y032602D01*
Y032702D01*
X0158311D01*
X0157311Y032602D01*
X0156311Y032702D01*
X0155311D01*
Y032602D01*
X0156311Y032502D01*
X0155311Y032402D01*
Y032302D01*
X0152831Y0335846D02*
X0154831Y0337846D01*
X0156831Y0335846D01*
X0154831Y0333846D01*
X0152831Y0335846D01*
X0059937Y0299807D02*
Y0298807D01*
X0061937D01*
Y0299807D01*
X0062937D01*
Y0301807D01*
X0061937D01*
Y0302807D01*
X0059937D01*
Y0301807D01*
X0058937D01*
Y0299807D01*
X0059937D01*
X0061102Y0317114D02*
X0062102D01*
X0063102Y0318114D01*
X0064102Y0317114D01*
X0065102D01*
Y0318114D01*
X0064102Y0319114D01*
X0065102Y0320114D01*
Y0321114D01*
X0064102D01*
X0063102Y0320114D01*
X0062102Y0321114D01*
X0061102D01*
Y0320114D01*
X0062102Y0319114D01*
X0061102Y0318114D01*
Y0317114D01*
X0076063D02*
X0077063D01*
X0078063Y0318114D01*
X0079063Y0317114D01*
X0080063D01*
Y0318114D01*
X0079063Y0319114D01*
X0080063Y0320114D01*
Y0321114D01*
X0079063D01*
X0078063Y0320114D01*
X0077063Y0321114D01*
X0076063D01*
Y0320114D01*
X0077063Y0319114D01*
X0076063Y0318114D01*
Y0317114D01*
X0073583Y0329941D02*
X0075583Y0331941D01*
X0077583Y0329941D01*
X0075583Y0327941D01*
X0073583Y0329941D01*
X0117Y0301D02*
Y0305D01*
X0121D01*
Y0301D01*
X0117D01*
X01178Y03018D02*
Y03042D01*
X01202D01*
Y03018D01*
X01178D01*
X01855Y0065D02*
X01865Y0066D01*
X01875D01*
X01865Y0067D01*
X01875Y0068D01*
X01865D01*
X01855Y0069D01*
X01845Y0068D01*
X01835D01*
X01845Y0067D01*
X01835Y0066D01*
X01845D01*
X01855Y0065D01*
X01355D02*
X01365Y0066D01*
X01375D01*
X01365Y0067D01*
X01375Y0068D01*
X01365D01*
X01355Y0069D01*
X01345Y0068D01*
X01335D01*
X01345Y0067D01*
X01335Y0066D01*
X01345D01*
X01355Y0065D01*
X00945Y-0012D02*
X00955Y-0011D01*
X00965D01*
X00955Y-001D01*
X00965Y-0009D01*
X00955D01*
X00945Y-0008D01*
X00935Y-0009D01*
X00925D01*
X00935Y-001D01*
X00925Y-0011D01*
X00935D01*
X00945Y-0012D01*
X01045D02*
X01055Y-0011D01*
X01065D01*
X01055Y-001D01*
X01065Y-0009D01*
X01055D01*
X01045Y-0008D01*
X01035Y-0009D01*
X01025D01*
X01035Y-001D01*
X01025Y-0011D01*
X01035D01*
X01045Y-0012D01*
X022324Y00425D02*
X022424Y00435D01*
X022524D01*
X022424Y00445D01*
X022524Y00455D01*
X022424D01*
X022324Y00465D01*
X022224Y00455D01*
X022124D01*
X022224Y00445D01*
X022124Y00435D01*
X022224D01*
X022324Y00425D01*
Y00025D02*
X022424Y00035D01*
X022524D01*
X022424Y00045D01*
X022524Y00055D01*
X022424D01*
X022324Y00065D01*
X022224Y00055D01*
X022124D01*
X022224Y00045D01*
X022124Y00035D01*
X022224D01*
X022324Y00025D01*
Y00325D02*
X022424Y00335D01*
X022524D01*
X022424Y00345D01*
X022524Y00355D01*
X022424D01*
X022324Y00365D01*
X022224Y00355D01*
X022124D01*
X022224Y00345D01*
X022124Y00335D01*
X022224D01*
X022324Y00325D01*
X01445Y00025D02*
X01455Y00035D01*
X01465D01*
X01455Y00045D01*
X01465Y00055D01*
X01455D01*
X01445Y00065D01*
X01435Y00055D01*
X01425D01*
X01435Y00045D01*
X01425Y00035D01*
X01435D01*
X01445Y00025D01*
Y00325D02*
X01455Y00335D01*
X01465D01*
X01455Y00345D01*
X01465Y00355D01*
X01455D01*
X01445Y00365D01*
X01435Y00355D01*
X01425D01*
X01435Y00345D01*
X01425Y00335D01*
X01435D01*
X01445Y00325D01*
Y00425D02*
X01455Y00435D01*
X01465D01*
X01455Y00445D01*
X01465Y00455D01*
X01455D01*
X01445Y00465D01*
X01435Y00455D01*
X01425D01*
X01435Y00445D01*
X01425Y00435D01*
X01435D01*
X01445Y00425D01*
X0248Y00185D02*
X0249Y00195D01*
X025D01*
X0249Y00205D01*
X025Y00215D01*
X0249D01*
X0248Y00225D01*
X0247Y00215D01*
X0246D01*
X0247Y00205D01*
X0246Y00195D01*
X0247D01*
X0248Y00185D01*
X02505Y0053D02*
X02515Y0054D01*
X02525D01*
X02515Y0055D01*
X02525Y0056D01*
X02515D01*
X02505Y0057D01*
X02495Y0056D01*
X02485D01*
X02495Y0055D01*
X02485Y0054D01*
X02495D01*
X02505Y0053D01*
X00445Y-0012D02*
X00455Y-0011D01*
X00465D01*
X00455Y-001D01*
X00465Y-0009D01*
X00455D01*
X00445Y-0008D01*
X00435Y-0009D01*
X00425D01*
X00435Y-001D01*
X00425Y-0011D01*
X00435D01*
X00445Y-0012D01*
X00845D02*
X00855Y-0011D01*
X00865D01*
X00855Y-001D01*
X00865Y-0009D01*
X00855D01*
X00845Y-0008D01*
X00835Y-0009D01*
X00825D01*
X00835Y-001D01*
X00825Y-0011D01*
X00835D01*
X00845Y-0012D01*
X00745D02*
X00755Y-0011D01*
X00765D01*
X00755Y-001D01*
X00765Y-0009D01*
X00755D01*
X00745Y-0008D01*
X00735Y-0009D01*
X00725D01*
X00735Y-001D01*
X00725Y-0011D01*
X00735D01*
X00745Y-0012D01*
X0129Y01485D02*
X013Y01495D01*
X0131D01*
X013Y01505D01*
X0131Y01515D01*
X013D01*
X0129Y01525D01*
X0128Y01515D01*
X0127D01*
X0128Y01505D01*
X0127Y01495D01*
X0128D01*
X0129Y01485D01*
X0179D02*
X018Y01495D01*
X0181D01*
X018Y01505D01*
X0181Y01515D01*
X018D01*
X0179Y01525D01*
X0178Y01515D01*
X0177D01*
X0178Y01505D01*
X0177Y01495D01*
X0178D01*
X0179Y01485D01*
X0248Y-00015D02*
X0249Y-00005D01*
X025D01*
X0249Y00005D01*
X025Y00015D01*
X0249D01*
X0248Y00025D01*
X0247Y00015D01*
X0246D01*
X0247Y00005D01*
X0246Y-00005D01*
X0247D01*
X0248Y-00015D01*
X-00035Y0197D02*
Y0201D01*
X00005D01*
Y0197D01*
X-00035D01*
X-00027Y01978D02*
Y02002D01*
X-00003D01*
Y01978D01*
X-00027D01*
X-00045Y-00155D02*
Y-00115D01*
X-00005D01*
Y-00155D01*
X-00045D01*
X-00037Y-00147D02*
Y-00123D01*
X-00013D01*
Y-00147D01*
X-00037D01*
X0301Y-00155D02*
Y-00115D01*
X0305D01*
Y-00155D01*
X0301D01*
X03018Y-00147D02*
Y-00123D01*
X03042D01*
Y-00147D01*
X03018D01*
X030125Y0197D02*
Y0201D01*
X030525D01*
Y0197D01*
X030125D01*
X030205Y01978D02*
Y02002D01*
X030445D01*
Y01978D01*
X030205D01*
X0149583Y0186D02*
X0150583Y0188D01*
X0149583Y019D01*
X0151583Y0189D01*
X0153583Y019D01*
X0152583Y0188D01*
X0153583Y0186D01*
X0151583Y0187D01*
X0149583Y0186D01*
X0112583Y01207D02*
X0113583Y01227D01*
X0112583Y01247D01*
X0114583Y01237D01*
X0116583Y01247D01*
X0115583Y01227D01*
X0116583Y01207D01*
X0114583Y01217D01*
X0112583Y01207D01*
X0030783Y01177D02*
X0031783Y01197D01*
X0030783Y01217D01*
X0032783Y01207D01*
X0034783Y01217D01*
X0033783Y01197D01*
X0034783Y01177D01*
X0032783Y01187D01*
X0030783Y01177D01*
X0068083Y0267D02*
X0069083Y0269D01*
X0068083Y0271D01*
X0070083Y027D01*
X0072083Y0271D01*
X0071083Y0269D01*
X0072083Y0267D01*
X0070083Y0268D01*
X0068083Y0267D01*
X01987Y01084D02*
X01997Y01104D01*
X01987Y01124D01*
X02007Y01114D01*
X02027Y01124D01*
X02017Y01104D01*
X02027Y01084D01*
X02007Y01094D01*
X01987Y01084D01*
X0216183Y02245D02*
X0217183Y02265D01*
X0216183Y02285D01*
X0218183Y02275D01*
X0220183Y02285D01*
X0219183Y02265D01*
X0220183Y02245D01*
X0218183Y02255D01*
X0216183Y02245D01*
X0082483Y00077D02*
X0083483Y00097D01*
X0082483Y00117D01*
X0084483Y00107D01*
X0086483Y00117D01*
X0085483Y00097D01*
X0086483Y00077D01*
X0084483Y00087D01*
X0082483Y00077D01*
X0084934Y03156D02*
X0085934Y03176D01*
X0084934Y03196D01*
X0086934Y03186D01*
X0088934Y03196D01*
X0087934Y03176D01*
X0088934Y03156D01*
X0086934Y03166D01*
X0084934Y03156D01*
X0196083Y00647D02*
X0197083Y00667D01*
X0196083Y00687D01*
X0198083Y00677D01*
X0200083Y00687D01*
X0199083Y00667D01*
X0200083Y00647D01*
X0198083Y00657D01*
X0196083Y00647D01*
X0075583Y00068D02*
X0076583Y00088D01*
X0075583Y00108D01*
X0077583Y00098D01*
X0079583Y00108D01*
X0078583Y00088D01*
X0079583Y00068D01*
X0077583Y00078D01*
X0075583Y00068D01*
X0090883Y03246D02*
X0091883Y03266D01*
X0090883Y03286D01*
X0092883Y03276D01*
X0094883Y03286D01*
X0093883Y03266D01*
X0094883Y03246D01*
X0092883Y03256D01*
X0090883Y03246D01*
X0160383Y02934D02*
X0161383Y02954D01*
X0160383Y02974D01*
X0162383Y02964D01*
X0164383Y02974D01*
X0163383Y02954D01*
X0164383Y02934D01*
X0162383Y02944D01*
X0160383Y02934D01*
X0042483Y02688D02*
X0043483Y02708D01*
X0042483Y02728D01*
X0044483Y02718D01*
X0046483Y02728D01*
X0045483Y02708D01*
X0046483Y02688D01*
X0044483Y02698D01*
X0042483Y02688D01*
X0133783Y01933D02*
X0134783Y01953D01*
X0133783Y01973D01*
X0135783Y01963D01*
X0137783Y01973D01*
X0136783Y01953D01*
X0137783Y01933D01*
X0135783Y01943D01*
X0133783Y01933D01*
D38*
X0196Y03365D02*
G03*
X0196Y03365I-0002J0D01*
G01*
X02605Y0334D02*
G03*
X02605Y0334I-0002J0D01*
G01*
X0183Y033D02*
G03*
X0183Y033I-0002J0D01*
G01*
X0119D02*
G03*
X0119Y033I-0002J0D01*
G01*
X02605Y0305D02*
G03*
X02605Y0305I-0002J0D01*
G01*
X02005Y0304D02*
G03*
X02005Y0304I-0002J0D01*
G01*
X01041Y03355D02*
G03*
X01041Y03355I-0002J0D01*
G01*
X01025Y0304D02*
G03*
X01025Y0304I-0002J0D01*
G01*
X00395Y03315D02*
G03*
X00395Y03315I-0002J0D01*
G01*
Y0303D02*
G03*
X00395Y0303I-0002J0D01*
G01*
X0269Y0305D02*
G03*
X0269Y0305I-0002J0D01*
G01*
X0094Y0304D02*
G03*
X0094Y0304I-0002J0D01*
G01*
X01275Y033D02*
G03*
X01275Y033I-0002J0D01*
G01*
X0209Y0304D02*
G03*
X0209Y0304I-0002J0D01*
G01*
X0031Y0303D02*
G03*
X0031Y0303I-0002J0D01*
G01*
X0269Y0334D02*
G03*
X0269Y0334I-0002J0D01*
G01*
X02045Y03365D02*
G03*
X02045Y03365I-0002J0D01*
G01*
X01745Y033D02*
G03*
X01745Y033I-0002J0D01*
G01*
X00956Y03355D02*
G03*
X00956Y03355I-0002J0D01*
G01*
X0031Y03315D02*
G03*
X0031Y03315I-0002J0D01*
G01*
M02*
