G04*
G04 #@! TF.GenerationSoftware,Altium Limited,Altium Designer,25.8.1 (18)*
G04*
G04 Layer_Physical_Order=1*
G04 Layer_Color=255*
%FSTAX25Y25*%
%MOIN*%
G70*
G04*
G04 #@! TF.SameCoordinates,DF34DFE3-8D6B-4D56-A59C-19EA502AC89A*
G04*
G04*
G04 #@! TF.FilePolarity,Positive*
G04*
G01*
G75*
%ADD23C,0.03937*%
%ADD24O,0.09843X0.04724*%
%ADD25R,0.09843X0.04724*%
%ADD26O,0.04724X0.09843*%
%ADD27R,0.03150X0.05512*%
%ADD28R,0.04724X0.09843*%
%ADD29C,0.06299*%
%ADD30C,0.08268*%
%ADD31R,0.06299X0.06299*%
%ADD32C,0.09843*%
%ADD33C,0.03937*%
%ADD34C,0.05000*%
G36*
X0163966Y0343168D02*
Y0335779D01*
X0160881Y0333502D01*
X0160029Y03334D01*
X015911Y0334293D01*
X0159111Y0334938D01*
X0159201Y0335271D01*
Y0336422D01*
X0158903Y0337533D01*
X0158327Y033853D01*
X0157514Y0339343D01*
X0156517Y0339919D01*
X0155406Y0340216D01*
X0154255D01*
X0153144Y0339919D01*
X0152147Y0339343D01*
X015212Y0339316D01*
X0151034Y0339064D01*
X0147571Y0339161D01*
X014731Y0339207D01*
X0146432Y0339713D01*
X0145377Y0339996D01*
X0145377Y0339996D01*
X0145331D01*
Y0335846D01*
X0144831D01*
Y0335346D01*
X0140681D01*
Y03353D01*
X0140767Y0334981D01*
X0140695Y0333576D01*
X0139632Y0330937D01*
X0139044Y0330197D01*
X0138435Y032979D01*
X013758Y0328935D01*
X0136908Y0327929D01*
X0136445Y0326811D01*
X0136209Y0325624D01*
Y0324415D01*
X0136445Y0323228D01*
X0136908Y032211D01*
X013758Y0321105D01*
X0138435Y0320249D01*
X0139044Y0319842D01*
X0139632Y0319103D01*
X0140251Y0317566D01*
X014061Y0314425D01*
X0140671Y0313756D01*
X0140623Y0313511D01*
X0139238Y0310283D01*
X01392Y0310202D01*
X0138781Y0309635D01*
X0138461Y03094D01*
X0138227Y0309264D01*
X0137633Y0308671D01*
X0137213Y0307944D01*
X0136996Y0307132D01*
Y0306314D01*
X0136996Y0306293D01*
X0136996Y0306293D01*
X0137213Y0305482D01*
X0137213Y0305482D01*
X0137633Y0304754D01*
X0138227Y0304161D01*
X0138936Y0303751D01*
X0138954Y0303741D01*
X0138954Y0303741D01*
X0139745Y0303529D01*
X0139765Y0303524D01*
X0139765Y0303524D01*
X0140605D01*
X0141416Y0303741D01*
X0142143Y0304161D01*
X0142737Y0304754D01*
X0142737D01*
X0142747Y0304773D01*
X0143157Y0305482D01*
X0143157Y0305482D01*
X0143162Y0305502D01*
X0143374Y0306293D01*
X0143532Y0306944D01*
X0144582Y0308709D01*
X0145098Y0309381D01*
X0146341Y0310302D01*
X0146432Y0310326D01*
X0146523Y0310379D01*
X0150461Y0309823D01*
X0151614Y0308669D01*
Y0302952D01*
X0151724Y0302119D01*
X0152045Y0301344D01*
X0152556Y0300678D01*
X0158786Y0294448D01*
X0158916Y0293964D01*
X0159406Y0293116D01*
X0160098Y0292423D01*
X0160947Y0291933D01*
X0161893Y029168D01*
X0162872D01*
X0163819Y0291933D01*
X0164667Y0292423D01*
X0165255Y0293011D01*
X016536Y0293116D01*
X0168365Y0293945D01*
X01699Y0293933D01*
X0174284Y028955D01*
Y0284332D01*
X0171586Y028325D01*
X0170346Y0283235D01*
X0170055Y0283614D01*
X0169307Y0284189D01*
X0168435Y0284549D01*
X01675Y0284673D01*
X0166565Y0284549D01*
X0165693Y0284189D01*
X0164945Y0283614D01*
X0164628Y0283201D01*
X01625Y0283023D01*
X0160372Y0283201D01*
X0160055Y0283614D01*
X0159307Y0284189D01*
X0158435Y0284549D01*
X01575Y0284673D01*
X0156565Y0284549D01*
X0155693Y0284189D01*
X0154945Y0283614D01*
X0154628Y0283201D01*
X01525Y0283023D01*
X0150372Y0283201D01*
X0150055Y0283614D01*
X0149307Y0284189D01*
X0148435Y0284549D01*
X01475Y0284673D01*
X0146565Y0284549D01*
X0145693Y0284189D01*
X0144945Y0283614D01*
X0144628Y0283201D01*
X01425Y0283023D01*
X0140372Y0283201D01*
X0140055Y0283614D01*
X0139307Y0284189D01*
X0138435Y0284549D01*
X01375Y0284673D01*
X0136565Y0284549D01*
X0135693Y0284189D01*
X0134945Y0283614D01*
X0134628Y0283201D01*
X01325Y0283023D01*
X0130372Y0283201D01*
X0130055Y0283614D01*
X0129307Y0284189D01*
X0128435Y0284549D01*
X01275Y0284673D01*
X0126565Y0284549D01*
X0125693Y0284189D01*
X0124945Y0283614D01*
X0124628Y0283201D01*
X01225Y0283023D01*
X0120372Y0283201D01*
X0120055Y0283614D01*
X0119307Y0284189D01*
X0118435Y0284549D01*
X01175Y0284673D01*
X0116565Y0284549D01*
X0115693Y0284189D01*
X0114945Y0283614D01*
X0114628Y0283201D01*
X01125Y0283023D01*
X0110372Y0283201D01*
X0110055Y0283614D01*
X0109307Y0284189D01*
X0108435Y0284549D01*
X01075Y0284673D01*
X0106565Y0284549D01*
X0105693Y0284189D01*
X0104945Y0283614D01*
X0104413Y0282921D01*
X0103601Y0282844D01*
X0101268Y0282778D01*
X0100629Y0282821D01*
X0100329Y0282895D01*
X0099898Y0283457D01*
X0099196Y0283996D01*
X0098378Y0284335D01*
X0098Y0284384D01*
Y02785D01*
Y0272616D01*
X0098378Y0272665D01*
X0099196Y0273004D01*
X0099898Y0273543D01*
X0100329Y0274105D01*
X0100629Y0274179D01*
X0101268Y0274222D01*
X0103601Y0274156D01*
X0104413Y0274079D01*
X0104945Y0273386D01*
X0105693Y0272812D01*
X0106565Y027245D01*
X01075Y0272327D01*
X0108435Y027245D01*
X0109307Y0272812D01*
X0110055Y0273386D01*
X0110372Y0273799D01*
X01125Y0273977D01*
X0114628Y0273799D01*
X0114945Y0273386D01*
X0115693Y0272812D01*
X0116565Y027245D01*
X01175Y0272327D01*
X0118435Y027245D01*
X0119307Y0272812D01*
X0120055Y0273386D01*
X0120346Y0273765D01*
X0121586Y027375D01*
X0124284Y0272668D01*
Y0265383D01*
X0124393Y026455D01*
X0124714Y0263774D01*
X0125226Y0263108D01*
X0164108Y0224226D01*
X0164774Y0223714D01*
X016555Y0223393D01*
X0166383Y0223284D01*
X0216313D01*
X0216746Y0223033D01*
X0217693Y0222779D01*
X0218672D01*
X0219619Y0223033D01*
X0220467Y0223523D01*
X022116Y0224216D01*
X022165Y0225064D01*
X0221903Y022601D01*
Y022699D01*
X022214Y0227273D01*
X0226939Y0227804D01*
X0229866Y0224877D01*
Y0195633D01*
X0225929Y0194002D01*
X0222357Y0197574D01*
X0221691Y0198086D01*
X0220915Y0198407D01*
X0220083Y0198516D01*
X0137652D01*
X0137219Y0198767D01*
X0136272Y0199021D01*
X0135293D01*
X0134347Y0198767D01*
X0133498Y0198277D01*
X0132806Y0197584D01*
X0132316Y0196736D01*
X0132062Y019579D01*
Y019481D01*
X0132316Y0193864D01*
X0132806Y0193016D01*
X0133498Y0192323D01*
X0134347Y0191833D01*
X0135293Y0191579D01*
X0136272D01*
X0137219Y0191833D01*
X0137652Y0192084D01*
X0145098D01*
X0146157Y0191155D01*
X0147862Y018849D01*
X0147862Y0188142D01*
X0147818Y0187669D01*
X0146963Y0185273D01*
X0146053Y0184214D01*
X014567Y0183777D01*
X0145413Y018358D01*
X0144945Y0183221D01*
X0144628Y0182808D01*
X01425Y0182629D01*
X0140372Y0182808D01*
X0140055Y0183221D01*
X0139307Y0183795D01*
X0138435Y0184156D01*
X01375Y0184279D01*
X0136565Y0184156D01*
X0135693Y0183795D01*
X0134945Y0183221D01*
X0134628Y0182808D01*
X01325Y0182629D01*
X0130372Y0182808D01*
X0130055Y0183221D01*
X0129307Y0183795D01*
X0128435Y0184156D01*
X01275Y0184279D01*
X0126565Y0184156D01*
X0125693Y0183795D01*
X0124945Y0183221D01*
X0124628Y0182808D01*
X01225Y0182629D01*
X0120372Y0182808D01*
X0120055Y0183221D01*
X0119307Y0183795D01*
X0118435Y0184156D01*
X01175Y0184279D01*
X0116565Y0184156D01*
X0115693Y0183795D01*
X0114945Y0183221D01*
X0114628Y0182808D01*
X01125Y0182629D01*
X0110372Y0182808D01*
X0110055Y0183221D01*
X0109307Y0183795D01*
X0108435Y0184156D01*
X01075Y0184279D01*
X0106565Y0184156D01*
X0105693Y0183795D01*
X0104945Y0183221D01*
X0104628Y0182808D01*
X01025Y0182629D01*
X0100372Y0182808D01*
X0100055Y0183221D01*
X0099307Y0183795D01*
X0098435Y0184156D01*
X0097579Y0184269D01*
X00975Y0184279D01*
X0093642Y0186083D01*
X009275Y0189434D01*
X0092672Y019002D01*
X0093189Y0190693D01*
X009355Y0191565D01*
X0093673Y01925D01*
X009355Y0193435D01*
X0093189Y0194307D01*
X0092614Y0195055D01*
X0091921Y0195587D01*
X0091844Y0196399D01*
X0091778Y0198732D01*
X0091821Y0199371D01*
X0091895Y0199671D01*
X0092457Y0200102D01*
X0092996Y0200804D01*
X0093335Y0201622D01*
X0093384Y0202D01*
X00875D01*
Y0203D01*
X0093384D01*
X0093335Y0203378D01*
X0092996Y0204196D01*
X0092457Y0204898D01*
X0091895Y0205329D01*
X0091821Y0205629D01*
X0091778Y0206268D01*
X0091844Y0208601D01*
X0091921Y0209413D01*
X0092614Y0209945D01*
X0093189Y0210693D01*
X009355Y0211565D01*
X0093673Y02125D01*
X009355Y0213435D01*
X0093189Y0214307D01*
X0092614Y0215055D01*
X0092201Y0215372D01*
X0092023Y02175D01*
X0092201Y0219628D01*
X0092614Y0219945D01*
X0093189Y0220693D01*
X009355Y0221565D01*
X0093673Y02225D01*
X009355Y0223435D01*
X0093189Y0224307D01*
X0092614Y0225055D01*
X0092201Y0225372D01*
X0092023Y02275D01*
X0092201Y0229628D01*
X0092614Y0229945D01*
X0093189Y0230693D01*
X009355Y0231565D01*
X0093673Y02325D01*
X009355Y0233435D01*
X0093189Y0234307D01*
X0092614Y0235055D01*
X0092201Y0235372D01*
X0092023Y02375D01*
X0092201Y0239628D01*
X0092614Y0239945D01*
X0093189Y0240693D01*
X009355Y0241565D01*
X0093673Y02425D01*
X009355Y0243435D01*
X0093189Y0244307D01*
X0092614Y0245055D01*
X0092201Y0245372D01*
X0092023Y02475D01*
X0092201Y0249628D01*
X0092614Y0249945D01*
X0093189Y0250693D01*
X009355Y0251565D01*
X0093673Y02525D01*
X009355Y0253435D01*
X0093189Y0254307D01*
X0092614Y0255055D01*
X0091866Y0255629D01*
X0090994Y0255991D01*
X0090059Y0256114D01*
X0084941D01*
X0084006Y0255991D01*
X0083736Y0255879D01*
X0081325Y0256834D01*
X0079799Y025785D01*
Y0275619D01*
X0080021Y0275767D01*
X0080247Y0275778D01*
X0081327Y0275556D01*
X0084371Y0274134D01*
X0084945Y0273386D01*
X0085693Y0272812D01*
X0086565Y027245D01*
X00875Y0272327D01*
X0088435Y027245D01*
X0089307Y0272812D01*
X0090055Y0273386D01*
X0090587Y0274079D01*
X0091399Y0274156D01*
X0093732Y0274222D01*
X0094371Y0274179D01*
X0094671Y0274105D01*
X0095102Y0273543D01*
X0095804Y0273004D01*
X0096622Y0272665D01*
X0097Y0272616D01*
Y02785D01*
Y0284384D01*
X0096622Y0284335D01*
X0096538Y02843D01*
X0093272Y0285484D01*
X0092495Y0285941D01*
X0092357Y0286072D01*
X0092141Y0286762D01*
X0092235Y0286904D01*
X0102774Y0297443D01*
X0103286Y0298109D01*
X0103607Y0298885D01*
X0103717Y0299717D01*
Y0304D01*
Y0317568D01*
X0104374Y0318226D01*
X0104886Y0318892D01*
X0105207Y0319668D01*
X0105316Y03205D01*
Y03355D01*
X0105207Y0336333D01*
X0104895Y0337085D01*
Y0339476D01*
X0100332D01*
X0099305Y0339476D01*
X0096395D01*
X0095368Y0339476D01*
X0090805D01*
Y0333429D01*
X0090737Y0332168D01*
X0090155Y0329871D01*
X0089474Y0328138D01*
X0089416Y0328036D01*
X0089162Y032709D01*
Y032611D01*
X0089416Y0325164D01*
X0089666Y032473D01*
Y0324657D01*
X0087423Y0321321D01*
X0086444D01*
X0085351Y0321137D01*
X0083618Y0321969D01*
X0082834Y0323029D01*
X0081978Y0323885D01*
X0081556Y0324167D01*
X0080755Y0325167D01*
X007986Y0327677D01*
X0079863Y0329032D01*
X0079953Y0329366D01*
Y0330516D01*
X0079655Y0331628D01*
X007908Y0332624D01*
X0078266Y0333438D01*
X0077269Y0334013D01*
X0076158Y0334311D01*
X0075007D01*
X0073896Y0334013D01*
X0072899Y0333438D01*
X0072872Y0333411D01*
X0072076Y0333226D01*
X0070519Y0334273D01*
X0070211Y0339079D01*
X0077015Y0345883D01*
X016125D01*
X0163966Y0343168D01*
D02*
G37*
G36*
X0069546Y0347513D02*
X0044653Y032262D01*
X0040716Y0324251D01*
Y03315D01*
X0040607Y0332332D01*
X0040295Y0333085D01*
Y0335476D01*
X0035732D01*
X0034705Y0335476D01*
X0031795D01*
X0030768Y0335476D01*
X0026205D01*
Y0333085D01*
X0025893Y0332332D01*
X0025784Y03315D01*
Y0329832D01*
X0025168Y0329217D01*
X0015547D01*
X0014715Y0329107D01*
X0013939Y0328786D01*
X0013273Y0328274D01*
X0007904Y0322905D01*
X0007507D01*
X0006396Y0322608D01*
X0005399Y0322032D01*
X0005372Y0322005D01*
X0004286Y0321753D01*
X0000823Y032185D01*
X0000562Y0321896D01*
X-0000316Y0322402D01*
X-0001371Y0322685D01*
X-0001371Y0322685D01*
X-0001417D01*
Y0318535D01*
X-0001917D01*
Y0318035D01*
X-0006067D01*
Y0317989D01*
X-0005981Y031767D01*
X-0006053Y0316265D01*
X-0007038Y031382D01*
X-0008863Y0313149D01*
X-0012663Y0315635D01*
Y032421D01*
X-0012319Y0325344D01*
X-0011382Y0327096D01*
X-0010122Y0328632D01*
X-0008586Y0329893D01*
X-0008262Y0330066D01*
X-0004129Y0331639D01*
X0008194Y0335922D01*
X0020636Y0339845D01*
X0033187Y0343405D01*
X0045836Y0346597D01*
X0058573Y0349421D01*
X0067618Y0351152D01*
X0069546Y0347513D01*
D02*
G37*
G36*
X0162312Y0358497D02*
X0175346Y0357928D01*
X0188357Y035698D01*
X0201335Y0355654D01*
X0214269Y0353951D01*
X0227149Y0351873D01*
X0239962Y0349421D01*
X0252699Y0346597D01*
X0265348Y0343405D01*
X0277899Y0339845D01*
X0290341Y0335922D01*
X0302664Y0331639D01*
X0307377Y0329845D01*
D01*
X031036Y032771D01*
X0311035Y0326887D01*
X0311785Y0325483D01*
X0312247Y032396D01*
X0312249Y0323948D01*
X031225Y0313597D01*
X0310416Y0312538D01*
X0308313Y0312144D01*
X0307978Y0312479D01*
X0307556Y0312761D01*
X0306755Y0313761D01*
X030586Y0316272D01*
X0305863Y0317627D01*
X0305953Y031796D01*
Y0319111D01*
X0305655Y0320222D01*
X030508Y0321219D01*
X0304266Y0322032D01*
X0303269Y0322608D01*
X0302158Y0322905D01*
X0301007D01*
X0299896Y0322608D01*
X0298899Y0322032D01*
X0298872Y0322005D01*
X0297786Y0321753D01*
X0294323Y032185D01*
X0294062Y0321896D01*
X0293184Y0322402D01*
X0292129Y0322685D01*
X0292129Y0322685D01*
X0292083D01*
Y0318535D01*
X0291583D01*
Y0318035D01*
X0287433D01*
Y0317989D01*
X0287519Y031767D01*
X0287447Y0316265D01*
X0286384Y0313626D01*
X0285796Y0312886D01*
X0285187Y0312479D01*
X0284332Y0311624D01*
X028366Y0310618D01*
X0283196Y03095D01*
X0282961Y0308313D01*
Y0307104D01*
X0283196Y0305917D01*
X028366Y0304799D01*
X0284332Y0303794D01*
X0285187Y0302938D01*
X0285796Y0302531D01*
X0286384Y0301792D01*
X0287003Y0300255D01*
X0287362Y0297114D01*
X0287423Y0296445D01*
X0287375Y02962D01*
X028599Y0292972D01*
X0285952Y0292891D01*
X0285533Y0292324D01*
X0285213Y0292089D01*
X0284979Y0291953D01*
X0284385Y029136D01*
X0283965Y0290633D01*
X0283748Y0289821D01*
Y0289003D01*
X0283748Y0288982D01*
X0283748Y0288982D01*
X0283965Y0288171D01*
X0283965Y0288171D01*
X0284385Y0287443D01*
X0284979Y028685D01*
X0285688Y028644D01*
X0285706Y028643D01*
X0285706Y028643D01*
X0286497Y0286218D01*
X0286517Y0286213D01*
X0286517Y0286213D01*
X0287357D01*
X0288168Y028643D01*
X0288895Y028685D01*
X0289489Y0287443D01*
X0289489D01*
X0289499Y0287462D01*
X0289909Y0288171D01*
X0289909Y0288171D01*
X0289914Y0288191D01*
X0290126Y0288982D01*
X0290284Y0289633D01*
X0291334Y0291397D01*
X029185Y029207D01*
X0293093Y0292991D01*
X0293184Y0293015D01*
X0293275Y0293068D01*
X0297213Y0292512D01*
X0298397Y0292512D01*
X0305953D01*
Y0298572D01*
X0306558Y0300766D01*
X0307978Y0302938D01*
X0308314Y0303274D01*
X0310413Y0302882D01*
X0312251Y0301822D01*
X0312254Y02795D01*
Y0279442D01*
X0309887Y0276485D01*
X0309887Y0276485D01*
Y0276485D01*
X0308317Y0276279D01*
X0308239Y0276567D01*
X0307535Y0277788D01*
X0306538Y0278784D01*
X0305317Y0279489D01*
X0303955Y0279854D01*
X0302545D01*
X0301183Y0279489D01*
X0299962Y0278784D01*
X0298966Y0277788D01*
X0298261Y0276567D01*
X0297896Y0275205D01*
Y0273795D01*
X0298261Y0272433D01*
X0298966Y0271212D01*
X0299962Y0270216D01*
X0301183Y0269511D01*
X0302545Y0269146D01*
X0303955D01*
X0305317Y0269511D01*
X0306538Y0270216D01*
X0307535Y0271212D01*
X0308239Y0272433D01*
X0308317Y0272721D01*
X0309887Y0272515D01*
Y0272515D01*
X0309887Y0272515D01*
X0312254Y0269558D01*
Y0262459D01*
Y0203092D01*
Y0201297D01*
X0308317Y0200779D01*
X0308239Y0201067D01*
X0307535Y0202288D01*
X0306538Y0203285D01*
X0305317Y0203989D01*
X0303955Y0204354D01*
X0302545D01*
X0301183Y0203989D01*
X0299962Y0203285D01*
X0298966Y0202288D01*
X0298261Y0201067D01*
X0297896Y0199705D01*
Y0198295D01*
X0298261Y0196933D01*
X0298966Y0195712D01*
X0299962Y0194715D01*
X0301183Y0194011D01*
X0301479Y0193931D01*
X030096Y0189994D01*
X02705D01*
X0269829Y0189861D01*
X026926Y0189481D01*
X0268879Y0188911D01*
X0268746Y018824D01*
Y01095D01*
Y003076D01*
X0268879Y0030088D01*
X026926Y0029519D01*
X0269829Y0029139D01*
X02705Y0029006D01*
X0312006D01*
Y-001121D01*
X0308069Y-0011729D01*
X0307989Y-0011433D01*
X0307284Y-0010212D01*
X0306288Y-0009216D01*
X0305067Y-0008511D01*
X0303705Y-0008146D01*
X0302295D01*
X0300933Y-0008511D01*
X0299712Y-0009216D01*
X0298715Y-0010212D01*
X0298011Y-0011433D01*
X0297646Y-0012795D01*
Y-0014205D01*
X0298011Y-0015567D01*
X0298715Y-0016788D01*
X0299712Y-0017785D01*
X0300933Y-0018489D01*
X0302295Y-0018854D01*
X0302185Y-0022746D01*
X0101292D01*
X0100322Y-0020566D01*
X0100199Y-0018809D01*
X0100374Y-0018674D01*
X0104679Y-001437D01*
X0105075D01*
X0106187Y-0014072D01*
X0107183Y-0013497D01*
X010721Y-001347D01*
X0108297Y-0013217D01*
X011176Y-0013315D01*
X0112021Y-001336D01*
X0112898Y-0013867D01*
X0113954Y-001415D01*
X0113954Y-001415D01*
X0114D01*
Y-001D01*
X0115D01*
Y-001415D01*
X0115046D01*
X0115046Y-001415D01*
X0116102Y-0013867D01*
X0117048Y-001332D01*
X0117821Y-0012548D01*
X0118148Y-0011981D01*
X0119165Y-0011398D01*
X0121801Y-0010724D01*
X0122497Y-0010763D01*
X0125308Y-0013574D01*
X0125974Y-0014086D01*
X012675Y-0014407D01*
X0127583Y-0014516D01*
X0157283D01*
X0158115Y-0014407D01*
X0158891Y-0014086D01*
X0159557Y-0013574D01*
X0211794Y0038663D01*
X0215907Y0038534D01*
X0217098Y0037279D01*
Y0030917D01*
X0229382D01*
Y003698D01*
X0229382Y0038083D01*
Y0040917D01*
X0229382Y004202D01*
Y0048083D01*
X0229382Y0048083D01*
X0229382D01*
X0229744Y0048361D01*
X0229957Y0048526D01*
X0232205Y0050773D01*
X0239239Y0057807D01*
X02398Y0058369D01*
X0239801Y0058369D01*
X0240155Y0058456D01*
X0244263Y0056057D01*
X0244358Y0055595D01*
X0244358Y005484D01*
Y0051417D01*
X0244582D01*
X024538Y0049747D01*
X024565Y004748D01*
X0245543Y0047398D01*
X0245004Y0046696D01*
X0244665Y0045878D01*
X0244616Y00455D01*
X0256384D01*
X0256335Y0045878D01*
X0255996Y0046696D01*
X0255457Y0047398D01*
X025535Y004748D01*
X025562Y0049747D01*
X0256418Y0051417D01*
X0256642D01*
Y0058583D01*
X02481D01*
X0245629Y0058583D01*
X0244682Y0058667D01*
X0243591Y0059297D01*
X0242125Y0060525D01*
X0241695Y0061112D01*
X0241499Y006253D01*
X0241499Y00614D01*
X0241662Y0061157D01*
X0241499Y00614D01*
X0241499Y0063041D01*
Y0235D01*
X0241389Y0235833D01*
X0241068Y0236608D01*
X0240557Y0237274D01*
X0210557Y0267274D01*
X0209891Y0267786D01*
X0209115Y0268107D01*
X0208283Y0268216D01*
X0170717D01*
Y0272668D01*
X0173414Y027375D01*
X0174653Y0273765D01*
X0174945Y0273386D01*
X0175693Y0272812D01*
X0176565Y027245D01*
X01775Y0272327D01*
X0178435Y027245D01*
X0179307Y0272812D01*
X0180055Y0273386D01*
X0180372Y0273799D01*
X01825Y0273977D01*
X0184628Y0273799D01*
X0184945Y0273386D01*
X0185693Y0272812D01*
X0186565Y027245D01*
X01875Y0272327D01*
X0188435Y027245D01*
X0189307Y0272812D01*
X0190055Y0273386D01*
X0190372Y0273799D01*
X01925Y0273977D01*
X0194628Y0273799D01*
X0194945Y0273386D01*
X0195693Y0272812D01*
X0196565Y027245D01*
X01975Y0272327D01*
X0198435Y027245D01*
X0199307Y0272812D01*
X0200055Y0273386D01*
X0200372Y0273799D01*
X02025Y0273977D01*
X0204628Y0273799D01*
X0204945Y0273386D01*
X0205693Y0272812D01*
X0206565Y027245D01*
X02075Y0272327D01*
X0208435Y027245D01*
X0209307Y0272812D01*
X0210055Y0273386D01*
X0210372Y0273799D01*
X02125Y0273977D01*
X0214628Y0273799D01*
X0214945Y0273386D01*
X0215693Y0272812D01*
X0216565Y027245D01*
X02175Y0272327D01*
X0218435Y027245D01*
X0219307Y0272812D01*
X0220055Y0273386D01*
X0220372Y0273799D01*
X02225Y0273977D01*
X0224628Y0273799D01*
X0224945Y0273386D01*
X0225693Y0272812D01*
X0226565Y027245D01*
X02275Y0272327D01*
X0228435Y027245D01*
X0229307Y0272812D01*
X0230055Y0273386D01*
X0230629Y0274134D01*
X0230991Y0275006D01*
X0231114Y0275941D01*
Y0281059D01*
X0230991Y0281994D01*
X0230629Y0282866D01*
X0230055Y0283614D01*
X0229307Y0284189D01*
X0228435Y0284549D01*
X02275Y0284673D01*
X0226565Y0284549D01*
X0225693Y0284189D01*
X0224945Y0283614D01*
X0224628Y0283201D01*
X02225Y0283023D01*
X0220372Y0283201D01*
X0220055Y0283614D01*
X0219307Y0284189D01*
X0218435Y0284549D01*
X02175Y0284673D01*
X0216565Y0284549D01*
X0215693Y0284189D01*
X0214945Y0283614D01*
X0214653Y0283235D01*
X0213414Y028325D01*
X0210717Y0284332D01*
Y0291D01*
X0210607Y0291832D01*
X0210286Y0292608D01*
X0210216Y0292698D01*
Y0304D01*
X0210107Y0304833D01*
X0209795Y0305585D01*
Y0307976D01*
X0205654D01*
X0204205Y0307976D01*
X0201716Y0310883D01*
Y0318D01*
X0201607Y0318832D01*
X0201286Y0319608D01*
X0200774Y0320274D01*
X0197216Y0323832D01*
Y0329617D01*
X0199705Y0332524D01*
X0201153Y0332524D01*
X0205295D01*
Y0333283D01*
X0216776D01*
X0217188Y0333075D01*
X0219933Y0330487D01*
Y0330441D01*
X0224083D01*
Y0329441D01*
X0219933D01*
Y0329395D01*
X0220019Y0329075D01*
X0219947Y0327671D01*
X0218884Y0325031D01*
X0218296Y0324292D01*
X0217687Y0323885D01*
X0216832Y0323029D01*
X021616Y0322023D01*
X0215697Y0320906D01*
X021546Y0319719D01*
Y0318509D01*
X0215697Y0317323D01*
X021616Y0316205D01*
X0216832Y0315199D01*
X0217687Y0314344D01*
X0218296Y0313937D01*
X0218884Y0313197D01*
X0219503Y031166D01*
X0219862Y0308519D01*
X0219923Y0307851D01*
X0219875Y0307605D01*
X021849Y0304378D01*
X0218452Y0304296D01*
X0218033Y030373D01*
X0217713Y0303494D01*
X0217479Y0303359D01*
X0216885Y0302765D01*
X0216465Y0302038D01*
X0216248Y0301227D01*
Y0300408D01*
X0216248Y0300387D01*
X0216248Y0300387D01*
X0216465Y0299576D01*
X0216465Y0299576D01*
X0216885Y0298849D01*
X0217479Y0298255D01*
X0218188Y0297846D01*
X0218206Y0297835D01*
X0218206Y0297835D01*
X0218997Y0297623D01*
X0219017Y0297618D01*
X0219017Y0297618D01*
X0219857D01*
X0220668Y0297835D01*
X0221395Y0298255D01*
X0221989Y0298849D01*
X0221989D01*
X0221999Y0298867D01*
X0222409Y0299576D01*
X0222409Y0299576D01*
X0222414Y0299596D01*
X0222626Y0300387D01*
X0222784Y0301039D01*
X0223834Y0302803D01*
X022435Y0303475D01*
X0225593Y0304396D01*
X0225684Y0304421D01*
X0225776Y0304473D01*
X0229713Y0303917D01*
X0230897Y0303917D01*
X0238453D01*
Y0309978D01*
X0239058Y0312172D01*
X0240478Y0314344D01*
X0241334Y0315199D01*
X0242006Y0316205D01*
X0242469Y0317323D01*
X0242705Y0318509D01*
Y0319719D01*
X0242469Y0320906D01*
X0242006Y0322023D01*
X0241334Y0323029D01*
X0240478Y0323885D01*
X0240056Y0324167D01*
X0239255Y0325167D01*
X023836Y0327677D01*
X0238363Y0329032D01*
X0238453Y0329366D01*
Y0330516D01*
X0238155Y0331628D01*
X0237579Y0332624D01*
X0236766Y0333438D01*
X0235769Y0334013D01*
X0234658Y0334311D01*
X0234261D01*
X0229798Y0338774D01*
X0229132Y0339286D01*
X0228356Y0339607D01*
X0227524Y0339717D01*
X0205295D01*
Y0340476D01*
X0200732D01*
X0199705Y0340476D01*
X0196795D01*
X0195768Y0340476D01*
X0191205D01*
Y0338085D01*
X0190893Y0337333D01*
X0190784Y03365D01*
Y03225D01*
X0190893Y0321668D01*
X0191214Y0320892D01*
X0191726Y0320226D01*
X0195283Y0316668D01*
Y0304D01*
X0195393Y0303168D01*
X0195705Y0302415D01*
Y0300024D01*
X0199846D01*
X0201295Y0300024D01*
X0203783Y0297117D01*
Y02915D01*
X0203893Y0290668D01*
X0204214Y0289892D01*
X0204283Y0289802D01*
Y0284332D01*
X0201586Y028325D01*
X0200346Y0283235D01*
X0200055Y0283614D01*
X0199307Y0284189D01*
X0198435Y0284549D01*
X01975Y0284673D01*
X0196565Y0284549D01*
X0195693Y0284189D01*
X0194945Y0283614D01*
X0194628Y0283201D01*
X01925Y0283023D01*
X0190372Y0283201D01*
X0190055Y0283614D01*
X0189307Y0284189D01*
X0188435Y0284549D01*
X01875Y0284673D01*
X0186565Y0284549D01*
X0185693Y0284189D01*
X0184945Y0283614D01*
X0184653Y0283235D01*
X0183414Y028325D01*
X0180717Y0284332D01*
Y0290883D01*
X0180607Y0291715D01*
X0180286Y0292491D01*
X0179774Y0293157D01*
X0179052Y0293879D01*
X0179244Y0294853D01*
X0180853Y0297646D01*
X0181205D01*
X0182567Y0298011D01*
X0183788Y0298715D01*
X0184784Y0299712D01*
X0185489Y0300933D01*
X0185854Y0302295D01*
Y0303705D01*
X0185489Y0305067D01*
X0184784Y0306288D01*
X0183788Y0307284D01*
X0182567Y0307989D01*
X0181205Y0308354D01*
X0179795D01*
X0178433Y0307989D01*
X0177212Y0307284D01*
X0176216Y0306288D01*
X0172607Y0304746D01*
X0171358Y0304608D01*
X0170487Y0305112D01*
X0170399Y030527D01*
Y0325858D01*
X0174336Y0326024D01*
X0175295Y0326024D01*
X0178205D01*
X0179232Y0326024D01*
X0183795D01*
Y0333976D01*
X0179232D01*
X0178205Y0333976D01*
X0175295D01*
X0174336Y0333976D01*
X0170399Y0334141D01*
Y03445D01*
X017029Y0345333D01*
X0169968Y0346108D01*
X0169457Y0346774D01*
X0164857Y0351374D01*
X0164191Y0351886D01*
X0163415Y0352207D01*
X0162583Y0352316D01*
X0103266D01*
X0103066Y0356254D01*
X0110178Y035698D01*
X012319Y0357928D01*
X0136223Y0358497D01*
X0149268Y0358687D01*
X0162312Y0358497D01*
D02*
G37*
G36*
X0033825Y0324138D02*
X0034284Y0323763D01*
Y0309883D01*
X0031795Y0306976D01*
X0026205D01*
Y0304585D01*
X0025893Y0303833D01*
X0025784Y0303D01*
Y0297D01*
X0025893Y0296167D01*
X0026214Y0295392D01*
X0026726Y0294726D01*
X0027392Y0294214D01*
X0028168Y0293893D01*
X0029Y0293783D01*
X0042283D01*
X0043115Y0293893D01*
X0043891Y0294214D01*
X0044557Y0294726D01*
X0046857Y0297026D01*
X0047368Y0297692D01*
X004769Y0298467D01*
X0047799Y02993D01*
Y0316668D01*
X0052377Y0321245D01*
X005323Y0321143D01*
X005696Y0319719D01*
Y0318509D01*
X0057196Y0317323D01*
X005766Y0316205D01*
X0058332Y0315199D01*
X0059187Y0314344D01*
X0059796Y0313937D01*
X0060384Y0313197D01*
X0061003Y031166D01*
X0061362Y0308519D01*
X0061423Y0307851D01*
X0061375Y0307605D01*
X005999Y0304378D01*
X0059952Y0304296D01*
X0059533Y030373D01*
X0059213Y0303494D01*
X0058979Y0303359D01*
X0058385Y0302765D01*
X0057965Y0302038D01*
X0057748Y0301227D01*
Y0300387D01*
X0057965Y0299576D01*
X0058385Y0298849D01*
X0058108Y0297874D01*
X0036197Y0275963D01*
X0035686Y0275297D01*
X0035365Y0274521D01*
X0035255Y0273689D01*
Y0126956D01*
X0035026Y0126548D01*
X0034036Y0126539D01*
X0030254Y013036D01*
Y0188D01*
X0030121Y0188671D01*
X002974Y018924D01*
X0029171Y0189621D01*
X00285Y0189754D01*
X0001417D01*
X0000192Y0193691D01*
X0000567Y019401D01*
X0001788Y0194715D01*
X0002785Y0195712D01*
X0003489Y0196933D01*
X0003854Y0198295D01*
Y0199705D01*
X0003489Y0201067D01*
X0002785Y0202288D01*
X0001788Y0203285D01*
X0000567Y0203989D01*
X-0000795Y0204354D01*
X-0002205D01*
X-0003567Y0203989D01*
X-0004788Y0203285D01*
X-0005785Y0202288D01*
X-0006489Y0201067D01*
X-0006854Y0199705D01*
Y0198295D01*
X-0006489Y0196933D01*
X-0005785Y0195712D01*
X-000541Y0195337D01*
X-0004858Y0193137D01*
X-0005194Y0190993D01*
X-0005478Y0190466D01*
X-0006243Y019012D01*
X-0007204Y0190411D01*
X-0008765Y0191245D01*
X-0010132Y0192368D01*
X-0011255Y0193736D01*
X-0012089Y0195296D01*
X-0012603Y0196989D01*
X-0012776Y019875D01*
X-0012757Y0198942D01*
X-0012746Y0198998D01*
X-0012663Y0262498D01*
X-0012664Y0262499D01*
X-0012663Y02625D01*
Y0279541D01*
Y0285716D01*
X-001039Y0286823D01*
X-0008726Y0287055D01*
X-0008521Y028685D01*
X-0007812Y028644D01*
X-0007794Y028643D01*
X-0007794Y028643D01*
X-0007003Y0286218D01*
X-0006983Y0286213D01*
X-0006983Y0286213D01*
X-0006143D01*
X-0005332Y028643D01*
X-0004605Y028685D01*
X-0004011Y0287443D01*
X-0004011D01*
X-0004001Y0287462D01*
X-0003591Y0288171D01*
X-0003591Y0288171D01*
X-0003586Y0288191D01*
X-0003374Y0288982D01*
X-0003216Y0289633D01*
X-0002166Y0291397D01*
X-000165Y029207D01*
X-0000407Y0292991D01*
X-0000316Y0293015D01*
X-0000225Y0293068D01*
X0003712Y0292512D01*
X0004897Y0292512D01*
X0012453D01*
Y0298572D01*
X0013058Y0300766D01*
X0014478Y0302938D01*
X0015334Y0303794D01*
X0016006Y0304799D01*
X0016469Y0305917D01*
X0016705Y0307104D01*
Y0308313D01*
X0016469Y03095D01*
X0016006Y0310618D01*
X0015334Y0311624D01*
X0014478Y0312479D01*
X0014056Y0312761D01*
X0013255Y0313761D01*
X001236Y0316272D01*
X0012363Y0317627D01*
X0012453Y031796D01*
Y0318357D01*
X001688Y0322783D01*
X00265D01*
X0027332Y0322893D01*
X0028108Y0323214D01*
X0028774Y0323726D01*
X0030347Y0325298D01*
X0033825Y0324138D01*
D02*
G37*
G36*
X0077808Y0180226D02*
X0078474Y0179714D01*
X007925Y0179393D01*
X0080083Y0179283D01*
X0081358D01*
Y0178917D01*
X0083917D01*
Y0171965D01*
X0091083D01*
X0091083Y0171965D01*
X0094433Y0172856D01*
X009502Y0172935D01*
X0095693Y0172418D01*
X0096565Y0172057D01*
X00975Y0171934D01*
X0098435Y0172057D01*
X0099307Y0172418D01*
X0100055Y0172992D01*
X0100372Y0173405D01*
X01025Y0173584D01*
X0104628Y0173405D01*
X0104945Y0172992D01*
X0105693Y0172418D01*
X0106565Y0172057D01*
X01075Y0171934D01*
X0108435Y0172057D01*
X0109307Y0172418D01*
X0110055Y0172992D01*
X0110372Y0173405D01*
X01125Y0173584D01*
X0114628Y0173405D01*
X0114945Y0172992D01*
X0115693Y0172418D01*
X0116565Y0172057D01*
X01175Y0171934D01*
X0118435Y0172057D01*
X0119307Y0172418D01*
X0120055Y0172992D01*
X0120372Y0173405D01*
X01225Y0173584D01*
X0124628Y0173405D01*
X0124945Y0172992D01*
X0125693Y0172418D01*
X0126565Y0172057D01*
X01275Y0171934D01*
X0128435Y0172057D01*
X0129307Y0172418D01*
X0130055Y0172992D01*
X0130372Y0173405D01*
X01325Y0173584D01*
X0134628Y0173405D01*
X0134945Y0172992D01*
X0135693Y0172418D01*
X0136565Y0172057D01*
X01375Y0171934D01*
X0138435Y0172057D01*
X0139307Y0172418D01*
X0140055Y0172992D01*
X0140372Y0173405D01*
X01425Y0173584D01*
X0144628Y0173405D01*
X0144945Y0172992D01*
X0145693Y0172418D01*
X0146565Y0172057D01*
X01475Y0171934D01*
X0148435Y0172057D01*
X0149307Y0172418D01*
X0150055Y0172992D01*
X0150372Y0173405D01*
X01525Y0173584D01*
X0154628Y0173405D01*
X0154945Y0172992D01*
X0155693Y0172418D01*
X0156565Y0172057D01*
X01575Y0171934D01*
X0158435Y0172057D01*
X0159307Y0172418D01*
X0160055Y0172992D01*
X0160372Y0173405D01*
X01625Y0173584D01*
X0164628Y0173405D01*
X0164945Y0172992D01*
X0165693Y0172418D01*
X0166565Y0172057D01*
X01675Y0171934D01*
X0168435Y0172057D01*
X0169307Y0172418D01*
X0170055Y0172992D01*
X0170372Y0173405D01*
X01725Y0173584D01*
X0174628Y0173405D01*
X0174945Y0172992D01*
X0175693Y0172418D01*
X0176565Y0172057D01*
X01775Y0171934D01*
X0178435Y0172057D01*
X0179307Y0172418D01*
X0180055Y0172992D01*
X0180347Y0173372D01*
X0181586Y0173357D01*
X0184283Y0172274D01*
Y0158239D01*
X0184091Y0158054D01*
X018269Y0157258D01*
X0180347Y0156379D01*
X0179935Y015655D01*
X0179Y0156673D01*
X0178065Y015655D01*
X0177193Y0156188D01*
X017652Y0155672D01*
X0176139Y0155723D01*
X0172583Y0156642D01*
Y0156642D01*
X0165417D01*
X0165417Y0156642D01*
X0162066Y015575D01*
X016148Y0155672D01*
X0160807Y0156188D01*
X0159935Y015655D01*
X0159Y0156673D01*
X0158065Y015655D01*
X0157193Y0156188D01*
X0156445Y0155614D01*
X0156128Y0155201D01*
X0154Y0155023D01*
X0151872Y0155201D01*
X0151555Y0155614D01*
X0150807Y0156188D01*
X0149935Y015655D01*
X0149Y0156673D01*
X0148065Y015655D01*
X0147193Y0156188D01*
X0146445Y0155614D01*
X0145913Y0154921D01*
X0145101Y0154844D01*
X0142768Y0154778D01*
X0142129Y0154822D01*
X0141829Y0154895D01*
X0141398Y0155457D01*
X0140696Y0155996D01*
X0139878Y0156335D01*
X01395Y0156384D01*
Y01505D01*
Y0144616D01*
X0139878Y0144665D01*
X0140696Y0145004D01*
X0141398Y0145543D01*
X0141829Y0146105D01*
X0142129Y0146178D01*
X0142768Y0146222D01*
X0145101Y0146156D01*
X0145913Y0146079D01*
X0146445Y0145386D01*
X0147193Y0144811D01*
X0148065Y014445D01*
X0149Y0144327D01*
X0149935Y014445D01*
X0150807Y0144811D01*
X0151555Y0145386D01*
X0151872Y0145799D01*
X0154Y0145977D01*
X0156128Y0145799D01*
X0156445Y0145386D01*
X0157193Y0144811D01*
X0158065Y014445D01*
X0159Y0144327D01*
X0159935Y014445D01*
X0160807Y0144811D01*
X016148Y0145328D01*
X0161861Y0145277D01*
X0165417Y0144358D01*
X0165784Y0140573D01*
Y0112D01*
X0165893Y0111168D01*
X0166214Y0110392D01*
X0166726Y0109726D01*
X0172283Y0104168D01*
Y0076927D01*
X0171917Y0073142D01*
X0168567Y007225D01*
X016798Y0072172D01*
X0167307Y0072689D01*
X0166435Y0073049D01*
X01655Y0073173D01*
X0164565Y0073049D01*
X0163693Y0072689D01*
X0162945Y0072114D01*
X0162628Y0071701D01*
X01605Y0071523D01*
X0158372Y0071701D01*
X0158055Y0072114D01*
X0157307Y0072689D01*
X0156435Y0073049D01*
X01555Y0073173D01*
X0154565Y0073049D01*
X0153693Y0072689D01*
X0152945Y0072114D01*
X0152413Y0071421D01*
X0151601Y0071344D01*
X0149268Y0071278D01*
X0148629Y0071321D01*
X0148329Y0071395D01*
X0147898Y0071957D01*
X0147196Y0072496D01*
X0146378Y0072835D01*
X0146Y0072885D01*
Y0067D01*
X0145D01*
Y0072885D01*
X0144622Y0072835D01*
X0143804Y0072496D01*
X0143102Y0071957D01*
X0142671Y0071395D01*
X0142371Y0071321D01*
X014232Y0071318D01*
X0138716Y0072256D01*
Y0101783D01*
X0138607Y0102615D01*
X0138286Y0103391D01*
X0137774Y0104057D01*
X0118179Y0123652D01*
X011805Y0124136D01*
X011756Y0124984D01*
X0116867Y0125677D01*
X0116019Y0126167D01*
X0115072Y012642D01*
X0114093D01*
X0113147Y0126167D01*
X0112298Y0125677D01*
X0111606Y0124984D01*
X0111116Y0124136D01*
X0110862Y012319D01*
Y012221D01*
X0111116Y0121264D01*
X0111606Y0120416D01*
X0112298Y0119723D01*
X0113147Y0119233D01*
X011363Y0119103D01*
X0132283Y010045D01*
Y0071156D01*
X0132009Y0070494D01*
X0131886Y0069559D01*
Y0068347D01*
X0130263Y0064713D01*
X0128194Y0064713D01*
X0095996D01*
X0095164Y0064603D01*
X0094388Y0064282D01*
X0093722Y0063771D01*
X0085413Y0055462D01*
X008291Y0054098D01*
X0082813Y0054072D01*
X008199Y0053597D01*
X0081492Y0053478D01*
X00795Y0053362D01*
X0077508Y0053478D01*
X0077011Y0053597D01*
X0076187Y0054072D01*
X007609Y0054098D01*
X0073587Y0055462D01*
X0073299Y005575D01*
Y0179167D01*
X0077236Y0180798D01*
X0077808Y0180226D01*
D02*
G37*
G36*
X0115Y004585D02*
X0115046D01*
X0116102Y0046133D01*
X0117048Y0046679D01*
X0117821Y0047452D01*
X0121681Y004798D01*
X0122056Y0047933D01*
X0122299Y0047862D01*
X0122706Y0047693D01*
X0123539Y0047583D01*
X0135079D01*
X0136074Y0046949D01*
X0138327Y00445D01*
X0138451Y0043565D01*
X0138812Y0042693D01*
X0139386Y0041945D01*
X0139799Y0041628D01*
X0139977Y00395D01*
X0139799Y0037372D01*
X0139386Y0037055D01*
X0138812Y0036307D01*
X0138451Y0035435D01*
X0138327Y00345D01*
X0138451Y0033565D01*
X0138812Y0032693D01*
X0139386Y0031945D01*
X0140134Y003137D01*
X0141006Y003101D01*
X0141941Y0030886D01*
X0147059D01*
X0147994Y003101D01*
X0148866Y003137D01*
X0149614Y0031945D01*
X0150189Y0032693D01*
X0150549Y0033565D01*
X0150673Y00345D01*
X0150549Y0035435D01*
X0150189Y0036307D01*
X0149614Y0037055D01*
X0149201Y0037372D01*
X0149023Y00395D01*
X0149201Y0041628D01*
X0149614Y0041945D01*
X0150189Y0042693D01*
X0150549Y0043565D01*
X0150673Y00445D01*
X0152926Y0046949D01*
X0153921Y0047583D01*
X0206049D01*
X020768Y0043646D01*
X015595Y-0008083D01*
X015389D01*
X0153089Y-0007699D01*
X015045Y-00055D01*
X0150335Y-0004622D01*
X0149996Y-0003804D01*
X0149457Y-0003102D01*
X0148895Y-0002671D01*
X0148821Y-0002371D01*
X0148778Y-0001732D01*
X0148844Y0000601D01*
X0148921Y0001413D01*
X0149614Y0001945D01*
X0150189Y0002693D01*
X0150549Y0003565D01*
X0150673Y00045D01*
X0150549Y0005435D01*
X0150189Y0006307D01*
X0149614Y0007055D01*
X0148866Y0007629D01*
X0147994Y000799D01*
X0147059Y0008114D01*
X0141941D01*
X0141006Y000799D01*
X0140134Y0007629D01*
X0139386Y0007055D01*
X0138812Y0006307D01*
X0138451Y0005435D01*
X0138327Y00045D01*
X0138451Y0003565D01*
X0138812Y0002693D01*
X0139386Y0001945D01*
X0140079Y0001413D01*
X0140156Y0000601D01*
X0140222Y-0001732D01*
X0140179Y-0002371D01*
X0140105Y-0002671D01*
X0139543Y-0003102D01*
X0139004Y-0003804D01*
X0138665Y-0004622D01*
X013855Y-00055D01*
X0135911Y-0007699D01*
X013511Y-0008083D01*
X0128915D01*
X0096857Y0023974D01*
X0096191Y0024486D01*
X0095415Y0024807D01*
X0094583Y0024916D01*
X00762D01*
X0075367Y0024807D01*
X0074592Y0024486D01*
X0073926Y0023974D01*
X0044321Y-000563D01*
X004013D01*
Y-0013183D01*
X0035999D01*
Y0039773D01*
X0038398Y0040767D01*
X0039936Y0041037D01*
X0040357Y0040714D01*
X0041133Y0040393D01*
X0041965Y0040284D01*
X0048D01*
X0048832Y0040393D01*
X0049608Y0040714D01*
X0050274Y0041226D01*
X0053587Y0044538D01*
X005609Y0045902D01*
X0056187Y0045928D01*
X0057011Y0046403D01*
X0057508Y0046522D01*
X00595Y0046638D01*
X0061492Y0046522D01*
X0061989Y0046403D01*
X0062813Y0045928D01*
X0063925Y004563D01*
X0063925Y004563D01*
X0065075Y004563D01*
X0065075Y004563D01*
X0066187Y0045928D01*
X0067183Y0046503D01*
X00695Y0046997D01*
X0071817Y0046503D01*
X0072813Y0045928D01*
X0073925Y004563D01*
X0073925Y004563D01*
X0075075Y004563D01*
X0075075Y004563D01*
X0076187Y0045928D01*
X0077011Y0046403D01*
X0077508Y0046522D01*
X00795Y0046638D01*
X0081492Y0046522D01*
X008199Y0046403D01*
X0082813Y0045928D01*
X0083925Y004563D01*
X0083925Y004563D01*
X0085075Y004563D01*
X0085075Y004563D01*
X0086187Y0045928D01*
X0087183Y0046503D01*
X00895Y0046997D01*
X0091817Y0046503D01*
X0092813Y0045928D01*
X0093925Y004563D01*
X0095075D01*
X0096187Y0045928D01*
X0097183Y0046503D01*
X00995Y0046997D01*
X0101817Y0046503D01*
X0102813Y0045928D01*
X0103925Y004563D01*
X0105075D01*
X0106187Y0045928D01*
X0107183Y0046503D01*
X010721Y004653D01*
X0109532Y0047069D01*
X0111952Y0046679D01*
X0112898Y0046133D01*
X0113954Y004585D01*
X0114D01*
Y005D01*
X0115D01*
Y004585D01*
D02*
G37*
G36*
X0073754Y0009352D02*
X0073862Y0009246D01*
Y000831D01*
X0074116Y0007364D01*
X0074606Y0006516D01*
X0075262Y0005859D01*
Y-0001937D01*
X0075152Y-0004114D01*
X0074159Y-000534D01*
X0072813Y-0005928D01*
X0072813D01*
X0071817Y-0006503D01*
X007179Y-000653D01*
X0069468Y-0007069D01*
X0067048Y-0006679D01*
X0066102Y-0006133D01*
X0065046Y-000585D01*
X0065D01*
Y-001D01*
X0064D01*
Y-000585D01*
X0063954D01*
X0062898Y-0006133D01*
X0061952Y-0006679D01*
X0060869Y-0006854D01*
X0058509Y-000537D01*
X0058146Y-0000903D01*
X0070342Y0011294D01*
X0073754Y0009352D01*
D02*
G37*
%LPC*%
G36*
X0144284Y0339996D02*
X0143229Y0339713D01*
X0142283Y0339167D01*
X014151Y0338394D01*
X0140964Y0337448D01*
X0140681Y0336393D01*
Y0336346D01*
X0144331D01*
Y0339996D01*
X0144284D01*
X0144284Y0339996D01*
D02*
G37*
G36*
X0122705Y0333976D02*
X0119795D01*
X0118768Y0333976D01*
X0114205D01*
Y0326024D01*
X0118768D01*
X0119795Y0326024D01*
X0122705D01*
X0123732Y0326024D01*
X0128295D01*
Y0333976D01*
X0123732D01*
X0122705Y0333976D01*
D02*
G37*
G36*
X0119705Y0308354D02*
X0118295D01*
X0116933Y0307989D01*
X0115712Y0307284D01*
X0114716Y0306288D01*
X0114011Y0305067D01*
X0113646Y0303705D01*
Y0302295D01*
X0114011Y0300933D01*
X0114716Y0299712D01*
X0115712Y0298715D01*
X0116933Y0298011D01*
X0118295Y0297646D01*
X0119705D01*
X0121067Y0298011D01*
X0122288Y0298715D01*
X0123284Y0299712D01*
X0123989Y0300933D01*
X0124354Y0302295D01*
Y0303705D01*
X0123989Y0305067D01*
X0123284Y0306288D01*
X0122288Y0307284D01*
X0121067Y0307989D01*
X0119705Y0308354D01*
D02*
G37*
G36*
X-0002464Y0322685D02*
X-0003519Y0322402D01*
X-0004465Y0321856D01*
X-0005238Y0321083D01*
X-0005784Y0320137D01*
X-0006067Y0319082D01*
Y0319035D01*
X-0002417D01*
Y0322685D01*
X-0002464D01*
X-0002464Y0322685D01*
D02*
G37*
G36*
X0291036D02*
X0289981Y0322402D01*
X0289035Y0321856D01*
X0288262Y0321083D01*
X0287716Y0320137D01*
X0287433Y0319082D01*
Y0319035D01*
X0291083D01*
Y0322685D01*
X0291036D01*
X0291036Y0322685D01*
D02*
G37*
G36*
X0264205Y0337976D02*
X0261295D01*
X0260268Y0337976D01*
X0255705D01*
Y0335585D01*
X0255393Y0334833D01*
X0255283Y0334D01*
Y0305D01*
X0255393Y0304168D01*
X0255705Y0303415D01*
Y0301024D01*
X0260268D01*
X0261295Y0301024D01*
X0264205D01*
X0265232Y0301024D01*
X0269795D01*
Y0308976D01*
X0265653D01*
X0264205Y0308976D01*
X0261717Y0311883D01*
Y0327117D01*
X0264205Y0330024D01*
X0265653Y0330024D01*
X0269795D01*
Y0337976D01*
X0265232D01*
X0264205Y0337976D01*
D02*
G37*
G36*
X0256384Y00445D02*
X0251D01*
Y0041609D01*
X0253059D01*
X0253937Y0041724D01*
X0254755Y0042063D01*
X0255457Y0042602D01*
X0255996Y0043304D01*
X0256335Y0044122D01*
X0256384Y00445D01*
D02*
G37*
G36*
X025D02*
X0244616D01*
X0244665Y0044122D01*
X0245004Y0043304D01*
X0245543Y0042602D01*
X0246245Y0042063D01*
X0247063Y0041724D01*
X0247941Y0041609D01*
X025D01*
Y00445D01*
D02*
G37*
G36*
X0254142Y0024083D02*
X0241858D01*
Y001802D01*
X0241858Y0016917D01*
Y0014083D01*
X0241858Y001298D01*
Y0006917D01*
X0241858Y0006917D01*
X024275Y0003567D01*
X0242828Y000298D01*
X0242312Y0002307D01*
X024195Y0001435D01*
X0241827Y00005D01*
X024195Y-0000435D01*
X0242312Y-0001307D01*
X0242886Y-0002055D01*
X0243634Y-0002629D01*
X0244506Y-000299D01*
X0245441Y-0003114D01*
X0250559D01*
X0251494Y-000299D01*
X0252366Y-0002629D01*
X0253114Y-0002055D01*
X0253689Y-0001307D01*
X0254049Y-0000435D01*
X0254173Y00005D01*
X0254049Y0001435D01*
X0253689Y0002307D01*
X0253172Y000298D01*
X0253223Y0003361D01*
X0254142Y0006917D01*
X0254142D01*
Y001298D01*
X0254142Y0014083D01*
Y0016917D01*
X0254142Y001802D01*
Y0024083D01*
D02*
G37*
G36*
X0225799Y0008114D02*
X0220681D01*
X0219746Y000799D01*
X0218874Y0007629D01*
X0218126Y0007055D01*
X0217552Y0006307D01*
X0217191Y0005435D01*
X0217068Y00045D01*
X0217191Y0003565D01*
X0217552Y0002693D01*
X0218126Y0001945D01*
X0218819Y0001413D01*
X0218896Y0000601D01*
X0218962Y-0001732D01*
X0218919Y-0002371D01*
X0218846Y-0002671D01*
X0218283Y-0003102D01*
X0217744Y-0003804D01*
X0217406Y-0004622D01*
X0217356Y-0005D01*
X0229125D01*
X0229075Y-0004622D01*
X0228736Y-0003804D01*
X0228197Y-0003102D01*
X0227635Y-0002671D01*
X0227562Y-0002371D01*
X0227518Y-0001732D01*
X0227584Y0000601D01*
X0227661Y0001413D01*
X0228354Y0001945D01*
X0228929Y0002693D01*
X022929Y0003565D01*
X0229413Y00045D01*
X022929Y0005435D01*
X0228929Y0006307D01*
X0228354Y0007055D01*
X0227606Y0007629D01*
X0226734Y000799D01*
X0225799Y0008114D01*
D02*
G37*
G36*
X0229125Y-0006D02*
X022374D01*
Y-0008891D01*
X0225799D01*
X0226677Y-0008776D01*
X0227495Y-0008437D01*
X0228197Y-0007898D01*
X0228736Y-0007196D01*
X0229075Y-0006378D01*
X0229125Y-0006D01*
D02*
G37*
G36*
X022274D02*
X0217356D01*
X0217406Y-0006378D01*
X0217744Y-0007196D01*
X0218283Y-0007898D01*
X0218986Y-0008437D01*
X0219803Y-0008776D01*
X0220681Y-0008891D01*
X022274D01*
Y-0006D01*
D02*
G37*
G36*
X-0000795Y0279854D02*
X-0002205D01*
X-0003567Y0279489D01*
X-0004788Y0278784D01*
X-0005785Y0277788D01*
X-0006489Y0276567D01*
X-0006854Y0275205D01*
Y0273795D01*
X-0006489Y0272433D01*
X-0005785Y0271212D01*
X-0004788Y0270216D01*
X-0003567Y0269511D01*
X-0002205Y0269146D01*
X-0000795D01*
X0000567Y0269511D01*
X0001788Y0270216D01*
X0002785Y0271212D01*
X0003489Y0272433D01*
X0003854Y0273795D01*
Y0275205D01*
X0003489Y0276567D01*
X0002785Y0277788D01*
X0001788Y0278784D01*
X0000567Y0279489D01*
X-0000795Y0279854D01*
D02*
G37*
G36*
X0129Y0156673D02*
X0128065Y015655D01*
X0127193Y0156188D01*
X0126445Y0155614D01*
X0125871Y0154866D01*
X012551Y0153994D01*
X0125386Y0153059D01*
Y0147941D01*
X012551Y0147006D01*
X0125871Y0146134D01*
X0126445Y0145386D01*
X0127193Y0144811D01*
X0128065Y014445D01*
X0129Y0144327D01*
X0129935Y014445D01*
X0130807Y0144811D01*
X0131555Y0145386D01*
X0132087Y0146079D01*
X0132899Y0146156D01*
X0135232Y0146222D01*
X0135871Y0146178D01*
X0136171Y0146105D01*
X0136602Y0145543D01*
X0137304Y0145004D01*
X0138122Y0144665D01*
X01385Y0144616D01*
Y01505D01*
Y0156384D01*
X0138122Y0156335D01*
X0137304Y0155996D01*
X0136602Y0155457D01*
X0136171Y0154895D01*
X0135871Y0154822D01*
X0135232Y0154778D01*
X0132899Y0154844D01*
X0132087Y0154921D01*
X0131555Y0155614D01*
X0130807Y0156188D01*
X0129935Y015655D01*
X0129Y0156673D01*
D02*
G37*
G36*
X0084584Y0152584D02*
X0083649Y0152461D01*
X0082777Y01521D01*
X0082112Y015159D01*
X0081071Y0150989D01*
X0080006Y0149924D01*
X0079253Y014862D01*
X0078863Y0147165D01*
Y0145659D01*
X0079253Y0144204D01*
X0080006Y0142899D01*
X0081071Y0141834D01*
X0082112Y0141233D01*
X0082777Y0140723D01*
X0083649Y0140362D01*
X0084584Y0140239D01*
X0085519Y0140362D01*
X0086391Y0140723D01*
X0087055Y0141233D01*
X0088096Y0141834D01*
X0089161Y0142899D01*
X0089914Y0144204D01*
X0090304Y0145659D01*
Y0147165D01*
X0089914Y014862D01*
X0089161Y0149924D01*
X0088096Y0150989D01*
X0087055Y015159D01*
X0086391Y01521D01*
X0085519Y0152461D01*
X0084584Y0152584D01*
D02*
G37*
G36*
Y0081718D02*
X0083649Y0081595D01*
X0082777Y0081234D01*
X0082112Y0080724D01*
X0081071Y0080123D01*
X0080006Y0079058D01*
X0079253Y0077753D01*
X0078863Y0076298D01*
Y0074792D01*
X0079253Y0073337D01*
X0080006Y0072033D01*
X0081071Y0070968D01*
X0082112Y0070367D01*
X0082777Y0069857D01*
X0083649Y0069496D01*
X0084584Y0069373D01*
X0085519Y0069496D01*
X0086391Y0069857D01*
X0087055Y0070367D01*
X0088096Y0070968D01*
X0089161Y0072033D01*
X0089914Y0073337D01*
X0090304Y0074792D01*
Y0076298D01*
X0089914Y0077753D01*
X0089161Y0079058D01*
X0088096Y0080123D01*
X0087055Y0080724D01*
X0086391Y0081234D01*
X0085519Y0081595D01*
X0084584Y0081718D01*
D02*
G37*
%LPD*%
D23*
X0163Y0188D02*
X01675Y01835D01*
X0151583Y0188D02*
X0163D01*
X01675Y0178106D02*
Y01835D01*
X0194Y03225D02*
Y03365D01*
X02585Y0305D02*
Y0334D01*
X0194Y03225D02*
X01985Y0318D01*
Y0304D02*
Y0318D01*
X01021Y03205D02*
Y03355D01*
X01005Y03189D02*
X01021Y03205D01*
X01005Y0299717D02*
Y0304D01*
X00375Y0303D02*
Y03315D01*
X01005Y0304D02*
Y03189D01*
X0089694Y0288911D02*
X01005Y0299717D01*
X0084494Y0288911D02*
X0089694D01*
X0076583Y0186D02*
Y0281D01*
Y0186D02*
X0080083Y01825D01*
X0076583Y0281D02*
X0084494Y0288911D01*
X00875Y0178106D02*
Y01825D01*
X0080083D02*
X00875D01*
X0280983Y0300982D02*
Y0316D01*
Y0300982D02*
X0286364Y0296882D01*
X0280983Y0316D02*
X0291583Y0318535D01*
X0220083Y0308287D02*
X0224083D01*
X0213483Y0323341D02*
X0220083Y0329941D01*
X0140083Y0335846D02*
X0144831D01*
X0134183Y0320093D02*
Y0329946D01*
X0220083Y0329941D02*
X0224083D01*
X0213483Y0314887D02*
Y0323341D01*
Y0314887D02*
X0220083Y0308287D01*
X0140083Y0314193D02*
X0144831D01*
X0134183Y0320093D02*
X0140083Y0314193D01*
X0286364Y0296882D02*
X0291583D01*
X0264083Y0051D02*
Y02746D01*
X0286364Y0296882D01*
X0258083Y0045D02*
X0264083Y0051D01*
X02505Y0045D02*
X0258083D01*
X0244583D02*
X02505D01*
X0235583Y0D02*
Y0036D01*
X0244583Y0045D01*
X022324Y-00055D02*
X0230083D01*
X0235583Y0D01*
X01455Y0067D02*
Y01055D01*
X0139Y0112D02*
X01455Y01055D01*
X0139Y0112D02*
Y01505D01*
X0136383Y-00055D02*
X01445D01*
X0136383D02*
Y0028117D01*
X0078842Y03432D02*
X0107283D01*
X0134183Y0329946D02*
X0140083Y0335846D01*
X0107283Y0290883D02*
Y03432D01*
X0065583Y0329941D02*
X0078842Y03432D01*
X005887Y0308287D02*
X0065583D01*
X0050327Y0299744D02*
X005887Y0308287D01*
X0050327Y0296544D02*
Y0299744D01*
X-0001917Y0296882D02*
X0001783Y0293182D01*
X00975Y02811D02*
X0107283Y0290883D01*
X00975Y0206D02*
Y02785D01*
X0094Y02025D02*
X00975Y0206D01*
X01145Y005D02*
X0136383Y0028117D01*
X00975Y02785D02*
Y02811D01*
X0001783Y02905D02*
X0044283D01*
X0001783D02*
Y0293182D01*
X0044283Y02905D02*
X0050327Y0296544D01*
X00875Y02025D02*
X0094D01*
X0044483Y005D02*
Y02708D01*
X01875Y0082283D02*
X0203083Y00667D01*
X01355Y0067D02*
Y0101783D01*
X0114583Y01227D02*
X01355Y0101783D01*
X0032783Y-0016D02*
Y01197D01*
Y-0016D02*
X0033183Y-00164D01*
X00981D01*
X01045Y-001D01*
X0070083Y0054417D02*
Y0269D01*
Y0054417D02*
X00745Y005D01*
X02007Y01104D02*
X0222283Y0131983D01*
Y01631D01*
X02175Y0167883D02*
X0222283Y01631D01*
X02175Y0167883D02*
Y0178106D01*
X0008083Y0318535D02*
X0015547Y0326D01*
X00265D01*
X0029Y03285D01*
Y03315D01*
X01275Y0265383D02*
Y02785D01*
Y0265383D02*
X0166383Y02265D01*
X0218183D01*
X0093558Y-001D02*
X00945D01*
X0084483Y-0000925D02*
X0093558Y-001D01*
X0084483Y-0000925D02*
Y00097D01*
X0213083Y00445D02*
X022324D01*
X0157283Y-00113D02*
X0213083Y00445D01*
X0127583Y-00113D02*
X0157283D01*
X0094583Y00217D02*
X0127583Y-00113D01*
X00762Y00217D02*
X0094583D01*
X00445Y-001D02*
X00762Y00217D01*
X01675Y02667D02*
Y02785D01*
Y02667D02*
X01692Y0265D01*
X0208283D01*
X0238283Y0235D01*
Y00614D02*
Y0235D01*
X0227683Y00508D02*
X0238283Y00614D01*
X0123539Y00508D02*
X0227683D01*
X0118Y0056339D02*
X0123539Y00508D01*
X0110839Y0056339D02*
X0118D01*
X01045Y005D02*
X0110839Y0056339D01*
X00845Y005D02*
X0095996Y0061496D01*
X0130263D01*
X013536Y00564D01*
X0220083D01*
X0233083Y00694D01*
Y0226209D01*
X0225937Y0233355D02*
X0233083Y0226209D01*
X0175345Y0233355D02*
X0225937D01*
X01475Y02612D02*
X0175345Y0233355D01*
X01475Y02612D02*
Y02785D01*
X0048Y00435D02*
X00545Y005D01*
X0041965Y00435D02*
X0048D01*
X0038083Y0047383D02*
X0041965Y00435D01*
X0038083Y0047383D02*
Y0113642D01*
X0038472Y0114031D01*
Y0273689D01*
X0060383Y02956D01*
X0077183D01*
X0086402Y030482D01*
Y0317069D01*
X0086934Y03176D01*
X02025Y03365D02*
X0227524D01*
X0234083Y0329941D01*
X0198083Y00667D02*
X0203083D01*
X01875Y0082283D02*
Y0178106D01*
X0077583Y00088D02*
X0078478Y0007904D01*
Y-0003978D02*
Y0007904D01*
Y-0003978D02*
X00845Y-001D01*
X0092883Y0309683D02*
Y03266D01*
X0092Y03088D02*
X0092883Y0309683D01*
X0092Y0304D02*
Y03088D01*
X0154831Y0302952D02*
X0162383Y02954D01*
X0154831Y0302952D02*
Y0314193D01*
X0044483Y005D02*
X00445D01*
X0135783Y01953D02*
X0220083D01*
X02275Y0187883D01*
Y0178106D02*
Y0187883D01*
X0029Y0297D02*
Y0303D01*
Y0297D02*
X0042283D01*
X0044583Y02993D01*
Y0318D01*
X0075683Y03491D01*
X0162583D01*
X0167183Y03445D01*
Y03012D02*
Y03445D01*
Y03012D02*
X01775Y0290883D01*
Y02785D02*
Y0290883D01*
X0207Y02915D02*
Y0304D01*
Y02915D02*
X02075Y0291D01*
Y02785D02*
Y0291D01*
X0169Y0112D02*
Y01505D01*
Y0112D02*
X01755Y01055D01*
Y0067D02*
Y01055D01*
D24*
X00875Y02525D02*
D03*
Y02425D02*
D03*
Y02325D02*
D03*
Y02225D02*
D03*
Y02125D02*
D03*
Y02025D02*
D03*
Y01925D02*
D03*
X02505Y0045D02*
D03*
X022324Y-00055D02*
D03*
X01445D02*
D03*
X022324Y00045D02*
D03*
X01445D02*
D03*
Y00345D02*
D03*
Y00445D02*
D03*
X0248Y00005D02*
D03*
D25*
X00875Y01825D02*
D03*
X0248Y00105D02*
D03*
X022324Y00445D02*
D03*
Y00345D02*
D03*
X0248Y00205D02*
D03*
X02505Y0055D02*
D03*
D26*
X01675Y0178106D02*
D03*
X01455Y0067D02*
D03*
X0139Y01505D02*
D03*
X00975Y02785D02*
D03*
X0084584Y0075545D02*
D03*
Y0146412D02*
D03*
X0214582Y0074711D02*
D03*
Y0145577D02*
D03*
X00975Y0178106D02*
D03*
X01075D02*
D03*
X01175D02*
D03*
X01275D02*
D03*
X01375D02*
D03*
X01475D02*
D03*
X01575D02*
D03*
X01775D02*
D03*
X01875D02*
D03*
X01975D02*
D03*
X02075D02*
D03*
X02175D02*
D03*
X02275D02*
D03*
X00875Y02785D02*
D03*
X01075D02*
D03*
X01175D02*
D03*
X01275D02*
D03*
X01375D02*
D03*
X01475D02*
D03*
X01575D02*
D03*
X01675D02*
D03*
X01775D02*
D03*
X01875D02*
D03*
X01975D02*
D03*
X02075D02*
D03*
X02175D02*
D03*
X02275D02*
D03*
X0149Y01505D02*
D03*
X01555Y0067D02*
D03*
X01655D02*
D03*
X0159Y01505D02*
D03*
X01855Y0067D02*
D03*
X01355D02*
D03*
X0129Y01505D02*
D03*
X0179D02*
D03*
D27*
X0194Y03365D02*
D03*
X02585Y0334D02*
D03*
X0181Y033D02*
D03*
X0117D02*
D03*
X02585Y0305D02*
D03*
X01985Y0304D02*
D03*
X01021Y03355D02*
D03*
X01005Y0304D02*
D03*
X00375Y03315D02*
D03*
Y0303D02*
D03*
X0267Y0305D02*
D03*
X0092Y0304D02*
D03*
X01255Y033D02*
D03*
X0207Y0304D02*
D03*
X0029Y0303D02*
D03*
X0267Y0334D02*
D03*
X02025Y03365D02*
D03*
X01725Y033D02*
D03*
X00936Y03355D02*
D03*
X0029Y03315D02*
D03*
D28*
X00875Y0178106D02*
D03*
X01755Y0067D02*
D03*
X0169Y01505D02*
D03*
D29*
X0224083Y0329941D02*
D03*
X0291583Y0318535D02*
D03*
X0224083Y0308287D02*
D03*
X0144831Y0335846D02*
D03*
Y0314193D02*
D03*
X0291583Y0296882D02*
D03*
X0065583Y0329941D02*
D03*
Y0308287D02*
D03*
X-0001917Y0296882D02*
D03*
Y0318535D02*
D03*
X01145Y005D02*
D03*
Y-001D02*
D03*
X00645D02*
D03*
X00545D02*
D03*
Y005D02*
D03*
X00945D02*
D03*
X01045D02*
D03*
X00645D02*
D03*
X00445D02*
D03*
X00845D02*
D03*
X00745D02*
D03*
X0301583Y0318535D02*
D03*
X0234083Y0329941D02*
D03*
X0008083Y0318535D02*
D03*
X0154831Y0335846D02*
D03*
X0075583Y0329941D02*
D03*
X00945Y-001D02*
D03*
X01045D02*
D03*
X00845D02*
D03*
X00745D02*
D03*
D30*
X030325Y02745D02*
D03*
X-00015D02*
D03*
X01805Y0303D02*
D03*
X0119D02*
D03*
X-00015Y0199D02*
D03*
X-00025Y-00135D02*
D03*
X0303D02*
D03*
X030325Y0199D02*
D03*
D31*
X0301583Y0296882D02*
D03*
X0075583Y0308287D02*
D03*
X0154831Y0314193D02*
D03*
X0234083Y0308287D02*
D03*
X0008083Y0296882D02*
D03*
X00445Y-001D02*
D03*
D32*
X0304063Y0307709D02*
D03*
X0289102D02*
D03*
X0221602Y0319114D02*
D03*
X0236563D02*
D03*
X-0004398Y0307709D02*
D03*
X0010563D02*
D03*
X014235Y032502D02*
D03*
X0157311D02*
D03*
X0063102Y0319114D02*
D03*
X0078063D02*
D03*
D33*
X0286937Y0289402D02*
D03*
X0219437Y0300807D02*
D03*
X-0006563Y0289402D02*
D03*
X0140185Y0306713D02*
D03*
X0060937Y0300807D02*
D03*
D34*
X0151583Y0188D02*
D03*
X0114583Y01227D02*
D03*
X0032783Y01197D02*
D03*
X0070083Y0269D02*
D03*
X02007Y01104D02*
D03*
X0218183Y02265D02*
D03*
X0084483Y00097D02*
D03*
X0086934Y03176D02*
D03*
X0198083Y00667D02*
D03*
X0077583Y00088D02*
D03*
X0092883Y03266D02*
D03*
X0162383Y02954D02*
D03*
X0044483Y02708D02*
D03*
X0135783Y01953D02*
D03*
M02*
