G04*
G04 #@! TF.GenerationSoftware,Altium Limited,Altium Designer,25.8.1 (18)*
G04*
G04 Layer_Color=12632256*
%FSTAX25Y25*%
%MOIN*%
G70*
G04*
G04 #@! TF.SameCoordinates,DF34DFE3-8D6B-4D56-A59C-19EA502AC89A*
G04*
G04*
G04 #@! TF.FilePolarity,Positive*
G04*
G01*
G75*
%ADD24O,0.09843X0.04724*%
%ADD25R,0.09843X0.04724*%
%ADD26O,0.04724X0.09843*%
%ADD27R,0.03150X0.05512*%
%ADD28R,0.04724X0.09843*%
%ADD29C,0.06299*%
%ADD30C,0.08268*%
%ADD31R,0.06299X0.06299*%
%ADD32C,0.09843*%
%ADD33C,0.03937*%
D24*
X00875Y02525D02*
D03*
Y02425D02*
D03*
Y02325D02*
D03*
Y02225D02*
D03*
Y02125D02*
D03*
Y02025D02*
D03*
Y01925D02*
D03*
X02505Y0045D02*
D03*
X022324Y-00055D02*
D03*
X01445D02*
D03*
X022324Y00045D02*
D03*
X01445D02*
D03*
Y00345D02*
D03*
Y00445D02*
D03*
X0248Y00005D02*
D03*
D25*
X00875Y01825D02*
D03*
X0248Y00105D02*
D03*
X022324Y00445D02*
D03*
Y00345D02*
D03*
X0248Y00205D02*
D03*
X02505Y0055D02*
D03*
D26*
X01675Y0178106D02*
D03*
X01455Y0067D02*
D03*
X0139Y01505D02*
D03*
X00975Y02785D02*
D03*
X0084584Y0075545D02*
D03*
Y0146412D02*
D03*
X0214582Y0074711D02*
D03*
Y0145577D02*
D03*
X00975Y0178106D02*
D03*
X01075D02*
D03*
X01175D02*
D03*
X01275D02*
D03*
X01375D02*
D03*
X01475D02*
D03*
X01575D02*
D03*
X01775D02*
D03*
X01875D02*
D03*
X01975D02*
D03*
X02075D02*
D03*
X02175D02*
D03*
X02275D02*
D03*
X00875Y02785D02*
D03*
X01075D02*
D03*
X01175D02*
D03*
X01275D02*
D03*
X01375D02*
D03*
X01475D02*
D03*
X01575D02*
D03*
X01675D02*
D03*
X01775D02*
D03*
X01875D02*
D03*
X01975D02*
D03*
X02075D02*
D03*
X02175D02*
D03*
X02275D02*
D03*
X0149Y01505D02*
D03*
X01555Y0067D02*
D03*
X01655D02*
D03*
X0159Y01505D02*
D03*
X01855Y0067D02*
D03*
X01355D02*
D03*
X0129Y01505D02*
D03*
X0179D02*
D03*
D27*
X0194Y03365D02*
D03*
X02585Y0334D02*
D03*
X0181Y033D02*
D03*
X0117D02*
D03*
X02585Y0305D02*
D03*
X01985Y0304D02*
D03*
X01021Y03355D02*
D03*
X01005Y0304D02*
D03*
X00375Y03315D02*
D03*
Y0303D02*
D03*
X0267Y0305D02*
D03*
X0092Y0304D02*
D03*
X01255Y033D02*
D03*
X0207Y0304D02*
D03*
X0029Y0303D02*
D03*
X0267Y0334D02*
D03*
X02025Y03365D02*
D03*
X01725Y033D02*
D03*
X00936Y03355D02*
D03*
X0029Y03315D02*
D03*
D28*
X00875Y0178106D02*
D03*
X01755Y0067D02*
D03*
X0169Y01505D02*
D03*
D29*
X0224083Y0329941D02*
D03*
X0291583Y0318535D02*
D03*
X0224083Y0308287D02*
D03*
X0144831Y0335846D02*
D03*
Y0314193D02*
D03*
X0291583Y0296882D02*
D03*
X0065583Y0329941D02*
D03*
Y0308287D02*
D03*
X-0001917Y0296882D02*
D03*
Y0318535D02*
D03*
X01145Y005D02*
D03*
Y-001D02*
D03*
X00645D02*
D03*
X00545D02*
D03*
Y005D02*
D03*
X00945D02*
D03*
X01045D02*
D03*
X00645D02*
D03*
X00445D02*
D03*
X00845D02*
D03*
X00745D02*
D03*
X0301583Y0318535D02*
D03*
X0234083Y0329941D02*
D03*
X0008083Y0318535D02*
D03*
X0154831Y0335846D02*
D03*
X0075583Y0329941D02*
D03*
X00945Y-001D02*
D03*
X01045D02*
D03*
X00845D02*
D03*
X00745D02*
D03*
D30*
X030325Y02745D02*
D03*
X-00015D02*
D03*
X01805Y0303D02*
D03*
X0119D02*
D03*
X-00015Y0199D02*
D03*
X-00025Y-00135D02*
D03*
X0303D02*
D03*
X030325Y0199D02*
D03*
D31*
X0301583Y0296882D02*
D03*
X0075583Y0308287D02*
D03*
X0154831Y0314193D02*
D03*
X0234083Y0308287D02*
D03*
X0008083Y0296882D02*
D03*
X00445Y-001D02*
D03*
D32*
X0304063Y0307709D02*
D03*
X0289102D02*
D03*
X0221602Y0319114D02*
D03*
X0236563D02*
D03*
X-0004398Y0307709D02*
D03*
X0010563D02*
D03*
X014235Y032502D02*
D03*
X0157311D02*
D03*
X0063102Y0319114D02*
D03*
X0078063D02*
D03*
D33*
X0286937Y0289402D02*
D03*
X0219437Y0300807D02*
D03*
X-0006563Y0289402D02*
D03*
X0140185Y0306713D02*
D03*
X0060937Y0300807D02*
D03*
M02*
