G04*
G04 #@! TF.GenerationSoftware,Altium Limited,Altium Designer,25.8.1 (18)*
G04*
G04 Layer_Physical_Order=2*
G04 Layer_Color=16711680*
%FSTAX25Y25*%
%MOIN*%
G70*
G04*
G04 #@! TF.SameCoordinates,DF34DFE3-8D6B-4D56-A59C-19EA502AC89A*
G04*
G04*
G04 #@! TF.FilePolarity,Positive*
G04*
G01*
G75*
%ADD23C,0.03937*%
%ADD24O,0.09843X0.04724*%
%ADD25R,0.09843X0.04724*%
%ADD26O,0.04724X0.09843*%
%ADD27R,0.03150X0.05512*%
%ADD28R,0.04724X0.09843*%
%ADD29C,0.06299*%
%ADD30C,0.08268*%
%ADD31R,0.06299X0.06299*%
%ADD32C,0.09843*%
%ADD33C,0.03937*%
%ADD34C,0.05000*%
G36*
X0162312Y0358497D02*
X0175346Y0357928D01*
X0188357Y035698D01*
X0201335Y0355654D01*
X0214269Y0353951D01*
X0227149Y0351873D01*
X0239962Y0349421D01*
X0252699Y0346597D01*
X0265348Y0343405D01*
X0277899Y0339845D01*
X0288973Y0336353D01*
X0288367Y0332417D01*
X0270216D01*
Y0334D01*
X0270107Y0334833D01*
X0269795Y0335585D01*
Y0337976D01*
X0265232D01*
X0264205Y0337976D01*
X0261295D01*
X0260268Y0337976D01*
X0255705D01*
Y0330024D01*
X0260239D01*
X0260565Y0329948D01*
X0262475Y0329041D01*
X0264214Y0327592D01*
X0264726Y0326926D01*
X0265392Y0326414D01*
X0266167Y0326093D01*
X0267Y0325984D01*
X0286205D01*
X0289083Y0322216D01*
X0289035Y0321856D01*
X0288262Y0321083D01*
X0287716Y0320137D01*
X0287433Y0319082D01*
Y0319035D01*
X0291583D01*
Y0318035D01*
X0287433D01*
Y0317989D01*
X0287519Y031767D01*
X0287447Y0316265D01*
X0286384Y0313626D01*
X0285796Y0312886D01*
X0285187Y0312479D01*
X0284332Y0311624D01*
X028366Y0310618D01*
X0283196Y03095D01*
X0282961Y0308313D01*
Y0307104D01*
X0283196Y0305917D01*
X028366Y0304799D01*
X0284332Y0303794D01*
X0285187Y0302938D01*
X0285796Y0302531D01*
X0286384Y0301792D01*
X0287003Y0300255D01*
X0287362Y0297114D01*
X0287423Y0296445D01*
X0287375Y02962D01*
X028599Y0292972D01*
X0285952Y0292891D01*
X0285533Y0292324D01*
X0285213Y0292089D01*
X0284979Y0291953D01*
X0284385Y029136D01*
X0281329Y02905D01*
X0279999Y0290433D01*
X0270216Y0300215D01*
Y0305D01*
X0270107Y0305833D01*
X0269795Y0306585D01*
Y0308976D01*
X0265232D01*
X0264205Y0308976D01*
X0261295D01*
X0260268Y0308976D01*
X0255705D01*
Y0306536D01*
X0255528Y030623D01*
X0255311Y0305419D01*
X0253771Y0293708D01*
X0232334D01*
X0230828Y0297346D01*
X0236357Y0302875D01*
X0236868Y0303541D01*
X0237024Y0303917D01*
X0238453D01*
Y0309978D01*
X0239058Y0312172D01*
X0240478Y0314344D01*
X0241334Y0315199D01*
X0242006Y0316205D01*
X0242469Y0317323D01*
X0242705Y0318509D01*
Y0319719D01*
X0242469Y0320906D01*
X0242006Y0322023D01*
X0241334Y0323029D01*
X0240478Y0323885D01*
X0240056Y0324167D01*
X0239255Y0325167D01*
X023836Y0327677D01*
X0238363Y0329032D01*
X0238453Y0329366D01*
Y0330516D01*
X0238155Y0331628D01*
X0237579Y0332624D01*
X0236766Y0333438D01*
X0235769Y0334013D01*
X0234658Y0334311D01*
X0233507D01*
X0232396Y0334013D01*
X0231399Y0333438D01*
X0231372Y0333411D01*
X0230286Y0333158D01*
X0226823Y0333256D01*
X0226562Y0333301D01*
X0225684Y0333808D01*
X0224629Y0334091D01*
X0224629Y0334091D01*
X0224583D01*
Y0329941D01*
X0224083D01*
Y0329441D01*
X0219933D01*
Y0329395D01*
X0220019Y0329075D01*
X0219947Y0327671D01*
X0218884Y0325031D01*
X0218296Y0324292D01*
X0217687Y0323885D01*
X0216832Y0323029D01*
X021616Y0322023D01*
X0215697Y0320906D01*
X021546Y0319719D01*
Y0318509D01*
X0215697Y0317323D01*
X021616Y0316205D01*
X0216832Y0315199D01*
X0217687Y0314344D01*
X0218296Y0313937D01*
X0218884Y0313197D01*
X0219503Y031166D01*
X0219862Y0308519D01*
X0219923Y0307851D01*
X0219875Y0307605D01*
X021849Y0304378D01*
X0218452Y0304296D01*
X0218033Y030373D01*
X0217713Y0303494D01*
X0217497Y0303369D01*
X0217479Y0303359D01*
Y0303359D01*
X0216885Y0302765D01*
X0214097Y0301868D01*
X0213921Y0301855D01*
X0210216Y0304D01*
X0210107Y0304833D01*
X0209795Y0305585D01*
Y0307976D01*
X0204205D01*
Y0307976D01*
X0201295D01*
Y0307976D01*
X0195705D01*
Y0305585D01*
X0195393Y0304833D01*
X0195283Y0304D01*
Y0298983D01*
X0195393Y029815D01*
X0195714Y0297374D01*
X0196226Y0296708D01*
X0204045Y0288889D01*
X0203604Y0285873D01*
X0202367Y0285849D01*
X0201972Y028592D01*
X0200286Y0286591D01*
X0199774Y0287257D01*
X0189357Y0297674D01*
X0188691Y0298186D01*
X0188496Y0298266D01*
X0187558Y0299098D01*
X0186135Y0301453D01*
X0185854Y0302295D01*
Y0303705D01*
X0185489Y0305067D01*
X0184784Y0306288D01*
X0183788Y0307284D01*
X0182567Y0307989D01*
X0181205Y0308354D01*
X0179795D01*
X0178433Y0307989D01*
X0177212Y0307284D01*
X0176216Y0306288D01*
X0175511Y0305067D01*
X0175146Y0303705D01*
Y0302295D01*
X0173073Y0299173D01*
X0172302Y0298617D01*
X0167633D01*
X0166002Y0302554D01*
X0183274Y0319826D01*
X0183786Y0320492D01*
X0184107Y0321268D01*
X0184216Y03221D01*
Y033D01*
Y0332168D01*
X0185332Y0333283D01*
X0191205D01*
Y0332524D01*
X0195768D01*
X0196795Y0332524D01*
X0199705D01*
X0200732Y0332524D01*
X0205295D01*
Y0340476D01*
X0200732D01*
X0199705Y0340476D01*
X0196795D01*
X0195768Y0340476D01*
X0191205D01*
Y0339717D01*
X0184D01*
X0183168Y0339607D01*
X0182392Y0339286D01*
X0181726Y0338774D01*
X0179359Y0336408D01*
X0178857Y0336304D01*
X0177506Y0336344D01*
X0176313Y0336476D01*
X0175028Y033685D01*
X0174888Y0336926D01*
X0174774Y0337074D01*
X0174108Y0337586D01*
X0173333Y0337907D01*
X01725Y0338017D01*
X0158624D01*
X0158327Y033853D01*
X0157514Y0339343D01*
X0156517Y0339919D01*
X0155406Y0340216D01*
X0154255D01*
X0153144Y0339919D01*
X0152147Y0339343D01*
X015212Y0339316D01*
X0151034Y0339064D01*
X0147571Y0339161D01*
X014731Y0339207D01*
X0146432Y0339713D01*
X0145377Y0339996D01*
X0145377Y0339996D01*
X0145331D01*
Y0335846D01*
X0144831D01*
Y0335346D01*
X0140681D01*
Y03353D01*
X0140767Y0334981D01*
X0140695Y0333576D01*
X0139632Y0330937D01*
X0139044Y0330197D01*
X0138435Y032979D01*
X013758Y0328935D01*
X0136908Y0327929D01*
X0136445Y0326811D01*
X0136209Y0325624D01*
Y0324415D01*
X0136445Y0323228D01*
X0136908Y032211D01*
X013758Y0321105D01*
X0138435Y0320249D01*
X0139044Y0319842D01*
X0139632Y0319103D01*
X0140251Y0317566D01*
X014061Y0314425D01*
X0140671Y0313756D01*
X0140623Y0313511D01*
X0139996Y0312049D01*
X0135854Y0311106D01*
X0135427Y0311222D01*
X0128717Y0317932D01*
Y033D01*
X0128607Y0330833D01*
X0128295Y0331585D01*
Y0333976D01*
X0122705D01*
Y0333976D01*
X0119795D01*
Y0333976D01*
X0114205D01*
Y0333217D01*
X0108932D01*
X0104895Y0337253D01*
Y0339476D01*
X0100332D01*
X0099305Y0339476D01*
X0096395D01*
X0095368Y0339476D01*
X0090805D01*
Y0338717D01*
X0081142D01*
X0080309Y0338607D01*
X0079533Y0338286D01*
X0078867Y0337774D01*
X0075404Y0334311D01*
X0075007D01*
X0073896Y0334013D01*
X0072899Y0333438D01*
X0072872Y0333411D01*
X0071786Y0333158D01*
X0068323Y0333256D01*
X0068062Y0333301D01*
X0067184Y0333808D01*
X0066129Y0334091D01*
X0066129Y0334091D01*
X0066083D01*
Y0329941D01*
X0065583D01*
Y0329441D01*
X0061433D01*
Y0329395D01*
X0061519Y0329075D01*
X0061447Y0327671D01*
X0060384Y0325031D01*
X0059796Y0324292D01*
X0059187Y0323885D01*
X0058332Y0323029D01*
X005766Y0322023D01*
X0057196Y0320906D01*
X005696Y0319719D01*
Y0318509D01*
X0057196Y0317323D01*
X005766Y0316205D01*
X0058332Y0315199D01*
X0059187Y0314344D01*
X0059796Y0313937D01*
X0060384Y0313197D01*
X0061003Y031166D01*
X0061362Y0308519D01*
X0061423Y0307851D01*
X0061375Y0307605D01*
X005999Y0304378D01*
X0059952Y0304296D01*
X0059533Y030373D01*
X0059213Y0303494D01*
X0058979Y0303359D01*
X0058385Y0302765D01*
X0057965Y0302038D01*
X0057856Y030163D01*
X0057748Y0301227D01*
X0055273Y0298297D01*
X0055036Y0298097D01*
X0054525Y0297839D01*
X0040716Y0298458D01*
Y0303D01*
X0040607Y0303833D01*
X0040295Y0304585D01*
Y0306976D01*
X0035732D01*
X0034705Y0306976D01*
X0031795D01*
X0030768Y0306976D01*
X0026205D01*
Y0304585D01*
X0025893Y0303833D01*
X0025784Y0303D01*
Y0301416D01*
X0018323D01*
X0017036Y0303296D01*
X0016235Y0305353D01*
X0016469Y0305917D01*
X0016705Y0307104D01*
Y0308313D01*
X0016469Y03095D01*
X0016006Y0310618D01*
X0015334Y0311624D01*
X0014478Y0312479D01*
X0014056Y0312761D01*
X0013255Y0313761D01*
X001236Y0316272D01*
X0012363Y0317627D01*
X0012453Y031796D01*
Y0319111D01*
X0012155Y0320222D01*
X001158Y0321219D01*
X0010766Y0322032D01*
X0009769Y0322608D01*
X0008658Y0322905D01*
X0007507D01*
X0006396Y0322608D01*
X0005399Y0322032D01*
X0005372Y0322005D01*
X0004286Y0321753D01*
X0000823Y032185D01*
X0000562Y0321896D01*
X-0000316Y0322402D01*
X-0001371Y0322685D01*
X-0001371Y0322685D01*
X-0001417D01*
Y0318535D01*
X-0001917D01*
Y0318035D01*
X-0006067D01*
Y0317989D01*
X-0005981Y031767D01*
X-0006053Y0316265D01*
X-0007038Y031382D01*
X-0008863Y0313149D01*
X-0012663Y0315635D01*
Y032421D01*
X-0012319Y0325344D01*
X-0011382Y0327096D01*
X-0010122Y0328632D01*
X-0008586Y0329893D01*
X-0008262Y0330066D01*
X-0004129Y0331639D01*
X0008194Y0335922D01*
X0020636Y0339845D01*
X0033187Y0343405D01*
X0045836Y0346597D01*
X0058573Y0349421D01*
X0071386Y0351873D01*
X0084266Y0353951D01*
X00972Y0355654D01*
X0110178Y035698D01*
X012319Y0357928D01*
X0136223Y0358497D01*
X0149268Y0358687D01*
X0162312Y0358497D01*
D02*
G37*
G36*
X0030926Y0295382D02*
X0031575Y0295251D01*
X0033449Y0294619D01*
X0034645Y0293901D01*
X0034687Y0293841D01*
X0034714Y0293774D01*
X0034927Y0293498D01*
X0035126Y0293212D01*
X0035181Y0293166D01*
X0035226Y0293108D01*
X0035502Y0292896D01*
X0035769Y0292672D01*
X0035834Y0292641D01*
X0035892Y0292597D01*
X0036214Y0292464D01*
X0036529Y0292316D01*
X0036601Y0292303D01*
X0036667Y0292276D01*
X0037013Y029223D01*
X0037356Y0292169D01*
X0054946Y029138D01*
X0056503Y028737D01*
X004353Y0274397D01*
X0043047Y0274267D01*
X0042198Y0273777D01*
X0041506Y0273084D01*
X0041016Y0272236D01*
X0040762Y027129D01*
Y027031D01*
X0041016Y0269364D01*
X0041506Y0268516D01*
X0042198Y0267823D01*
X0043047Y0267333D01*
X0043993Y0267079D01*
X0044972D01*
X0045919Y0267333D01*
X0046767Y0267823D01*
X004746Y0268516D01*
X0047949Y0269364D01*
X0048079Y0269848D01*
X0061303Y0283072D01*
X0064395Y0283041D01*
X0064598Y0282708D01*
X0065571Y0279089D01*
X0061408Y0274926D01*
X0060897Y027426D01*
X0060576Y0273484D01*
X0060466Y0272652D01*
Y02649D01*
X0060576Y0264068D01*
X0060897Y0263292D01*
X0061408Y0262626D01*
X0067808Y0256226D01*
X0067869Y0256179D01*
X0067918Y0256121D01*
X0068201Y0255924D01*
X0068474Y0255714D01*
X0068545Y0255685D01*
X0068608Y0255642D01*
X0068932Y0255525D01*
X006925Y0255393D01*
X0069326Y0255383D01*
X0069398Y0255357D01*
X0069741Y0255328D01*
X0070083Y0255283D01*
X0070158Y0255293D01*
X0070234Y0255287D01*
X0070574Y0255348D01*
X0070915Y0255393D01*
X0070986Y0255422D01*
X0071061Y0255436D01*
X0071373Y0255583D01*
X0071691Y0255714D01*
X0071751Y0255761D01*
X007182Y0255793D01*
X0072229Y0256056D01*
X0076166Y0253905D01*
Y02225D01*
X0076276Y0221668D01*
X0076597Y0220892D01*
X0077108Y0220226D01*
X0077774Y0219714D01*
X007855Y0219393D01*
X0079383Y0219284D01*
X0081668D01*
X008275Y0216586D01*
X0082765Y0215347D01*
X0082386Y0215055D01*
X0081811Y0214307D01*
X008145Y0213435D01*
X0081327Y02125D01*
X008145Y0211565D01*
X0081811Y0210693D01*
X0082386Y0209945D01*
X0083079Y0209413D01*
X0083156Y0208601D01*
X0083222Y0206268D01*
X0083179Y0205629D01*
X0083105Y0205329D01*
X0082543Y0204898D01*
X0082004Y0204196D01*
X0081665Y0203378D01*
X0081616Y0203D01*
X0093384D01*
X0093335Y0203378D01*
X0092996Y0204196D01*
X0092457Y0204898D01*
X0091895Y0205329D01*
X0091821Y0205629D01*
X0091778Y0206268D01*
X0091844Y0208601D01*
X0091921Y0209413D01*
X0092614Y0209945D01*
X0093189Y0210693D01*
X009355Y0211565D01*
X0093673Y02125D01*
X009355Y0213435D01*
X0093189Y0214307D01*
X0092614Y0215055D01*
X0092201Y0215372D01*
X0092023Y02175D01*
X0092201Y0219628D01*
X0092614Y0219945D01*
X0093189Y0220693D01*
X009355Y0221565D01*
X0093673Y02225D01*
X009355Y0223435D01*
X0093189Y0224307D01*
X0092614Y0225055D01*
X0092235Y0225346D01*
X009225Y0226586D01*
X0093332Y0229283D01*
X009725D01*
X0132186Y0194348D01*
X0132316Y0193864D01*
X0132806Y0193016D01*
X0133498Y0192323D01*
X0134347Y0191833D01*
X0135293Y0191579D01*
X0136272D01*
X0137219Y0191833D01*
X0138067Y0192323D01*
X013876Y0193016D01*
X0142715Y0192319D01*
X0146867Y0188167D01*
X0146714Y0186134D01*
X0146135Y0184309D01*
X0146053Y0184214D01*
X014567Y0183777D01*
X0145413Y018358D01*
X0144945Y0183221D01*
X0144628Y0182808D01*
X01425Y0182629D01*
X0140372Y0182808D01*
X0140055Y0183221D01*
X0139307Y0183795D01*
X0138435Y0184156D01*
X01375Y0184279D01*
X0136565Y0184156D01*
X0135693Y0183795D01*
X0134945Y0183221D01*
X0134653Y0182841D01*
X0133414Y0182856D01*
X0130717Y0183939D01*
Y01857D01*
X0130607Y0186532D01*
X0130286Y0187308D01*
X0129774Y0187974D01*
X0122974Y0194774D01*
X0122308Y0195286D01*
X0121532Y0195607D01*
X01207Y0195717D01*
X0092756D01*
X0091818Y019932D01*
X0091821Y0199371D01*
X0091895Y0199671D01*
X0092457Y0200102D01*
X0092996Y0200804D01*
X0093335Y0201622D01*
X0093384Y0202D01*
X0081616D01*
X0081665Y0201622D01*
X0082004Y0200804D01*
X0082543Y0200102D01*
X0083105Y0199671D01*
X0083179Y0199371D01*
X0083222Y0198732D01*
X0083156Y0196399D01*
X0083079Y0195587D01*
X0082386Y0195055D01*
X0081811Y0194307D01*
X008145Y0193435D01*
X0081327Y01925D01*
X008145Y0191565D01*
X0081811Y0190693D01*
X0082328Y019002D01*
X0082277Y0189639D01*
X0081358Y0186083D01*
X0081358D01*
Y0178917D01*
X0083917D01*
Y0171965D01*
X0091083D01*
X0091083Y0171965D01*
X0094433Y0172856D01*
X009502Y0172935D01*
X0095693Y0172418D01*
X0096565Y0172057D01*
X00975Y0171934D01*
X0098435Y0172057D01*
X0099307Y0172418D01*
X0100055Y0172992D01*
X0100372Y0173405D01*
X01025Y0173584D01*
X0104628Y0173405D01*
X0104945Y0172992D01*
X0105693Y0172418D01*
X0106565Y0172057D01*
X01075Y0171934D01*
X0108435Y0172057D01*
X0109307Y0172418D01*
X0110055Y0172992D01*
X0110372Y0173405D01*
X01125Y0173584D01*
X0114628Y0173405D01*
X0114945Y0172992D01*
X0115693Y0172418D01*
X0116565Y0172057D01*
X01175Y0171934D01*
X0118435Y0172057D01*
X0119307Y0172418D01*
X0120055Y0172992D01*
X0120372Y0173405D01*
X01225Y0173584D01*
X0124628Y0173405D01*
X0124945Y0172992D01*
X0125693Y0172418D01*
X0126565Y0172057D01*
X01275Y0171934D01*
X0128435Y0172057D01*
X0129307Y0172418D01*
X0130055Y0172992D01*
X0130347Y0173372D01*
X0131586Y0173357D01*
X0134283Y0172274D01*
Y01699D01*
X0134393Y0169068D01*
X0134714Y0168292D01*
X0135226Y0167626D01*
X0143596Y0159255D01*
X0143479Y0158823D01*
X0142732Y0158064D01*
X0139878Y0156335D01*
X01395Y0156384D01*
Y01505D01*
Y0144616D01*
X0139878Y0144665D01*
X0140696Y0145004D01*
X0141398Y0145543D01*
X0141829Y0146105D01*
X0142129Y0146178D01*
X0142768Y0146222D01*
X0145101Y0146156D01*
X0145913Y0146079D01*
X0146445Y0145386D01*
X0147193Y0144811D01*
X0148065Y014445D01*
X0149Y0144327D01*
X0149935Y014445D01*
X0150807Y0144811D01*
X0151555Y0145386D01*
X0151872Y0145799D01*
X0154Y0145977D01*
X0156128Y0145799D01*
X0156445Y0145386D01*
X0157193Y0144811D01*
X0158065Y014445D01*
X0159Y0144327D01*
X0159935Y014445D01*
X0160807Y0144811D01*
X016148Y0145328D01*
X0161861Y0145277D01*
X0165417Y0144358D01*
Y0144358D01*
X0169824D01*
X0171455Y0140421D01*
X0090589Y0059555D01*
X0046254D01*
X0044624Y0063492D01*
X0093215Y0112083D01*
X01183D01*
X0119132Y0112193D01*
X0119908Y0112514D01*
X0120574Y0113026D01*
X0131274Y0123726D01*
X0131786Y0124392D01*
X0132107Y0125168D01*
X0132217Y0126D01*
Y0145244D01*
X013582Y0146182D01*
X0135871Y0146178D01*
X0136171Y0146105D01*
X0136602Y0145543D01*
X0137304Y0145004D01*
X0138122Y0144665D01*
X01385Y0144616D01*
Y01505D01*
Y0156384D01*
X0138122Y0156335D01*
X0137304Y0155996D01*
X0136602Y0155457D01*
X0136171Y0154895D01*
X0135871Y0154822D01*
X0135232Y0154778D01*
X0132899Y0154844D01*
X0132087Y0154921D01*
X0131555Y0155614D01*
X0130807Y0156188D01*
X0129935Y015655D01*
X0129Y0156673D01*
X0128065Y015655D01*
X0127193Y0156188D01*
X0126445Y0155614D01*
X0125871Y0154866D01*
X012551Y0153994D01*
X0125386Y0153059D01*
Y0147941D01*
X012551Y0147006D01*
X0125784Y0146344D01*
Y0127332D01*
X0122065Y0123613D01*
X0121873Y0123592D01*
X0120664Y0123764D01*
X0117673Y0124789D01*
X011756Y0124984D01*
X0116867Y0125677D01*
X0116019Y0126167D01*
X0115072Y012642D01*
X0114093D01*
X0113147Y0126167D01*
X0112713Y0125917D01*
X0035783D01*
X003495Y0125807D01*
X0034174Y0125486D01*
X0031849Y0126154D01*
X0030254Y0127288D01*
Y0188D01*
X0030121Y0188671D01*
X002974Y018924D01*
X0029171Y0189621D01*
X00285Y0189754D01*
X0001417D01*
X0000192Y0193691D01*
X0000567Y019401D01*
X0001788Y0194715D01*
X0002785Y0195712D01*
X0003489Y0196933D01*
X0003854Y0198295D01*
Y0199705D01*
X0003489Y0201067D01*
X0002785Y0202288D01*
X0001788Y0203285D01*
X0000567Y0203989D01*
X-0000795Y0204354D01*
X-0002205D01*
X-0003567Y0203989D01*
X-0004788Y0203285D01*
X-0005785Y0202288D01*
X-0006489Y0201067D01*
X-0006854Y0199705D01*
Y0198295D01*
X-0006489Y0196933D01*
X-0005785Y0195712D01*
X-000541Y0195337D01*
X-0004858Y0193137D01*
X-0005194Y0190993D01*
X-0005478Y0190466D01*
X-0006243Y019012D01*
X-0007204Y0190411D01*
X-0008765Y0191245D01*
X-0010132Y0192368D01*
X-0011255Y0193736D01*
X-0012089Y0195296D01*
X-0012603Y0196989D01*
X-0012776Y019875D01*
X-0012757Y0198942D01*
X-0012746Y0198998D01*
X-0012663Y0262498D01*
X-0012664Y0262499D01*
X-0012663Y02625D01*
Y0279541D01*
Y0285716D01*
X-001039Y0286823D01*
X-0008726Y0287055D01*
X-0008521Y028685D01*
X-0007794Y028643D01*
X-0006983Y0286213D01*
X-0006143D01*
X-0005332Y028643D01*
X-0004605Y028685D01*
X-0004011Y0287443D01*
X-0003591Y0288171D01*
X-0003374Y0288982D01*
X-0003216Y0289633D01*
X-0002166Y0291397D01*
X-000165Y029207D01*
X-0000407Y0292991D01*
X-0000316Y0293015D01*
X-0000225Y0293068D01*
X0003712Y0292512D01*
X0004897Y0292512D01*
X0012453D01*
Y0294984D01*
X0029D01*
X0029833Y0295093D01*
X0030608Y0295414D01*
X0030926Y0295382D01*
D02*
G37*
G36*
X0310413Y0302882D02*
X0312251Y0301822D01*
X0312254Y02795D01*
Y0279442D01*
X0309887Y0276485D01*
X0309887Y0276485D01*
Y0276485D01*
X0308317Y0276279D01*
X0308239Y0276567D01*
X0307535Y0277788D01*
X0306538Y0278784D01*
X0305317Y0279489D01*
X0303955Y0279854D01*
X0302545D01*
X0301183Y0279489D01*
X0299962Y0278784D01*
X0298966Y0277788D01*
X0298261Y0276567D01*
X0297896Y0275205D01*
Y0273795D01*
X0298261Y0272433D01*
X0298966Y0271212D01*
X0299962Y0270216D01*
X0301183Y0269511D01*
X0302545Y0269146D01*
X0303955D01*
X0305317Y0269511D01*
X0306538Y0270216D01*
X0307535Y0271212D01*
X0308239Y0272433D01*
X0308317Y0272721D01*
X0309887Y0272515D01*
Y0272515D01*
X0309887Y0272515D01*
X0312254Y0269558D01*
Y0262459D01*
Y0203092D01*
Y0201297D01*
X0308317Y0200779D01*
X0308239Y0201067D01*
X0307535Y0202288D01*
X0306538Y0203285D01*
X0305317Y0203989D01*
X0303955Y0204354D01*
X0302545D01*
X0301183Y0203989D01*
X0299962Y0203285D01*
X0298966Y0202288D01*
X0298261Y0201067D01*
X0297896Y0199705D01*
Y0198295D01*
X0298261Y0196933D01*
X0298966Y0195712D01*
X0299962Y0194715D01*
X0301183Y0194011D01*
X0301479Y0193931D01*
X030096Y0189994D01*
X02705D01*
X0269829Y0189861D01*
X026926Y0189481D01*
X0268879Y0188911D01*
X0268746Y018824D01*
Y01095D01*
Y003076D01*
X0268879Y0030088D01*
X026926Y0029519D01*
X0269829Y0029139D01*
X02705Y0029006D01*
X0312006D01*
Y-001121D01*
X0308069Y-0011729D01*
X0307989Y-0011433D01*
X0307284Y-0010212D01*
X0306288Y-0009216D01*
X0305067Y-0008511D01*
X0303705Y-0008146D01*
X0302295D01*
X0300933Y-0008511D01*
X0299712Y-0009216D01*
X0298715Y-0010212D01*
X0298011Y-0011433D01*
X0297646Y-0012795D01*
Y-0014205D01*
X0298011Y-0015567D01*
X0298715Y-0016788D01*
X0299712Y-0017785D01*
X0300933Y-0018489D01*
X0302295Y-0018854D01*
X0302185Y-0022746D01*
X0071292D01*
X0070322Y-0020566D01*
X0070199Y-0018809D01*
X0070374Y-0018674D01*
X0073587Y-0015462D01*
X007609Y-0014098D01*
X0076187Y-0014072D01*
X0077011Y-0013597D01*
X0077508Y-0013478D01*
X00795Y-0013362D01*
X0081492Y-0013478D01*
X008199Y-0013597D01*
X0082813Y-0014072D01*
X0083539Y-0014267D01*
X0083925Y-001437D01*
X0085075D01*
X0085461Y-0014267D01*
X0086187Y-0014072D01*
X0087011Y-0013597D01*
X0087508Y-0013478D01*
X00895Y-0013362D01*
X0091492Y-0013478D01*
X0091989Y-0013597D01*
X0092813Y-0014072D01*
X0093539Y-0014267D01*
X0093925Y-001437D01*
X0095075D01*
X0095461Y-0014267D01*
X0096187Y-0014072D01*
X009701Y-0013597D01*
X0097508Y-0013478D01*
X00995Y-0013362D01*
X0101492Y-0013478D01*
X0101989Y-0013597D01*
X0102813Y-0014072D01*
X0103925Y-001437D01*
X0103925Y-001437D01*
X0105075Y-001437D01*
X0105075Y-001437D01*
X0106187Y-0014072D01*
X0107183Y-0013497D01*
X010721Y-001347D01*
X0108297Y-0013217D01*
X011176Y-0013315D01*
X0112021Y-001336D01*
X0112898Y-0013867D01*
X0113954Y-001415D01*
X0113954Y-001415D01*
X0114D01*
Y-001D01*
Y-000585D01*
X0113954D01*
X0113954Y-000585D01*
X0112898Y-0006133D01*
X0112021Y-000664D01*
X011176Y-0006685D01*
X0108297Y-0006783D01*
X010721Y-000653D01*
X0107183Y-0006503D01*
X0106187Y-0005928D01*
X0105075Y-000563D01*
X0105075Y-000563D01*
X0103925Y-000563D01*
X0103925Y-000563D01*
X0102813Y-0005928D01*
X0101989Y-0006403D01*
X0101492Y-0006522D01*
X00995Y-0006638D01*
X0097508Y-0006522D01*
X009701Y-0006403D01*
X0096187Y-0005928D01*
X0095461Y-0005733D01*
X0095075Y-000563D01*
X0093925D01*
X0093539Y-0005733D01*
X0092813Y-0005928D01*
X0091989Y-0006403D01*
X0091492Y-0006522D01*
X00895Y-0006638D01*
X0087508Y-0006522D01*
X0087011Y-0006403D01*
X0086187Y-0005928D01*
X0085461Y-0005733D01*
X0085075Y-000563D01*
X0083925D01*
X0083539Y-0005733D01*
X0082813Y-0005928D01*
X008199Y-0006403D01*
X0081492Y-0006522D01*
X00795Y-0006638D01*
X0077508Y-0006522D01*
X0077011Y-0006403D01*
X0076187Y-0005928D01*
X0075075Y-000563D01*
X0075075Y-000563D01*
X0073925Y-000563D01*
X0073925Y-000563D01*
X0072813Y-0005928D01*
X0071817Y-0006503D01*
X007179Y-000653D01*
X0070846Y-0006749D01*
X0069727Y-0005858D01*
X0069175Y-0002551D01*
X0069895Y-0001659D01*
X0090183D01*
X0091015Y-0001549D01*
X0091791Y-0001228D01*
X0092457Y-0000717D01*
X0100457Y0007283D01*
X0134955D01*
X0135802Y0006836D01*
X0138327Y00045D01*
X0138451Y0003565D01*
X0138812Y0002693D01*
X0139386Y0001945D01*
X0140079Y0001413D01*
X0140156Y0000601D01*
X0140222Y-0001732D01*
X0140179Y-0002371D01*
X0140105Y-0002671D01*
X0139543Y-0003102D01*
X0139004Y-0003804D01*
X0138665Y-0004622D01*
X0138616Y-0005D01*
X0150384D01*
X0150335Y-0004622D01*
X0149996Y-0003804D01*
X0149457Y-0003102D01*
X0148895Y-0002671D01*
X0148821Y-0002371D01*
X0148778Y-0001732D01*
X0148844Y0000601D01*
X0148921Y0001413D01*
X0149614Y0001945D01*
X0150189Y0002693D01*
X0150549Y0003565D01*
X0150673Y00045D01*
X0153198Y0006836D01*
X0154045Y0007283D01*
X0213695D01*
X0214542Y0006836D01*
X0217068Y00045D01*
X0217191Y0003565D01*
X0217552Y0002693D01*
X0218126Y0001945D01*
X0218819Y0001413D01*
X0218896Y0000601D01*
X0218962Y-0001732D01*
X0218919Y-0002371D01*
X0218846Y-0002671D01*
X0218283Y-0003102D01*
X0217744Y-0003804D01*
X0217406Y-0004622D01*
X0217356Y-0005D01*
X0229125D01*
X0229075Y-0004622D01*
X0228736Y-0003804D01*
X0228197Y-0003102D01*
X0227635Y-0002671D01*
X0227562Y-0002371D01*
X0227518Y-0001732D01*
X0227584Y0000601D01*
X0227661Y0001413D01*
X0228354Y0001945D01*
X0228929Y0002693D01*
X022929Y0003565D01*
X0229413Y00045D01*
X0231938Y0006836D01*
X0232786Y0007283D01*
X0238073D01*
X0241858Y0006917D01*
X024275Y0003567D01*
X0242828Y000298D01*
X0242312Y0002307D01*
X024195Y0001435D01*
X0241827Y00005D01*
X024195Y-0000435D01*
X0242312Y-0001307D01*
X0242886Y-0002055D01*
X0243634Y-0002629D01*
X0244506Y-000299D01*
X0245441Y-0003114D01*
X0250559D01*
X0251494Y-000299D01*
X0252366Y-0002629D01*
X0253114Y-0002055D01*
X0253689Y-0001307D01*
X0254049Y-0000435D01*
X0254173Y00005D01*
X0254049Y0001435D01*
X0253689Y0002307D01*
X0253172Y000298D01*
X0253223Y0003361D01*
X0254142Y0006917D01*
X0255757Y0008226D01*
X0257015Y0009484D01*
X0261257Y0013726D01*
X0261768Y0014392D01*
X0262089Y0015168D01*
X0262199Y0016D01*
Y0076D01*
X0262089Y0076832D01*
X0261768Y0077608D01*
X0261257Y0078274D01*
X0246257Y0093274D01*
X0245591Y0093786D01*
X0244815Y0094107D01*
X0243983Y0094217D01*
X0194633D01*
X0193002Y0098154D01*
X0201652Y0106803D01*
X0202136Y0106933D01*
X0202984Y0107423D01*
X0203677Y0108116D01*
X0204167Y0108964D01*
X020442Y010991D01*
Y011089D01*
X0204167Y0111836D01*
X0203677Y0112684D01*
X0203615Y0112747D01*
X0204204Y0115346D01*
X0205032Y0116683D01*
X0230083D01*
X0230915Y0116793D01*
X0231691Y0117114D01*
X0232357Y0117626D01*
X0245757Y0131026D01*
X0246268Y0131692D01*
X0246589Y0132467D01*
X0246699Y01333D01*
Y02012D01*
X0246589Y0202032D01*
X0246268Y0202808D01*
X0245757Y0203474D01*
X0221779Y0227452D01*
X022165Y0227936D01*
X022116Y0228784D01*
X0220467Y0229477D01*
X0219619Y0229967D01*
X0218672Y0230221D01*
X0217693D01*
X0216746Y0229967D01*
X0215898Y0229477D01*
X0215206Y0228784D01*
X0214716Y0227936D01*
X0214462Y022699D01*
Y022601D01*
X0214716Y0225064D01*
X0215206Y0224216D01*
X0215898Y0223523D01*
X0216746Y0223033D01*
X021723Y0222903D01*
X0240266Y0199868D01*
Y0196209D01*
X0236629Y0194703D01*
X0162279Y0269053D01*
X0162494Y0270357D01*
X016365Y0271244D01*
X0166565Y027245D01*
X01675Y0272327D01*
X0168435Y027245D01*
X0169307Y0272812D01*
X0170055Y0273386D01*
X0170372Y0273799D01*
X01725Y0273977D01*
X0174628Y0273799D01*
X0174945Y0273386D01*
X0175693Y0272812D01*
X0176565Y027245D01*
X01775Y0272327D01*
X0178435Y027245D01*
X0179307Y0272812D01*
X0180055Y0273386D01*
X0180372Y0273799D01*
X01825Y0273977D01*
X0184628Y0273799D01*
X0184945Y0273386D01*
X0185693Y0272812D01*
X0186565Y027245D01*
X01875Y0272327D01*
X0188435Y027245D01*
X0189307Y0272812D01*
X0190055Y0273386D01*
X0190372Y0273799D01*
X01925Y0273977D01*
X0194628Y0273799D01*
X0194945Y0273386D01*
X0195693Y0272812D01*
X0196565Y027245D01*
X01975Y0272327D01*
X0198435Y027245D01*
X0199307Y0272812D01*
X0200055Y0273386D01*
X0200372Y0273799D01*
X02025Y0273977D01*
X0204628Y0273799D01*
X0204945Y0273386D01*
X0205693Y0272812D01*
X0206565Y027245D01*
X02075Y0272327D01*
X0208435Y027245D01*
X0209307Y0272812D01*
X0210055Y0273386D01*
X0210347Y0273765D01*
X0211586Y027375D01*
X0214283Y0272668D01*
Y0272083D01*
X0214393Y027125D01*
X0214714Y0270474D01*
X0215226Y0269808D01*
X0217808Y0267226D01*
X0218474Y0266714D01*
X021925Y0266393D01*
X0220083Y0266283D01*
X0250483D01*
X0251315Y0266393D01*
X0252091Y0266714D01*
X0252757Y0267226D01*
X0269274Y0283743D01*
X0269786Y0284409D01*
X0270107Y0285185D01*
X0270162Y0285604D01*
X0271683Y0286625D01*
X0273823Y0287511D01*
X0279408Y0281926D01*
X0280074Y0281414D01*
X028085Y0281093D01*
X0281683Y0280983D01*
X0295083D01*
X0295915Y0281093D01*
X0296691Y0281414D01*
X0297357Y0281926D01*
X0303857Y0288426D01*
X0304368Y0289092D01*
X030469Y0289867D01*
X0304799Y02907D01*
Y0292512D01*
X0305953D01*
Y0298572D01*
X0306558Y0300766D01*
X0307978Y0302938D01*
X0308314Y0303274D01*
X0310413Y0302882D01*
D02*
G37*
G36*
X0197196Y0115346D02*
X0197785Y0112747D01*
X0197723Y0112684D01*
X0197233Y0111836D01*
X0197103Y0111352D01*
X0163226Y0077474D01*
X0162714Y0076808D01*
X0162393Y0076033D01*
X0162284Y00752D01*
Y0072832D01*
X0159586Y007175D01*
X0158346Y0071735D01*
X0158055Y0072114D01*
X0157307Y0072689D01*
X0156435Y0073049D01*
X01555Y0073173D01*
X0154565Y0073049D01*
X0153693Y0072689D01*
X0152945Y0072114D01*
X0152413Y0071421D01*
X0151601Y0071344D01*
X0149268Y0071278D01*
X0148629Y0071321D01*
X0148329Y0071395D01*
X0147898Y0071957D01*
X0147196Y0072496D01*
X0146378Y0072835D01*
X0146Y0072885D01*
Y0067D01*
Y0061115D01*
X0146378Y0061165D01*
X0147196Y0061504D01*
X0147898Y0062043D01*
X0148329Y0062605D01*
X0148629Y0062678D01*
X014868Y0062682D01*
X0152284Y0061744D01*
Y00587D01*
X0152393Y0057867D01*
X0152399Y0057854D01*
X0151298Y0055231D01*
X0150297Y0053917D01*
X0132279D01*
X0131446Y0053807D01*
X0130671Y0053486D01*
X0130004Y0052974D01*
X0128836Y0051806D01*
X0125199Y0053313D01*
Y0068857D01*
X0128393Y007205D01*
X0131076Y0070896D01*
X013195Y0070039D01*
X0131886Y0069559D01*
Y0064441D01*
X0132009Y0063506D01*
X0132371Y0062634D01*
X0132945Y0061886D01*
X0133693Y0061312D01*
X0134565Y006095D01*
X01355Y0060827D01*
X0136435Y006095D01*
X0137307Y0061312D01*
X0138055Y0061886D01*
X0138587Y0062579D01*
X0139399Y0062656D01*
X0141732Y0062722D01*
X0142371Y0062678D01*
X0142671Y0062605D01*
X0143102Y0062043D01*
X0143804Y0061504D01*
X0144622Y0061165D01*
X0145Y0061115D01*
Y0067D01*
Y0072885D01*
X0144622Y0072835D01*
X0143804Y0072496D01*
X0143102Y0071957D01*
X0142671Y0071395D01*
X0142371Y0071321D01*
X0141732Y0071278D01*
X0139399Y0071344D01*
X0138587Y0071421D01*
X0138055Y0072114D01*
X0137307Y0072689D01*
X0136435Y0073049D01*
X01355Y0073173D01*
X013502Y0073109D01*
X0134163Y0073983D01*
X0133009Y0076667D01*
X0173026Y0116683D01*
X0196368D01*
X0197196Y0115346D01*
D02*
G37*
G36*
X0255766Y0074668D02*
Y0058583D01*
X0244358D01*
Y0058217D01*
X0230083D01*
X022925Y0058107D01*
X0228474Y0057786D01*
X0227808Y0057274D01*
X0220908Y0050374D01*
X0220397Y0049708D01*
X0220076Y0048932D01*
X0219966Y00481D01*
Y0048083D01*
X0217098D01*
Y004202D01*
X0217098Y0040917D01*
Y0038083D01*
X0217098Y003698D01*
Y0030917D01*
X0229382D01*
Y003698D01*
X0229382Y0038083D01*
Y0040917D01*
X0229382Y004202D01*
Y0048083D01*
X0229382D01*
X0229079Y0048814D01*
X0231516Y0051784D01*
X0244358D01*
Y0051417D01*
X0244582D01*
X024538Y0049747D01*
X024565Y004748D01*
X0245543Y0047398D01*
X0245004Y0046696D01*
X0244665Y0045878D01*
X0244616Y00455D01*
X02505D01*
Y0045D01*
X0251D01*
Y0041609D01*
X0253059D01*
X0255314Y0039086D01*
X0255766Y0038221D01*
Y0027347D01*
X0254142Y0024083D01*
X0241858D01*
Y0023717D01*
X0206615D01*
X0186785Y0043547D01*
X0188416Y0047484D01*
X0196583D01*
X0197415Y0047593D01*
X0198191Y0047914D01*
X0198857Y0048426D01*
X0209157Y0058726D01*
X0209668Y0059392D01*
X020999Y0060167D01*
X0210099Y0061D01*
Y0066113D01*
X0210993Y0067085D01*
X0213426Y006853D01*
X0213812Y0068609D01*
X0213951Y0068621D01*
X0214582Y0068538D01*
X0215517Y0068661D01*
X0216388Y0069022D01*
X0217053Y0069532D01*
X0218094Y0070133D01*
X0219159Y0071198D01*
X0219912Y0072503D01*
X0220302Y0073958D01*
Y0075464D01*
X0219912Y0076919D01*
X0219159Y0078223D01*
X0218094Y0079288D01*
X0217053Y0079889D01*
X0216388Y0080399D01*
X0215517Y008076D01*
X0214582Y0080883D01*
X0213646Y008076D01*
X0212775Y0080399D01*
X021211Y0079889D01*
X0211069Y0079288D01*
X0210004Y0078223D01*
X0209251Y0076919D01*
X0209067Y0076232D01*
X0206803Y0075121D01*
X0204924Y0074807D01*
X0202357Y0077374D01*
X0201691Y0077886D01*
X0200915Y0078207D01*
X0200083Y0078316D01*
X0186616D01*
X0185119Y0080997D01*
X0184946Y0082214D01*
X0190515Y0087783D01*
X024265D01*
X0255766Y0074668D01*
D02*
G37*
G36*
X0118766Y0064573D02*
Y0056875D01*
X011787Y0055863D01*
X0115046Y005415D01*
X0115D01*
Y005D01*
X0114D01*
Y005415D01*
X0113954D01*
X0112898Y0053867D01*
X0111952Y005332D01*
X0110869Y0053146D01*
X0108509Y005463D01*
X0108146Y0059097D01*
X0115129Y006608D01*
X0118766Y0064573D01*
D02*
G37*
%LPC*%
G36*
X0144284Y0339996D02*
X0143229Y0339713D01*
X0142283Y0339167D01*
X014151Y0338394D01*
X0140964Y0337448D01*
X0140681Y0336393D01*
Y0336346D01*
X0144331D01*
Y0339996D01*
X0144284D01*
X0144284Y0339996D01*
D02*
G37*
G36*
X0223536Y0334091D02*
X0222481Y0333808D01*
X0221535Y0333261D01*
X0220762Y0332489D01*
X0220216Y0331543D01*
X0219933Y0330487D01*
Y0330441D01*
X0223583D01*
Y0334091D01*
X0223536D01*
X0223536Y0334091D01*
D02*
G37*
G36*
X0065036D02*
X0063981Y0333808D01*
X0063035Y0333261D01*
X0062262Y0332489D01*
X0061716Y0331543D01*
X0061433Y0330487D01*
Y0330441D01*
X0065083D01*
Y0334091D01*
X0065036D01*
X0065036Y0334091D01*
D02*
G37*
G36*
X0034705Y0335476D02*
X0031795D01*
X0030768Y0335476D01*
X0026205D01*
Y0327524D01*
X0030768D01*
X0031795Y0327524D01*
X0034705D01*
X0035732Y0327524D01*
X0040295D01*
Y0335476D01*
X0035732D01*
X0034705Y0335476D01*
D02*
G37*
G36*
X-0002464Y0322685D02*
X-0003519Y0322402D01*
X-0004465Y0321856D01*
X-0005238Y0321083D01*
X-0005784Y0320137D01*
X-0006067Y0319082D01*
Y0319035D01*
X-0002417D01*
Y0322685D01*
X-0002464D01*
X-0002464Y0322685D01*
D02*
G37*
G36*
X-0000795Y0279854D02*
X-0002205D01*
X-0003567Y0279489D01*
X-0004788Y0278784D01*
X-0005785Y0277788D01*
X-0006489Y0276567D01*
X-0006854Y0275205D01*
Y0273795D01*
X-0006489Y0272433D01*
X-0005785Y0271212D01*
X-0004788Y0270216D01*
X-0003567Y0269511D01*
X-0002205Y0269146D01*
X-0000795D01*
X0000567Y0269511D01*
X0001788Y0270216D01*
X0002785Y0271212D01*
X0003489Y0272433D01*
X0003854Y0273795D01*
Y0275205D01*
X0003489Y0276567D01*
X0002785Y0277788D01*
X0001788Y0278784D01*
X0000567Y0279489D01*
X-0000795Y0279854D01*
D02*
G37*
G36*
X0084584Y0152584D02*
X0083649Y0152461D01*
X0082777Y01521D01*
X0082112Y015159D01*
X0081071Y0150989D01*
X0080006Y0149924D01*
X0079253Y014862D01*
X0078863Y0147165D01*
Y0145659D01*
X0079253Y0144204D01*
X0080006Y0142899D01*
X0081071Y0141834D01*
X0082112Y0141233D01*
X0082777Y0140723D01*
X0083649Y0140362D01*
X0084584Y0140239D01*
X0085519Y0140362D01*
X0086391Y0140723D01*
X0087055Y0141233D01*
X0088096Y0141834D01*
X0089161Y0142899D01*
X0089914Y0144204D01*
X0090304Y0145659D01*
Y0147165D01*
X0089914Y014862D01*
X0089161Y0149924D01*
X0088096Y0150989D01*
X0087055Y015159D01*
X0086391Y01521D01*
X0085519Y0152461D01*
X0084584Y0152584D01*
D02*
G37*
G36*
Y0081718D02*
X0083649Y0081595D01*
X0082777Y0081234D01*
X0082112Y0080724D01*
X0081071Y0080123D01*
X0080006Y0079058D01*
X0079253Y0077753D01*
X0078863Y0076298D01*
Y0074792D01*
X0079253Y0073337D01*
X0080006Y0072033D01*
X0081071Y0070968D01*
X0082112Y0070367D01*
X0082777Y0069857D01*
X0083649Y0069496D01*
X0084584Y0069373D01*
X0085519Y0069496D01*
X0086391Y0069857D01*
X0087055Y0070367D01*
X0088096Y0070968D01*
X0089161Y0072033D01*
X0089914Y0073337D01*
X0090304Y0074792D01*
Y0076298D01*
X0089914Y0077753D01*
X0089161Y0079058D01*
X0088096Y0080123D01*
X0087055Y0080724D01*
X0086391Y0081234D01*
X0085519Y0081595D01*
X0084584Y0081718D01*
D02*
G37*
G36*
X0115046Y-000585D02*
X0115046Y-000585D01*
X0115D01*
Y-00095D01*
X011865D01*
Y-0009454D01*
X0118367Y-0008398D01*
X0117821Y-0007452D01*
X0117048Y-0006679D01*
X0116102Y-0006133D01*
X0115046Y-000585D01*
D02*
G37*
G36*
X0229125Y-0006D02*
X022374D01*
Y-0008891D01*
X0225799D01*
X0226677Y-0008776D01*
X0227495Y-0008437D01*
X0228197Y-0007898D01*
X0228736Y-0007196D01*
X0229075Y-0006378D01*
X0229125Y-0006D01*
D02*
G37*
G36*
X022274D02*
X0217356D01*
X0217406Y-0006378D01*
X0217744Y-0007196D01*
X0218283Y-0007898D01*
X0218986Y-0008437D01*
X0219803Y-0008776D01*
X0220681Y-0008891D01*
X022274D01*
Y-0006D01*
D02*
G37*
G36*
X0150384D02*
X0145D01*
Y-0008891D01*
X0147059D01*
X0147937Y-0008776D01*
X0148755Y-0008437D01*
X0149457Y-0007898D01*
X0149996Y-0007196D01*
X0150335Y-0006378D01*
X0150384Y-0006D01*
D02*
G37*
G36*
X0144D02*
X0138616D01*
X0138665Y-0006378D01*
X0139004Y-0007196D01*
X0139543Y-0007898D01*
X0140245Y-0008437D01*
X0141063Y-0008776D01*
X0141941Y-0008891D01*
X0144D01*
Y-0006D01*
D02*
G37*
G36*
X011865Y-00105D02*
X0115D01*
Y-001415D01*
X0115046D01*
X0115046Y-001415D01*
X0116102Y-0013867D01*
X0117048Y-001332D01*
X0117821Y-0012548D01*
X0118367Y-0011602D01*
X011865Y-0010546D01*
Y-00105D01*
D02*
G37*
G36*
X025Y00445D02*
X0244616D01*
X0244665Y0044122D01*
X0245004Y0043304D01*
X0245543Y0042602D01*
X0246245Y0042063D01*
X0247063Y0041724D01*
X0247941Y0041609D01*
X025D01*
Y00445D01*
D02*
G37*
%LPD*%
D23*
X00875Y02425D02*
X0097083D01*
X0151583Y0188D01*
X0184Y03365D02*
X0194D01*
X0181Y03335D02*
X0184Y03365D01*
X0181Y033D02*
Y03335D01*
Y03221D02*
Y033D01*
X0117Y03166D02*
Y033D01*
X01076D02*
X0117D01*
X0256592Y0290492D02*
X02585Y0305D01*
X01985Y0298983D02*
X0206991Y0290492D01*
X0256592D01*
X01985Y0298983D02*
Y0304D01*
X0155297Y0296397D02*
X0181Y03221D01*
X0117Y03166D02*
X0128747Y0304853D01*
Y0302733D02*
X0135083Y0296397D01*
X0155297D01*
X0128747Y0302733D02*
Y0304853D01*
X01021Y03355D02*
X01076Y033D01*
X01005Y0298217D02*
Y0304D01*
X00375Y0295383D02*
Y0303D01*
X0095083Y02928D02*
X01005Y0298217D01*
X00375Y0295383D02*
X0095083Y02928D01*
X0240483Y03371D02*
X0254083Y03235D01*
X0231242Y03371D02*
X0240483D01*
X0286618Y03235D02*
X0291583Y0318535D01*
X0254083Y03235D02*
X0286618D01*
X0224083Y0329941D02*
X0231242Y03371D01*
X0207624Y03464D02*
X0224083Y0329941D01*
X0155384Y03464D02*
X0207624D01*
X0144831Y0335846D02*
X0155384Y03464D01*
X0136677Y0344D02*
X0144831Y0335846D01*
X0139Y01505D02*
Y016D01*
X01445Y-00055D02*
X022324D01*
X0079642Y0344D02*
X0136677D01*
X0065583Y0329941D02*
X0079642Y0344D01*
X0057795Y0308287D02*
X0065583D01*
X0046924Y0329941D02*
X0065583D01*
X0048883Y03172D02*
X0057795Y0308287D01*
X0041883Y03249D02*
X0046924Y0329941D01*
X0004447Y03249D02*
X0010847D01*
X0018547Y03172D01*
X-0001917Y0318535D02*
X0004447Y03249D01*
X0018547Y03172D02*
X0048883D01*
X0010847Y03249D02*
X0041883D01*
X01341Y01649D02*
X0139Y016D01*
X0083983Y01649D02*
X01341D01*
X0119Y-00055D02*
X01445D01*
X01145Y-001D02*
X0119Y-00055D01*
X01081Y-00036D02*
X01145Y-001D01*
X00709Y-00036D02*
X01081D01*
X0077883Y01985D02*
X0081883Y02025D01*
X00875D01*
X0077883Y0171D02*
X0083983Y01649D01*
X0077883Y0171D02*
Y01985D01*
X00645Y-001D02*
X00709Y-00036D01*
X0223183Y00445D02*
Y00481D01*
X0086983Y00072D02*
X0110466Y0030684D01*
X0086498Y0006715D02*
X0086983Y00072D01*
X0075583Y0308287D02*
X0092D01*
X0267Y0298883D02*
Y0305D01*
Y0286017D02*
Y0298883D01*
X0035783Y01227D02*
X0114583D01*
X0032783Y01197D02*
X0035783Y01227D01*
X01375Y02735D02*
Y02785D01*
X01343Y02703D02*
X01375Y02735D01*
X0071383Y02703D02*
X01343D01*
X0070083Y0269D02*
X0071383Y02703D01*
X0029Y02982D02*
Y0303D01*
X0009401Y02982D02*
X0029D01*
X0008083Y0296882D02*
X0009401Y02982D01*
X0069531Y02785D02*
X00875D01*
X0063683Y0272652D02*
X0069531Y02785D01*
X0063683Y02649D02*
Y0272652D01*
Y02649D02*
X0070083Y02585D01*
X0079583Y02646D01*
X0154783D01*
X0233083Y01863D01*
Y01717D02*
Y01863D01*
X0220083Y01587D02*
X0233083Y01717D01*
X01718Y01587D02*
X0220083D01*
X0169Y01505D02*
X01718Y01587D01*
X01655Y0067D02*
Y00752D01*
X02007Y01104D01*
X0218183Y02265D02*
X0243483Y02012D01*
Y01333D02*
Y02012D01*
X0230083Y01199D02*
X0243483Y01333D01*
X0171694Y01199D02*
X0230083D01*
X0121983Y0070189D02*
X0171694Y01199D01*
X0121983Y0048D02*
Y0070189D01*
X0117583Y00436D02*
X0121983Y0048D01*
X00709Y00436D02*
X0117583D01*
X00645Y005D02*
X00709Y00436D01*
X0084483Y000873D02*
Y00097D01*
Y000873D02*
X0086498Y0006715D01*
X0110466Y0030684D02*
X0112263D01*
X0132279Y00507D01*
X0196583D01*
X0206883Y0061D01*
Y00683D01*
X0200083Y00751D02*
X0206883Y00683D01*
X01855Y00751D02*
X0200083D01*
X01855Y0067D02*
Y00751D01*
X00945Y005D02*
X01759Y01314D01*
X0223683D01*
X0238283Y0146D01*
Y01885D01*
X01575Y0269283D02*
X0238283Y01885D01*
X01575Y0269283D02*
Y02785D01*
X0086934Y03176D02*
X0097283D01*
X0106519Y0308363D01*
Y0295144D02*
Y0308363D01*
Y0295144D02*
X01175Y0284163D01*
Y02785D02*
Y0284163D01*
X01755Y0067D02*
Y0077317D01*
X0189183Y0091D01*
X0243983D01*
X0258983Y0076D01*
Y0016D02*
Y0076D01*
X0253483Y00105D02*
X0258983Y0016D01*
X0248Y00105D02*
X0253483D01*
X0205283Y00205D02*
X0248D01*
X0181283Y00445D02*
X0205283Y00205D01*
X01445Y00445D02*
X0181283D01*
X0099125Y00105D02*
X0248D01*
X0090183Y0001558D02*
X0099125Y00105D01*
X0066058Y0001558D02*
X0090183D01*
X00545Y-001D02*
X0066058Y0001558D01*
X01555Y00587D02*
Y0067D01*
Y00587D02*
X0190083D01*
X0198083Y00667D01*
X0179Y0143417D02*
Y01505D01*
X0091921Y0056339D02*
X0179Y0143417D01*
X0041Y0056339D02*
X0091921D01*
X0038161Y00535D02*
X0041Y0056339D01*
X0038161Y00437D02*
Y00535D01*
Y00437D02*
X0042683D01*
X0077583Y00088D01*
X0129Y0126D02*
Y01505D01*
X01183Y01153D02*
X0129Y0126D01*
X0091883Y01153D02*
X01183D01*
X0033004Y0056421D02*
X0091883Y01153D01*
X0033004Y-0011321D02*
Y0056421D01*
Y-0011321D02*
X0038083Y-00164D01*
X00681D01*
X00745Y-001D01*
X0081142Y03355D02*
X00936D01*
X0075583Y0329941D02*
X0081142Y03355D01*
X01875Y02785D02*
Y0284783D01*
X0183783Y02885D02*
X01875Y0284783D01*
X012213Y02885D02*
X0183783D01*
X0111677Y0298953D02*
X012213Y02885D01*
X0111677Y0298953D02*
Y0311206D01*
X0096283Y03266D02*
X0111677Y0311206D01*
X0092883Y03266D02*
X0096283D01*
X01975Y02785D02*
Y0284983D01*
X0187083Y02954D02*
X01975Y0284983D01*
X0162383Y02954D02*
X0187083D01*
X0044483Y02708D02*
X0060783Y02871D01*
X01039D01*
X01075Y02835D01*
Y02785D02*
Y02835D01*
X0079383Y02225D02*
X00875D01*
X0079383D02*
Y02562D01*
X0082583Y02594D01*
X0147275D01*
X01775Y0229175D01*
Y0178106D02*
Y0229175D01*
X00875Y02325D02*
X0098583D01*
X0135783Y01953D01*
X00875Y02525D02*
X0126983D01*
X01575Y0221983D01*
Y0178106D02*
Y0221983D01*
X00875Y01925D02*
X01207D01*
X01275Y01857D01*
Y0178106D02*
Y01857D01*
X0092Y0304D02*
Y0308287D01*
X01475Y01702D02*
Y0178106D01*
Y01702D02*
X0159Y01587D01*
Y01505D02*
Y01587D01*
X0149Y01505D02*
Y01584D01*
X01375Y01699D02*
X0149Y01584D01*
X01375Y01699D02*
Y0178106D01*
X0154831Y0309803D02*
Y0314193D01*
X0146583Y0301555D02*
X0154831Y0309803D01*
X0137583Y0301555D02*
X0146583D01*
X0134983Y0304155D02*
X0137583Y0301555D01*
X0134983Y0304155D02*
Y0307117D01*
X01255Y03166D02*
X0134983Y0307117D01*
X01255Y03166D02*
Y033D01*
X0250483Y02695D02*
X0267Y0286017D01*
X0220083Y02695D02*
X0250483D01*
X02175Y0272083D02*
X0220083Y02695D01*
X02175Y0272083D02*
Y02785D01*
X0290918Y03292D02*
X0301583Y0318535D01*
X0267Y03292D02*
X0290918D01*
X0267D02*
Y0334D01*
X0230083Y0055D02*
X02505D01*
X0223183Y00481D02*
X0230083Y0055D01*
X0223183Y00445D02*
X022324D01*
X0267Y0298883D02*
X0281683Y02842D01*
X0295083D01*
X0301583Y02907D01*
Y0296882D01*
X0234083Y0305149D02*
Y0308287D01*
X0224583Y0295649D02*
X0234083Y0305149D01*
X0214151Y0295649D02*
X0224583D01*
X02106Y02992D02*
X0214151Y0295649D01*
X0207Y02992D02*
X02106D01*
X0207D02*
Y0304D01*
X01725Y033D02*
Y03348D01*
X0155877D02*
X01725D01*
X0154831Y0335846D02*
X0155877Y03348D01*
D24*
X00875Y02525D02*
D03*
Y02425D02*
D03*
Y02325D02*
D03*
Y02225D02*
D03*
Y02125D02*
D03*
Y02025D02*
D03*
Y01925D02*
D03*
X02505Y0045D02*
D03*
X022324Y-00055D02*
D03*
X01445D02*
D03*
X022324Y00045D02*
D03*
X01445D02*
D03*
Y00345D02*
D03*
Y00445D02*
D03*
X0248Y00005D02*
D03*
D25*
X00875Y01825D02*
D03*
X0248Y00105D02*
D03*
X022324Y00445D02*
D03*
Y00345D02*
D03*
X0248Y00205D02*
D03*
X02505Y0055D02*
D03*
D26*
X01675Y0178106D02*
D03*
X01455Y0067D02*
D03*
X0139Y01505D02*
D03*
X00975Y02785D02*
D03*
X0084584Y0075545D02*
D03*
Y0146412D02*
D03*
X0214582Y0074711D02*
D03*
Y0145577D02*
D03*
X00975Y0178106D02*
D03*
X01075D02*
D03*
X01175D02*
D03*
X01275D02*
D03*
X01375D02*
D03*
X01475D02*
D03*
X01575D02*
D03*
X01775D02*
D03*
X01875D02*
D03*
X01975D02*
D03*
X02075D02*
D03*
X02175D02*
D03*
X02275D02*
D03*
X00875Y02785D02*
D03*
X01075D02*
D03*
X01175D02*
D03*
X01275D02*
D03*
X01375D02*
D03*
X01475D02*
D03*
X01575D02*
D03*
X01675D02*
D03*
X01775D02*
D03*
X01875D02*
D03*
X01975D02*
D03*
X02075D02*
D03*
X02175D02*
D03*
X02275D02*
D03*
X0149Y01505D02*
D03*
X01555Y0067D02*
D03*
X01655D02*
D03*
X0159Y01505D02*
D03*
X01855Y0067D02*
D03*
X01355D02*
D03*
X0129Y01505D02*
D03*
X0179D02*
D03*
D27*
X0194Y03365D02*
D03*
X02585Y0334D02*
D03*
X0181Y033D02*
D03*
X0117D02*
D03*
X02585Y0305D02*
D03*
X01985Y0304D02*
D03*
X01021Y03355D02*
D03*
X01005Y0304D02*
D03*
X00375Y03315D02*
D03*
Y0303D02*
D03*
X0267Y0305D02*
D03*
X0092Y0304D02*
D03*
X01255Y033D02*
D03*
X0207Y0304D02*
D03*
X0029Y0303D02*
D03*
X0267Y0334D02*
D03*
X02025Y03365D02*
D03*
X01725Y033D02*
D03*
X00936Y03355D02*
D03*
X0029Y03315D02*
D03*
D28*
X00875Y0178106D02*
D03*
X01755Y0067D02*
D03*
X0169Y01505D02*
D03*
D29*
X0224083Y0329941D02*
D03*
X0291583Y0318535D02*
D03*
X0224083Y0308287D02*
D03*
X0144831Y0335846D02*
D03*
Y0314193D02*
D03*
X0291583Y0296882D02*
D03*
X0065583Y0329941D02*
D03*
Y0308287D02*
D03*
X-0001917Y0296882D02*
D03*
Y0318535D02*
D03*
X01145Y005D02*
D03*
Y-001D02*
D03*
X00645D02*
D03*
X00545D02*
D03*
Y005D02*
D03*
X00945D02*
D03*
X01045D02*
D03*
X00645D02*
D03*
X00445D02*
D03*
X00845D02*
D03*
X00745D02*
D03*
X0301583Y0318535D02*
D03*
X0234083Y0329941D02*
D03*
X0008083Y0318535D02*
D03*
X0154831Y0335846D02*
D03*
X0075583Y0329941D02*
D03*
X00945Y-001D02*
D03*
X01045D02*
D03*
X00845D02*
D03*
X00745D02*
D03*
D30*
X030325Y02745D02*
D03*
X-00015D02*
D03*
X01805Y0303D02*
D03*
X0119D02*
D03*
X-00015Y0199D02*
D03*
X-00025Y-00135D02*
D03*
X0303D02*
D03*
X030325Y0199D02*
D03*
D31*
X0301583Y0296882D02*
D03*
X0075583Y0308287D02*
D03*
X0154831Y0314193D02*
D03*
X0234083Y0308287D02*
D03*
X0008083Y0296882D02*
D03*
X00445Y-001D02*
D03*
D32*
X0304063Y0307709D02*
D03*
X0289102D02*
D03*
X0221602Y0319114D02*
D03*
X0236563D02*
D03*
X-0004398Y0307709D02*
D03*
X0010563D02*
D03*
X014235Y032502D02*
D03*
X0157311D02*
D03*
X0063102Y0319114D02*
D03*
X0078063D02*
D03*
D33*
X0286937Y0289402D02*
D03*
X0219437Y0300807D02*
D03*
X-0006563Y0289402D02*
D03*
X0140185Y0306713D02*
D03*
X0060937Y0300807D02*
D03*
D34*
X0151583Y0188D02*
D03*
X0114583Y01227D02*
D03*
X0032783Y01197D02*
D03*
X0070083Y0269D02*
D03*
X02007Y01104D02*
D03*
X0218183Y02265D02*
D03*
X0084483Y00097D02*
D03*
X0086934Y03176D02*
D03*
X0198083Y00667D02*
D03*
X0077583Y00088D02*
D03*
X0092883Y03266D02*
D03*
X0162383Y02954D02*
D03*
X0044483Y02708D02*
D03*
X0135783Y01953D02*
D03*
M02*
