M48
;Layer_Color=9474304
;FILE_FORMAT=2:4
INCH,LZ
;TYPE=PLATED
T01F00S00C0.0079
T02F00S00C0.0280
T03F00S00C0.0315
T04F00S00C0.0394
T05F00S00C0.0433
T06F00S00C0.0787
T07F00S00C0.0900
;TYPE=NON_PLATED
T08F00S00C0.0394
T09F00S00C0.0984
%
T01
X022892Y0417
X023742
Y04455
X022892
X029352Y04495
X030202
X030042Y0418
X029192
X031692Y0444
X032542
X037242
X038092
X039392Y04505
X040242
X039842Y0418
X040692
X045842Y0419
X046692
Y0448
X045842
T02
X02775Y01228
X02844Y01237
X03145Y02367
X03357Y03093
X03515Y0302
X040062Y02244
X0398Y01807
X02327Y02337
X02444Y03848
X027Y0383
X028685Y04316
X02928Y04406
X03623Y04094
X04181Y03405
T03
X0198Y041088
X0208
Y043254
X0198
X02655Y042229
X02755
Y044394
X02655
X034475Y044985
X035475
Y042819
X034475
X0424Y042229
X0434
Y044394
X0424
X04915Y043254
X05015
Y041088
X04915
T04
X031742Y029211
X032742
X033742
X034742
X035742
X036742
X037742
X038742
X039742
X040742
X041742
X042742
X030742
X029742
X028742
Y02965
Y03065
Y03165
Y03265
Y03365
Y03465
Y03565
Y03665
Y03925
X029742
X030742
X031742
X032742
X033742
X034742
X035742
X036742
X037742
X038742
X039742
X040742
X041742
X042742
T05
X024442Y0104
X025442
X026442
X027442
X028442
X029442
X030442
X031442
X034442Y01085
Y01185
Y01485
X042316
Y01185
Y01085
X044792Y01145
Y01245
Y01345
X045042Y0159
Y0169
X042316Y01585
X038542Y0181
X037542
X036542
X035542
X034542
X033542
X034442Y01585
X031442Y0164
X032892Y02645
X033892
X034892
X035892
X036892
X037892
X030442Y0164
X029442
X028442
X027442
X026442
X025442
X024442
T06
X019742Y01005
X050292
X019842Y0313
Y03885
X031892Y0417
X038042
X050317Y03885
Y0313
T07
X04145Y018871
Y025958
X02845Y026041
Y018955
T08
X019335Y04034
X026085Y041481
X03401Y042071
X041935Y041481
X048685Y04034
T09
X019552Y042171
X021048
X026302Y043311
X027798
X034227Y043902
X035723
X042152Y043311
X043648
X048902Y042171
X050398
M30
