G04*
G04 #@! TF.GenerationSoftware,Altium Limited,Altium Designer,25.8.1 (18)*
G04*
G04 Layer_Color=16711935*
%FSTAX25Y25*%
%MOIN*%
G70*
G04*
G04 #@! TF.SameCoordinates,DF34DFE3-8D6B-4D56-A59C-19EA502AC89A*
G04*
G04*
G04 #@! TF.FilePolarity,Positive*
G04*
G01*
G75*
%ADD36C,0.00500*%
D36*
X0308Y028763D02*
Y0321094D01*
X0301504Y0327787D02*
X0308Y0321094D01*
X0291661Y0327787D02*
X0301504D01*
X0285165Y0321094D02*
X0291661Y0327787D01*
X0285165Y028763D02*
Y0321094D01*
Y028763D02*
X0308D01*
X0217665Y0299035D02*
X02405D01*
X0217665D02*
Y03325D01*
X0224161Y0339193D01*
X0234004D01*
X02405Y03325D01*
Y0299035D02*
Y03325D01*
X-0008335Y028763D02*
X00145D01*
X-0008335D02*
Y0321094D01*
X-0001839Y0327787D01*
X0008004D01*
X00145Y0321094D01*
Y028763D02*
Y0321094D01*
X0138413Y0304941D02*
X0161248D01*
X0138413D02*
Y0338406D01*
X0144909Y0345098D01*
X0154752D01*
X0161248Y0338406D01*
Y0304941D02*
Y0338406D01*
X0059165Y0299035D02*
X0082D01*
X0059165D02*
Y03325D01*
X0065661Y0339193D01*
X0075504D01*
X0082Y03325D01*
Y0299035D02*
Y03325D01*
M02*
